<svg width="52" height="52" viewBox="0 0 52 52" fill="none" xmlns="http://www.w3.org/2000/svg">
<rect x="0.148438" y="0.149475" width="51.5602" height="51.5602" rx="9.19481" fill="#1C63FF" fill-opacity="0.1"/>
<path d="M22.5801 21.1765L19.7676 29.9515C19.7509 30.0002 19.746 30.0523 19.7533 30.1033C19.7606 30.1543 19.78 30.2028 19.8097 30.2449C19.8394 30.287 19.8788 30.3215 19.9244 30.3454C19.97 30.3694 20.0207 30.3822 20.0722 30.3827H20.8597C20.93 30.3825 20.9984 30.3596 21.0545 30.3173C21.1107 30.2751 21.1517 30.2158 21.1715 30.1483L21.6121 28.7421H25.4629L25.409 28.6554L25.8918 30.1483C25.9115 30.2158 25.9525 30.2751 26.0087 30.3173C26.0649 30.3596 26.1332 30.3825 26.2035 30.3827H26.991C27.0426 30.383 27.0935 30.3711 27.1396 30.3478C27.1856 30.3246 27.2255 30.2908 27.2559 30.2492C27.2864 30.2075 27.3065 30.1592 27.3146 30.1083C27.3227 30.0573 27.3187 30.0052 27.3027 29.9562L24.4902 21.1812C24.4702 21.1139 24.4291 21.0548 24.3729 21.0126C24.3168 20.9704 24.2487 20.9474 24.1785 20.9468H22.8847C22.8163 20.9482 22.7499 20.9711 22.6953 21.0123C22.6406 21.0536 22.6002 21.111 22.5801 21.1765ZM22.0808 27.3358L23.5316 22.8194L24.9941 27.3358H22.0808Z" fill="#1C63FF"/>
<path d="M30.5234 20.9491H29.7734C29.5922 20.9491 29.4453 21.096 29.4453 21.2772V30.0522C29.4453 30.2334 29.5922 30.3803 29.7734 30.3803H30.5234C30.7047 30.3803 30.8516 30.2334 30.8516 30.0522V21.2772C30.8516 21.096 30.7047 20.9491 30.5234 20.9491Z" fill="#1C63FF"/>
<path d="M26.6938 33.8983H19.8734C19.3662 33.8983 18.8798 33.6968 18.5211 33.3382C18.1624 32.9795 17.9609 32.493 17.9609 31.9858V19.8733C17.9609 19.3661 18.1624 18.8796 18.5211 18.521C18.8798 18.1623 19.3662 17.9608 19.8734 17.9608H31.9859C32.4932 17.9608 32.9796 18.1623 33.3383 18.521C33.6969 18.8796 33.8984 19.3661 33.8984 19.8733V25.9296C33.9027 26.0574 33.9573 26.1784 34.0504 26.2662C34.1435 26.354 34.2674 26.4015 34.3953 26.3983C34.7944 26.3971 35.1884 26.4886 35.5461 26.6655C35.6204 26.7036 35.7032 26.7218 35.7866 26.7183C35.87 26.7148 35.9511 26.6898 36.0219 26.6457C36.0927 26.6015 36.1509 26.5398 36.1907 26.4664C36.2306 26.3931 36.2507 26.3107 36.2492 26.2272V19.8733C36.2492 19.3138 36.1389 18.7598 35.9246 18.2429C35.7102 17.726 35.3961 17.2565 35.0001 16.8612C34.6041 16.4659 34.1341 16.1525 33.6169 15.939C33.0997 15.7256 32.5455 15.6161 31.9859 15.6171H19.8734C18.7446 15.6171 17.662 16.0655 16.8638 16.8637C16.0656 17.6619 15.6172 18.7445 15.6172 19.8733V31.9858C15.6172 33.1146 16.0656 34.1972 16.8638 34.9954C17.662 35.7936 18.7446 36.2421 19.8734 36.2421H27.6781C27.774 36.2422 27.8678 36.2139 27.9476 36.1607C28.0275 36.1076 28.0897 36.032 28.1266 35.9434C28.1635 35.8549 28.1733 35.7574 28.1548 35.6633C28.1363 35.5692 28.0903 35.4827 28.0227 35.4147C27.658 35.0801 27.3625 34.6772 27.1531 34.2288C27.1196 34.1333 27.0575 34.0504 26.9754 33.9914C26.8932 33.9323 26.7949 33.8998 26.6938 33.8983Z" fill="#1C63FF"/>
<path d="M37.1162 34.7889L39.2396 33.9522C39.2834 33.9349 39.3209 33.9049 39.3473 33.866C39.3737 33.8272 39.3879 33.7812 39.3879 33.7342C39.3879 33.6872 39.3737 33.6413 39.3473 33.6024C39.3209 33.5636 39.2834 33.5335 39.2396 33.5163L37.1162 32.6796C36.7403 32.5309 36.3989 32.3068 36.1131 32.021C35.8273 31.7351 35.6031 31.3937 35.4545 31.0178L34.6178 28.9085C34.6004 28.8648 34.5703 28.8275 34.5315 28.8011C34.4926 28.7748 34.4467 28.7608 34.3998 28.7608C34.3529 28.7608 34.307 28.7748 34.2681 28.8011C34.2293 28.8275 34.1992 28.8648 34.1818 28.9085L33.3451 31.0178C33.1968 31.3939 32.9728 31.7355 32.687 32.0214C32.4011 32.3073 32.0595 32.5313 31.6834 32.6796L29.574 33.5163C29.5303 33.5335 29.4928 33.5636 29.4664 33.6024C29.4399 33.6413 29.4258 33.6872 29.4258 33.7342C29.4258 33.7812 29.4399 33.8272 29.4664 33.866C29.4928 33.9049 29.5303 33.9349 29.574 33.9522L31.6834 34.7889C32.0595 34.9372 32.4011 35.1612 32.687 35.4471C32.9728 35.7329 33.1968 36.0745 33.3451 36.4506L34.1818 38.56C34.1988 38.6041 34.2287 38.642 34.2676 38.6687C34.3065 38.6955 34.3526 38.7099 34.3998 38.71C34.447 38.7099 34.4931 38.6955 34.532 38.6687C34.5709 38.642 34.6008 38.6041 34.6178 38.56L35.4545 36.4506C35.6031 36.0748 35.8273 35.7333 36.1131 35.4475C36.3989 35.1617 36.7403 34.9376 37.1162 34.7889Z" fill="#1C63FF"/>
</svg>
