<svg width="338" height="345" viewBox="0 0 338 345" fill="none" xmlns="http://www.w3.org/2000/svg">
<path d="M231.581 223.23C220.651 232.93 207.001 245 182.251 245H167.451C149.541 245 133.251 238.49 121.591 226.69C110.201 215.16 103.931 199.38 103.931 182.25V162C103.931 144.87 110.201 129.09 121.591 117.56C133.251 105.76 149.541 99.26 167.451 99.26H182.251C207.031 99.26 220.651 111.32 231.581 121.02C242.931 131.02 252.721 139.76 278.831 139.76C282.813 139.759 286.789 139.441 290.721 138.81L290.631 138.58C289.067 134.696 287.232 130.927 285.141 127.3L267.691 97.07C259.822 83.4423 248.504 72.126 234.875 64.2585C221.247 56.3909 205.787 52.2493 190.051 52.25H155.141C139.404 52.2493 123.945 56.3909 110.316 64.2585C96.6875 72.126 85.3698 83.4423 77.5007 97.07L60.0507 127.3C52.1842 140.929 48.043 156.389 48.043 172.125C48.043 187.861 52.1842 203.321 60.0507 216.95L77.5007 247.18C85.3698 260.808 96.6875 272.124 110.316 279.992C123.945 287.859 139.404 292.001 155.141 292H190.051C205.787 292.001 221.247 287.859 234.875 279.992C248.504 272.124 259.822 260.808 267.691 247.18L285.141 217C287.232 213.373 289.067 209.604 290.631 205.72L290.721 205.5C286.791 204.847 282.814 204.513 278.831 204.5C252.721 204.5 242.931 213.19 231.581 223.24" fill="#006BFF"/>
<path d="M182.251 117.609H167.451C140.191 117.609 122.281 137.079 122.281 161.999V182.249C122.281 207.169 140.191 226.639 167.451 226.639H182.251C221.971 226.639 218.851 186.139 278.831 186.139C284.514 186.133 290.185 186.655 295.771 187.699C297.591 177.396 297.591 166.853 295.771 156.549C290.184 157.589 284.514 158.111 278.831 158.109C218.831 158.109 221.971 117.609 182.251 117.609Z" fill="#006BFF"/>
<path d="M330.23 202.5C320.016 195.019 308.237 189.955 295.78 187.69C295.78 187.8 295.78 187.89 295.78 187.99C294.708 193.96 293.033 199.807 290.78 205.44C301.07 207.033 310.833 211.054 319.26 217.17C319.26 217.25 319.21 217.35 319.18 217.44C308.334 252.561 285.249 282.628 254.12 302.177C222.99 321.726 185.881 329.46 149.534 323.975C113.187 318.491 80.0129 300.151 56.0381 272.286C32.0632 244.422 18.8783 208.883 18.8783 172.125C18.8783 135.366 32.0632 99.8266 56.0381 71.9626C80.0129 44.0985 113.187 25.7584 149.534 20.2737C185.881 14.7889 222.99 22.5236 254.12 42.0725C285.249 61.6214 308.334 91.6876 319.18 126.81C319.18 126.9 319.23 127 319.26 127.08C310.834 133.196 301.071 137.214 290.78 138.8C293.03 144.44 294.705 150.293 295.78 156.27C295.775 156.363 295.775 156.456 295.78 156.55C308.236 154.288 320.016 149.228 330.23 141.75C340.05 134.48 338.15 126.27 336.66 121.41C324.519 82.0307 298.654 48.3141 263.764 26.3868C228.874 4.45938 187.276 -4.22368 146.527 1.91544C105.779 8.05455 68.5855 28.6084 41.705 59.8421C14.8244 91.0758 0.0410156 130.916 0.0410156 172.125C0.0410156 213.333 14.8244 253.173 41.705 284.407C68.5855 315.641 105.779 336.195 146.527 342.334C187.276 348.473 228.874 339.79 263.764 317.862C298.654 295.935 324.519 262.218 336.66 222.84C338.15 217.98 340.05 209.77 330.23 202.5Z" fill="#006BFF"/>
</svg>
