<svg xmlns="http://www.w3.org/2000/svg" width="75" height="57" fill="none" viewBox="0 0 75 57"><path fill="#fff" d="M67.699 4.912c4.293 4.557 6.597 9.671 6.597 17.962 0 14.58-10.235 27.652-25.127 34.113l-3.72-5.74c13.898-7.52 16.613-17.272 17.7-23.422-2.238 1.157-5.168 1.564-8.039 1.298-7.518-.697-13.443-6.87-13.443-14.54C41.667 6.53 48.195 0 56.25 0c4.471 0 8.746 2.044 11.449 4.912m-41.667 0c4.293 4.557 6.598 9.671 6.598 17.962 0 14.58-10.236 27.652-25.128 34.113l-3.72-5.74c13.898-7.52 16.614-17.272 17.7-23.422-2.238 1.157-5.167 1.564-8.038 1.298C5.925 28.426 0 22.253 0 14.583 0 6.53 6.53 0 14.583 0c4.471 0 8.747 2.044 11.45 4.912"/></svg>