<svg width="25" height="25" viewBox="0 0 25 25" fill="none" xmlns="http://www.w3.org/2000/svg">
<g clip-path="url(#clip0_21_249)">
<path fill-rule="evenodd" clip-rule="evenodd" d="M4.38818 14.5199C10.1191 12.2755 13.8628 10.89 12.867 18.1505C12.5033 19.8273 12.237 21.4588 12.0671 23.0442C12.301 24.9204 12.9409 25.4466 13.9868 24.6226C16.7927 20.1069 18.8724 15.8449 20.2262 11.836C23.0627 3.4024 7.94156 9.76397 4.38818 14.5199Z" fill="#010101"/>
<path fill-rule="evenodd" clip-rule="evenodd" d="M15.6326 24.5037C16.0576 23.8034 16.4737 23.095 16.8794 22.3792C17.6173 21.1389 17.9865 20.5186 17.9865 20.5186C20.9929 18.4996 22.9488 15.2797 23.3367 11.712C23.2297 10.3638 22.8701 9.0855 22.3044 7.92348C22.818 7.71849 23.2876 7.42916 23.697 7.0733C24.5303 8.7256 24.9999 10.5886 24.9999 12.5601C24.9999 14.7155 24.4397 16.7415 23.4552 18.5047C23.3871 18.6347 23.3145 18.7634 23.2379 18.8901C23.1517 19.0323 23.0608 19.1707 22.9661 19.3058C21.2851 21.8399 18.6846 23.7267 15.6326 24.5037Z" fill="#010101"/>
<path d="M20.4815 6.9456C22.4251 6.9456 24.0008 5.39085 24.0008 3.47297C24.0008 1.55509 22.4251 0.000335693 20.4815 0.000335693C18.5378 0.000335693 16.9622 1.55509 16.9622 3.47297C16.9622 5.39085 18.5378 6.9456 20.4815 6.9456Z" fill="#BAE40E"/>
<path fill-rule="evenodd" clip-rule="evenodd" d="M7.54403 6.67442C10.4143 5.31144 13.7398 5.23247 16.673 6.45834C15.3476 4.81377 15.2822 2.53609 16.4122 0.843123C15.1814 0.443236 13.8665 0.226154 12.5002 0.226154C5.59638 0.226154 0 5.74829 0 12.5601C0 18.913 4.86793 24.1431 11.1236 24.8195C10.9077 24.3034 10.797 23.7264 10.7323 23.2066L10.7245 23.143C1.8683 21.7071 -1.94322 11.1797 7.54403 6.67442Z" fill="#010101"/>
</g>
<defs>
<clipPath id="clip0_21_249">
<rect width="25" height="25" fill="white"/>
</clipPath>
</defs>
</svg>
