<svg width="72" height="72" viewBox="0 0 72 72" fill="none" xmlns="http://www.w3.org/2000/svg">
<rect width="72" height="72" rx="36" fill="white"/>
<path d="M10.5421 34V20.9091H13.3098V26.3104H18.9284V20.9091H21.6898V34H18.9284V28.5923H13.3098V34H10.5421ZM23.9206 34V24.1818H26.6436V34H23.9206ZM25.2885 22.9162C24.8837 22.9162 24.5364 22.782 24.2466 22.5135C23.9611 22.2408 23.8184 21.9148 23.8184 21.5355C23.8184 21.1605 23.9611 20.8388 24.2466 20.5703C24.5364 20.2976 24.8837 20.1612 25.2885 20.1612C25.6934 20.1612 26.0385 20.2976 26.324 20.5703C26.6138 20.8388 26.7587 21.1605 26.7587 21.5355C26.7587 21.9148 26.6138 22.2408 26.324 22.5135C26.0385 22.782 25.6934 22.9162 25.2885 22.9162ZM28.8249 34V24.1818H31.4648V25.8949H31.5671C31.7461 25.2855 32.0465 24.8253 32.4684 24.5142C32.8903 24.1989 33.3761 24.0412 33.9258 24.0412C34.0621 24.0412 34.2092 24.0497 34.3668 24.0668C34.5245 24.0838 34.663 24.1072 34.7823 24.1371V26.5533C34.6545 26.5149 34.4776 26.4808 34.2518 26.451C34.0259 26.4212 33.8192 26.4062 33.6317 26.4062C33.2312 26.4062 32.8732 26.4936 32.5579 26.6683C32.2468 26.8388 31.9996 27.0774 31.8164 27.3842C31.6374 27.6911 31.5479 28.0447 31.5479 28.4453V34H28.8249ZM36.1902 34V24.1818H38.9132V34H36.1902ZM37.5581 22.9162C37.1532 22.9162 36.8059 22.782 36.5162 22.5135C36.2306 22.2408 36.0879 21.9148 36.0879 21.5355C36.0879 21.1605 36.2306 20.8388 36.5162 20.5703C36.8059 20.2976 37.1532 20.1612 37.5581 20.1612C37.9629 20.1612 38.3081 20.2976 38.5936 20.5703C38.8833 20.8388 39.0282 21.1605 39.0282 21.5355C39.0282 21.9148 38.8833 22.2408 38.5936 22.5135C38.3081 22.782 37.9629 22.9162 37.5581 22.9162ZM43.8175 28.3239V34H41.0945V24.1818H43.6896V25.9141H43.8047C44.022 25.343 44.3864 24.8913 44.8977 24.5589C45.4091 24.2223 46.0291 24.054 46.7578 24.054C47.4396 24.054 48.0341 24.2031 48.5412 24.5014C49.0483 24.7997 49.4425 25.2259 49.7237 25.7798C50.005 26.3295 50.1456 26.9858 50.1456 27.7486V34H47.4226V28.2344C47.4268 27.6335 47.2734 27.1648 46.9624 26.8281C46.6513 26.4872 46.223 26.3168 45.6776 26.3168C45.3111 26.3168 44.9872 26.3956 44.706 26.5533C44.429 26.7109 44.2116 26.9411 44.054 27.2436C43.9006 27.5419 43.8217 27.902 43.8175 28.3239ZM56.715 37.8864C55.8329 37.8864 55.0765 37.7649 54.4458 37.522C53.8194 37.2834 53.3208 36.9574 52.9501 36.544C52.5794 36.1307 52.3386 35.6662 52.2278 35.1506L54.7463 34.8118C54.823 35.0078 54.9444 35.1911 55.1106 35.3615C55.2768 35.532 55.4963 35.6683 55.769 35.7706C56.046 35.8771 56.3826 35.9304 56.7789 35.9304C57.3713 35.9304 57.8592 35.7855 58.2427 35.4957C58.6305 35.2102 58.8244 34.7308 58.8244 34.0575V32.2614H58.7093C58.59 32.5341 58.411 32.7919 58.1724 33.0348C57.9338 33.2777 57.627 33.4759 57.252 33.6293C56.877 33.7827 56.4295 33.8594 55.9096 33.8594C55.1724 33.8594 54.5012 33.6889 53.8961 33.348C53.2953 33.0028 52.8159 32.4766 52.4579 31.7692C52.1042 31.0575 51.9274 30.1584 51.9274 29.0717C51.9274 27.9595 52.1085 27.0305 52.4707 26.2848C52.8329 25.5391 53.3145 24.9808 53.9153 24.6101C54.5204 24.2393 55.1831 24.054 55.9032 24.054C56.4529 24.054 56.9132 24.1477 57.2839 24.3352C57.6547 24.5185 57.9529 24.7486 58.1788 25.0256C58.4089 25.2983 58.5858 25.5668 58.7093 25.831H58.8116V24.1818H61.5154V34.0959C61.5154 34.9311 61.3109 35.63 60.9018 36.1925C60.4927 36.755 59.926 37.1768 59.2015 37.4581C58.4814 37.7436 57.6525 37.8864 56.715 37.8864ZM56.7726 31.8139C57.2115 31.8139 57.5822 31.7053 57.8848 31.4879C58.1916 31.2663 58.426 30.951 58.5879 30.5419C58.7541 30.1286 58.8372 29.6342 58.8372 29.0589C58.8372 28.4837 58.7562 27.9851 58.5943 27.5632C58.4324 27.1371 58.198 26.8068 57.8912 26.5724C57.5843 26.3381 57.2115 26.2209 56.7726 26.2209C56.3251 26.2209 55.948 26.3423 55.6412 26.5852C55.3343 26.8239 55.1021 27.1562 54.9444 27.5824C54.7868 28.0085 54.7079 28.5007 54.7079 29.0589C54.7079 29.6257 54.7868 30.1158 54.9444 30.5291C55.1064 30.9382 55.3386 31.2557 55.6412 31.4815C55.948 31.7031 56.3251 31.8139 56.7726 31.8139ZM28.4174 42.9091V56H26.0268L20.3315 47.7607H20.2356V56H17.4679V42.9091H19.8968L25.5474 51.142H25.6625V42.9091H28.4174ZM35.0891 56.1918C34.0962 56.1918 33.2376 55.9808 32.5131 55.5589C31.793 55.1328 31.2369 54.5405 30.8448 53.782C30.4528 53.0192 30.2567 52.1349 30.2567 51.1293C30.2567 50.1151 30.4528 49.2287 30.8448 48.4702C31.2369 47.7074 31.793 47.1151 32.5131 46.6932C33.2376 46.267 34.0962 46.054 35.0891 46.054C36.082 46.054 36.9386 46.267 37.6587 46.6932C38.3832 47.1151 38.9414 47.7074 39.3335 48.4702C39.7255 49.2287 39.9215 50.1151 39.9215 51.1293C39.9215 52.1349 39.7255 53.0192 39.3335 53.782C38.9414 54.5405 38.3832 55.1328 37.6587 55.5589C36.9386 55.9808 36.082 56.1918 35.0891 56.1918ZM35.1019 54.0824C35.5536 54.0824 35.9308 53.9545 36.2333 53.6989C36.5359 53.4389 36.7638 53.0852 36.9173 52.6378C37.0749 52.1903 37.1538 51.6811 37.1538 51.1101C37.1538 50.5391 37.0749 50.0298 36.9173 49.5824C36.7638 49.1349 36.5359 48.7812 36.2333 48.5213C35.9308 48.2614 35.5536 48.1314 35.1019 48.1314C34.646 48.1314 34.2624 48.2614 33.9513 48.5213C33.6445 48.7812 33.4123 49.1349 33.2546 49.5824C33.1012 50.0298 33.0245 50.5391 33.0245 51.1101C33.0245 51.6811 33.1012 52.1903 33.2546 52.6378C33.4123 53.0852 33.6445 53.4389 33.9513 53.6989C34.2624 53.9545 34.646 54.0824 35.1019 54.0824ZM43.3828 56L40.7109 46.1818H43.4659L44.9872 52.7784H45.0767L46.6619 46.1818H49.3658L50.9766 52.7401H51.0597L52.5554 46.1818H55.304L52.6385 56H49.7557L48.0682 49.8253H47.9467L46.2592 56H43.3828Z" fill="black"/>
</svg>
