<svg width="148" height="35" viewBox="0 0 148 35" fill="none" xmlns="http://www.w3.org/2000/svg">
<g clip-path="url(#clip0_21_248)">
<path fill-rule="evenodd" clip-rule="evenodd" d="M126.893 24.5199C132.624 22.2755 136.368 20.89 135.372 28.1505C135.008 29.8273 134.742 31.4588 134.572 33.0442C134.806 34.9204 135.446 35.4466 136.492 34.6226C139.298 30.1069 141.377 25.8449 142.731 21.836C145.568 13.4024 130.446 19.764 126.893 24.5199Z" fill="#010101"/>
<path fill-rule="evenodd" clip-rule="evenodd" d="M138.137 34.5037C138.562 33.8034 138.979 33.095 139.384 32.3792C140.122 31.1389 140.491 30.5186 140.491 30.5186C143.498 28.4996 145.454 25.2797 145.842 21.712C145.735 20.3638 145.375 19.0855 144.809 17.9235C145.323 17.7185 145.793 17.4292 146.202 17.0733C147.035 18.7256 147.505 20.5886 147.505 22.5601C147.505 24.7155 146.945 26.7415 145.96 28.5047C145.892 28.6347 145.819 28.7634 145.743 28.8901C145.657 29.0323 145.566 29.1707 145.471 29.3058C143.79 31.8399 141.19 33.7267 138.137 34.5037Z" fill="#010101"/>
<path d="M142.986 16.9456C144.93 16.9456 146.506 15.3909 146.506 13.473C146.506 11.5551 144.93 10.0003 142.986 10.0003C141.043 10.0003 139.467 11.5551 139.467 13.473C139.467 15.3909 141.043 16.9456 142.986 16.9456Z" fill="#BAE40E"/>
<path fill-rule="evenodd" clip-rule="evenodd" d="M130.049 16.6744C132.919 15.3114 136.245 15.2325 139.178 16.4583C137.852 14.8138 137.787 12.5361 138.917 10.8431C137.686 10.4432 136.371 10.2262 135.005 10.2262C128.101 10.2262 122.505 15.7483 122.505 22.5601C122.505 28.913 127.373 34.1431 133.629 34.8195C133.413 34.3034 133.302 33.7264 133.237 33.2066L133.229 33.143C124.373 31.7071 120.562 21.1797 130.049 16.6744Z" fill="#010101"/>
</g>
<path d="M8.505 34.065V6.615H0V0.539998H23.85V6.615H15.48V34.065H8.505Z" fill="#010101"/>
<path d="M26.8091 34.065V9.495H33.5591V34.065H26.8091Z" fill="#010101"/>
<path d="M38.4986 34.065V9.495H44.7986V15.48L44.1236 14.49C44.4836 12.6 45.3536 11.205 46.7336 10.305C48.1136 9.405 49.7636 8.955 51.6836 8.955C53.7236 8.955 55.5086 9.48 57.0386 10.53C58.5986 11.55 59.5736 12.93 59.9636 14.67L58.0286 14.85C58.8386 12.84 59.9936 11.355 61.4936 10.395C62.9936 9.435 64.7486 8.955 66.7586 8.955C68.5285 8.955 70.0886 9.345 71.4386 10.125C72.8186 10.905 73.8986 12 74.6786 13.41C75.4586 14.79 75.8486 16.41 75.8486 18.27V34.065H69.0986V19.71C69.0986 18.75 68.9186 17.925 68.5586 17.235C68.2286 16.545 67.7486 16.005 67.1186 15.615C66.4886 15.225 65.7236 15.03 64.8236 15.03C63.9536 15.03 63.1886 15.225 62.5286 15.615C61.8986 16.005 61.4036 16.545 61.0436 17.235C60.7136 17.925 60.5486 18.75 60.5486 19.71V34.065H53.7986V19.71C53.7986 18.75 53.6186 17.925 53.2586 17.235C52.9286 16.545 52.4486 16.005 51.8186 15.615C51.1886 15.225 50.4236 15.03 49.5236 15.03C48.6536 15.03 47.8886 15.225 47.2286 15.615C46.5986 16.005 46.1036 16.545 45.7436 17.235C45.4136 17.925 45.2486 18.75 45.2486 19.71V34.065H38.4986Z" fill="#010101"/>
<path d="M80.2906 34.065V9.495H87.0406V34.065H80.2906Z" fill="#010101"/>
<path d="M103.545 34.605C101.145 34.605 99 34.035 97.11 32.895C95.22 31.755 93.72 30.21 92.61 28.26C91.53 26.31 90.99 24.15 90.99 21.78C90.99 19.38 91.545 17.22 92.655 15.3C93.765 13.35 95.265 11.805 97.155 10.665C99.045 9.525 101.16 8.955 103.5 8.955C105.3 8.955 106.89 9.3 108.27 9.99C109.68 10.65 110.79 11.595 111.6 12.825L110.565 14.175V0H117.315V34.065H111.015V29.565L111.645 30.96C110.805 32.16 109.665 33.075 108.225 33.705C106.785 34.305 105.225 34.605 103.545 34.605ZM104.355 28.53C105.585 28.53 106.665 28.245 107.595 27.675C108.525 27.105 109.245 26.31 109.755 25.29C110.295 24.27 110.565 23.1 110.565 21.78C110.565 20.46 110.295 19.29 109.755 18.27C109.245 17.25 108.525 16.455 107.595 15.885C106.665 15.315 105.585 15.03 104.355 15.03C103.125 15.03 102.015 15.33 101.025 15.93C100.065 16.5 99.315 17.295 98.775 18.315C98.235 19.305 97.965 20.46 97.965 21.78C97.965 23.1 98.235 24.27 98.775 25.29C99.315 26.31 100.065 27.105 101.025 27.675C102.015 28.245 103.125 28.53 104.355 28.53Z" fill="#010101"/>
<path d="M87.505 4.565C87.505 6.498 85.938 8.065 84.005 8.065C82.072 8.065 80.505 6.498 80.505 4.565C80.505 2.63201 82.072 1.065 84.005 1.065C85.938 1.065 87.505 2.63201 87.505 4.565Z" fill="#BAE40E"/>
<path d="M33.505 4.565C33.505 6.498 31.938 8.065 30.005 8.065C28.072 8.065 26.505 6.498 26.505 4.565C26.505 2.63201 28.072 1.065 30.005 1.065C31.938 1.065 33.505 2.63201 33.505 4.565Z" fill="#BAE40E"/>
<defs>
<clipPath id="clip0_21_248">
<rect width="25" height="25" fill="white" transform="translate(122.505 10)"/>
</clipPath>
</defs>
</svg>
