<svg width="40" height="40" viewBox="0 0 40 40" fill="none" xmlns="http://www.w3.org/2000/svg">
<g clip-path="url(#clip0_296_2238)">
<path d="M39.3635 0H0V39.3635H39.3635V0Z" fill="#5A5A5A"/>
<path d="M7.01584 25.1489C6.73751 25.1489 6.50094 25.0562 6.3061 24.8707C6.11127 24.6804 6.01385 24.4545 6.01385 24.1929C6.01385 23.9265 6.11127 23.6983 6.3061 23.508C6.50094 23.3178 6.73751 23.2227 7.01584 23.2227C7.29881 23.2227 7.53771 23.3178 7.73254 23.508C7.93201 23.6983 8.03175 23.9265 8.03175 24.1929C8.03175 24.4545 7.93201 24.6804 7.73254 24.8707C7.53771 25.0562 7.29881 25.1489 7.01584 25.1489Z" fill="white"/>
<path d="M18.1424 24.9919H16.3332L11.5669 17.4724C11.4463 17.2821 11.3465 17.0847 11.2677 16.8802H11.2259C11.263 17.099 11.2816 17.5675 11.2816 18.2856V24.9919H9.68115V14.7613H11.6086L16.215 22.1025C16.4098 22.407 16.5351 22.6162 16.5907 22.7303H16.6185C16.5722 22.4593 16.549 22.0003 16.549 21.3534V14.7613H18.1424V24.9919Z" fill="white"/>
<path d="M25.9358 24.9919H20.3345V14.7613H25.7132V16.2025H21.9906V19.099H25.421V20.533H21.9906V23.5579H25.9358V24.9919Z" fill="white"/>
<path d="M33.8964 16.2025H31.0296V24.9919H29.3735V16.2025H26.5137V14.7613H33.8964V16.2025Z" fill="white"/>
</g>
<defs>
<clipPath id="clip0_296_2238">
<rect width="39.3635" height="39.3635" fill="white"/>
</clipPath>
</defs>
</svg>
