<svg width="43" height="43" viewBox="0 0 43 43" fill="none" xmlns="http://www.w3.org/2000/svg">
<rect x="0.5" y="0.825195" width="42" height="42" rx="11.4545" fill="#1167E8" fill-opacity="0.1"/>
<path d="M20.5449 29.1206C20.346 29.1206 20.1552 29.1996 20.0146 29.3403C19.8739 29.4809 19.7949 29.6717 19.7949 29.8706C19.7949 30.0695 19.8739 30.2603 20.0146 30.4009C20.1552 30.5416 20.346 30.6206 20.5449 30.6206H23.5449C23.7438 30.6206 23.9346 30.5416 24.0753 30.4009C24.2159 30.2603 24.2949 30.0695 24.2949 29.8706C24.2949 29.6717 24.2159 29.4809 24.0753 29.3403C23.9346 29.1996 23.7438 29.1206 23.5449 29.1206H20.5449Z" fill="#1167E8"/>
<path fill-rule="evenodd" clip-rule="evenodd" d="M18.6699 11.1206C17.7748 11.1206 16.9164 11.4762 16.2834 12.1091C15.6505 12.7421 15.2949 13.6005 15.2949 14.4956V30.2456C15.2949 31.1407 15.6505 31.9992 16.2834 32.6321C16.9164 33.265 17.7748 33.6206 18.6699 33.6206H25.4199C26.315 33.6206 27.1735 33.265 27.8064 32.6321C28.4393 31.9992 28.7949 31.1407 28.7949 30.2456V14.4956C28.7949 13.6005 28.4393 12.7421 27.8064 12.1091C27.1735 11.4762 26.315 11.1206 25.4199 11.1206H18.6699ZM17.5449 14.4956C17.5449 13.8746 18.0489 13.3706 18.6699 13.3706H19.7949V13.7456C19.7949 14.3666 20.2989 14.8706 20.9199 14.8706H23.1699C23.7909 14.8706 24.2949 14.3666 24.2949 13.7456V13.3706H25.4199C26.0409 13.3706 26.5449 13.8746 26.5449 14.4956V30.2456C26.5449 30.8666 26.0409 31.3706 25.4199 31.3706H18.6699C18.3716 31.3706 18.0854 31.2521 17.8744 31.0411C17.6634 30.8301 17.5449 30.544 17.5449 30.2456V14.4956Z" fill="#1167E8"/>
</svg>
