<svg width="120" height="33" viewBox="0 0 120 33" fill="none" xmlns="http://www.w3.org/2000/svg">
<g clip-path="url(#clip0_296_2223)">
<path d="M37.3668 15.6448C37.3668 20.9654 40.7837 24.6753 45.5187 24.6753C50.2536 24.6753 53.6705 20.9654 53.6705 15.6448C53.6705 10.3241 50.2536 6.61426 45.5187 6.61426C40.7837 6.61426 37.3668 10.3241 37.3668 15.6448ZM50.5465 15.6448C50.5465 19.4522 48.4719 21.9173 45.5187 21.9173C42.5654 21.9173 40.4909 19.4522 40.4909 15.6448C40.4909 11.8373 42.5654 9.37222 45.5187 9.37222C48.4719 9.37222 50.5465 11.8373 50.5465 15.6448Z" fill="#5A5A5A"/>
<path d="M62.4682 24.6752C66.056 24.6752 68.1061 21.6488 68.1061 18.0122C68.1061 14.3756 66.056 11.3491 62.4682 11.3491C60.8085 11.3491 59.5882 12.0081 58.7827 12.96V11.5932H55.8539V28.8H58.7827V23.0644C59.5882 24.0162 60.8085 24.6752 62.4682 24.6752ZM58.7095 17.6461C58.7095 15.2298 60.0763 13.9118 61.8824 13.9118C64.0058 13.9118 65.1529 15.5715 65.1529 18.0122C65.1529 20.4528 64.0058 22.1125 61.8824 22.1125C60.0763 22.1125 58.7095 20.7701 58.7095 18.4027V17.6461Z" fill="#5A5A5A"/>
<path d="M76.0322 24.6752C78.5949 24.6752 80.6207 23.3328 81.5237 21.0874L79.0098 20.1356C78.6193 21.4535 77.4722 22.1857 76.0322 22.1857C74.1529 22.1857 72.8349 20.8434 72.6152 18.6467H81.5969V17.6705C81.5969 14.1559 79.62 11.3491 75.9102 11.3491C72.2003 11.3491 69.8085 14.2535 69.8085 18.0122C69.8085 21.9661 72.3712 24.6752 76.0322 24.6752ZM75.8858 13.8142C77.7407 13.8142 78.6193 15.0345 78.6437 16.4501H72.7617C73.201 14.7173 74.3725 13.8142 75.8858 13.8142Z" fill="#5A5A5A"/>
<path d="M83.7946 24.4067H86.7234V16.8895C86.7234 15.059 88.0658 14.0827 89.3837 14.0827C90.9946 14.0827 91.6292 15.2298 91.6292 16.8162V24.4067H94.558V15.962C94.558 13.204 92.9471 11.3491 90.2624 11.3491C88.6027 11.3491 87.4556 12.1057 86.7234 12.96V11.5932H83.7946V24.4067Z" fill="#5A5A5A"/>
<path d="M103.136 6.88269L96.4973 24.4068H99.5969L101.086 20.404H108.652L110.165 24.4068H113.314L106.675 6.88269H103.136ZM104.844 10.3485L107.627 17.6705H102.111L104.844 10.3485Z" fill="#5A5A5A"/>
<path d="M118.341 6.93353H115.217V24.4576H118.341V6.93353Z" fill="#5A5A5A"/>
<path d="M30.2095 13.319C30.9478 11.103 30.6936 8.67556 29.5129 6.65997C27.7373 3.56844 24.1678 1.97793 20.6817 2.72641C19.1308 0.97929 16.9027 -0.0142695 14.5668 -3.21666e-05C11.0034 -0.00816776 7.84169 2.28607 6.74542 5.67658C4.45626 6.14539 2.48033 7.57827 1.32406 9.60912C-0.464752 12.6925 -0.0569556 16.5793 2.33288 19.2234C1.59457 21.4393 1.84881 23.8667 3.02949 25.8823C4.80508 28.9739 8.37457 30.5644 11.8607 29.8159C13.4105 31.563 15.6397 32.5566 17.9756 32.5413C21.541 32.5505 24.7037 30.2542 25.8 26.8606C28.0891 26.3918 30.0651 24.959 31.2214 22.9281C33.0081 19.8447 32.5993 15.961 30.2105 13.3169L30.2095 13.319ZM17.9776 30.4149C16.5508 30.4169 15.1688 29.9176 14.0736 29.0034C14.1234 28.9769 14.2098 28.9291 14.2658 28.8945L20.7458 25.1522C21.0773 24.964 21.2807 24.6112 21.2786 24.2298V15.0945L24.0173 16.6759C24.0468 16.6901 24.0661 16.7186 24.0702 16.7512V24.3162C24.0661 27.6803 21.3417 30.4078 17.9776 30.4149ZM4.87525 24.8186C4.16033 23.584 3.90304 22.1369 4.14813 20.7325C4.19593 20.761 4.28033 20.8128 4.34033 20.8474L10.8203 24.5898C11.1488 24.782 11.5556 24.782 11.8851 24.5898L19.7959 20.0217V23.1844C19.798 23.2169 19.7827 23.2484 19.7573 23.2688L13.2071 27.0508C10.2895 28.7308 6.56338 27.7322 4.87627 24.8186H4.87525ZM3.16982 10.6739C3.88169 9.43726 5.00542 8.49149 6.34372 8.00031C6.34372 8.05624 6.34067 8.15488 6.34067 8.22404V15.7098C6.33864 16.0901 6.54203 16.443 6.87254 16.6312L14.7834 21.1983L12.0447 22.7796C12.0173 22.7979 11.9827 22.801 11.9522 22.7878L5.40101 19.0027C2.48949 17.3166 1.49084 13.5915 3.16881 10.6749L3.16982 10.6739ZM25.6708 15.9101L17.76 11.342L20.4986 9.76166C20.5261 9.74336 20.5607 9.74031 20.5912 9.75353L27.1424 13.5356C30.059 15.2206 31.0586 18.9518 29.3736 21.8684C28.6607 23.103 27.538 24.0488 26.2007 24.541V16.8315C26.2037 16.4512 26.0014 16.0993 25.6719 15.9101H25.6708ZM28.3963 11.8078C28.3485 11.7783 28.2641 11.7274 28.2041 11.6929L21.7241 7.95048C21.3956 7.75827 20.9888 7.75827 20.6593 7.95048L12.7485 12.5186V9.3559C12.7464 9.32336 12.7617 9.29183 12.7871 9.27149L19.3373 5.49251C22.2549 3.80946 25.9851 4.81115 27.6671 7.7298C28.378 8.96234 28.6352 10.4054 28.3942 11.8078H28.3963ZM11.2597 17.4447L8.51999 15.8634C8.4905 15.8491 8.47118 15.8206 8.46711 15.7881V8.22302C8.46915 4.85488 11.2017 2.12539 14.5698 2.12743C15.9946 2.12743 17.3736 2.62776 18.4688 3.53895C18.419 3.56539 18.3336 3.61319 18.2766 3.64776L11.7966 7.39014C11.4651 7.57827 11.2617 7.93014 11.2637 8.31149L11.2597 17.4427V17.4447ZM12.7475 14.2373L16.2712 12.2023L19.7949 14.2362V18.3051L16.2712 20.339L12.7475 18.3051V14.2373Z" fill="#5A5A5A"/>
</g>
<defs>
<clipPath id="clip0_296_2223">
<rect width="120" height="32.5424" fill="white"/>
</clipPath>
</defs>
</svg>
