<svg width="91" height="26" viewBox="0 0 91 26" fill="none" xmlns="http://www.w3.org/2000/svg">
<path d="M14.545 15.5128C15.9796 15.5128 17.1426 14.3498 17.1426 12.9152C17.1426 11.4806 15.9796 10.3176 14.545 10.3176C13.1104 10.3176 11.9474 11.4806 11.9474 12.9152C11.9474 14.3498 13.1104 15.5128 14.545 15.5128Z" fill="#5A5A5A"/>
<path fill-rule="evenodd" clip-rule="evenodd" d="M14.5452 7.63385C18.0328 7.63385 21.2727 8.13429 23.7156 8.97528C26.6589 9.9886 28.4686 11.5245 28.4686 12.9153C28.4686 14.3646 26.5507 15.9963 23.3899 17.0435C21.0003 17.8352 17.8558 18.2485 14.5452 18.2485C11.1509 18.2485 7.93665 17.8606 5.52013 17.0348C2.4628 15.9898 0.621338 14.337 0.621338 12.9153C0.621338 11.5358 2.3492 10.0117 5.25114 8.99998C7.70313 8.14511 11.023 7.63385 14.5447 7.63385H14.5452Z" stroke="#5A5A5A" stroke-width="1.24269"/>
<path fill-rule="evenodd" clip-rule="evenodd" d="M9.94741 10.2897C11.6898 7.26856 13.7418 4.71192 15.6907 3.01586C18.0389 0.972352 20.2735 0.172058 21.4782 0.866775C22.7338 1.5908 23.1891 4.06743 22.5173 7.32857C22.0099 9.79417 20.7965 12.7245 19.1426 15.5925C17.4468 18.5329 15.5051 21.1235 13.5827 22.8038C11.1501 24.9303 8.79834 25.6998 7.56678 24.9896C6.37172 24.3009 5.91472 22.0423 6.48802 19.0229C6.97241 16.4718 8.18802 13.3405 9.94684 10.2897L9.94741 10.2897Z" stroke="#5A5A5A" stroke-width="1.24269"/>
<path fill-rule="evenodd" clip-rule="evenodd" d="M9.95169 15.6001C8.20441 12.5824 7.01479 9.52714 6.51823 6.99164C5.9205 3.93669 6.34312 1.60094 7.54677 0.904207C8.80106 0.178061 11.1741 1.0204 13.6639 3.23115C15.5464 4.90257 17.4794 7.4168 19.1381 10.282C20.8388 13.2196 22.1133 16.1957 22.6092 18.7003C23.2366 21.8699 22.7288 24.2916 21.4984 25.0039C20.3045 25.695 18.1198 24.9633 15.7903 22.9586C13.822 21.2649 11.7162 18.6479 9.95169 15.6001V15.6001Z" stroke="#5A5A5A" stroke-width="1.24269"/>
<path fill-rule="evenodd" clip-rule="evenodd" d="M49.2502 20.1699L45.2777 14.1682C47.2854 13.991 49.0945 12.5363 49.0945 9.87865C49.0945 7.17435 47.1754 5.4436 44.4832 5.4436H38.571V20.1587H40.4025V14.3118H43.3371L47.0877 20.1587L49.2502 20.1699ZM44.2641 12.7126H40.4034V7.0867H44.2641C46.0079 7.0867 47.1987 8.23369 47.1987 9.88891C47.1987 11.5441 46.0069 12.7144 44.2641 12.7144V12.7126ZM56.0679 20.4338C57.8117 20.4338 59.2449 19.8603 60.3043 18.8019L59.5098 17.7202C58.6705 18.5809 57.4359 19.0658 56.2227 19.0658C53.9287 19.0658 52.5159 17.3891 52.3835 15.3824H61.0093V14.9627C61.0093 11.7642 59.1116 9.24827 55.8897 9.24827C52.8451 9.24827 50.6397 11.7418 50.6397 14.8303C50.6397 18.1622 52.9122 20.4254 56.0669 20.4254L56.0679 20.4338ZM59.3783 14.1673H52.3844C52.473 12.5354 53.5967 10.6144 55.8702 10.6144C58.2975 10.6144 59.3559 12.5783 59.3783 14.1673ZM71.999 20.169V12.8441C71.999 10.2629 70.1246 9.24734 67.8735 9.24734C66.1297 9.24734 64.7626 9.82084 63.6156 11.0126L64.3878 12.1596C65.3361 11.145 66.374 10.6815 67.6534 10.6815C69.1977 10.6815 70.3456 11.4975 70.3456 12.9317V14.8508C69.4849 13.8577 68.2717 13.3942 66.8151 13.3942C65.006 13.3942 63.085 14.5198 63.085 16.9024C63.085 19.2187 65.0042 20.4329 66.8151 20.4329C68.2493 20.4329 69.4635 19.9256 70.3456 18.9548V20.1671L71.999 20.169ZM67.411 19.2421C65.8667 19.2421 64.785 18.2722 64.785 16.9257C64.785 15.5577 65.8667 14.5869 67.411 14.5869C68.5804 14.5869 69.705 15.028 70.3456 15.9111V17.9188C69.7059 18.801 68.5804 19.2421 67.411 19.2421ZM80 20.4338C81.9415 20.4338 83.0885 19.6393 83.9053 18.5809L82.8022 17.5663C82.0963 18.5147 81.1917 18.9558 80.0979 18.9558C77.8253 18.9558 76.4144 17.1905 76.4144 14.8303C76.4144 12.4701 77.8263 10.7272 80.0979 10.7272C81.201 10.7272 82.1056 11.1469 82.8022 12.1167L83.9053 11.1021C83.0894 10.0428 81.9415 9.2492 80 9.2492C76.8229 9.2492 74.6827 11.6765 74.6827 14.8312C74.6827 18.0083 76.8229 20.4263 80 20.4263V20.4338ZM88.9148 20.4338C89.8846 20.4338 90.4814 20.1466 90.9011 19.7503L90.4162 18.5147C90.1952 18.7571 89.7634 18.9558 89.2906 18.9558C88.5633 18.9558 88.2089 18.3823 88.2089 17.5878V10.9688H90.3723V9.51311H88.2089V6.60086H86.5537V9.51311H84.7884V10.9697H86.5537V17.9421C86.5537 19.5311 87.3482 20.4357 88.9148 20.4357V20.4338Z" fill="#5A5A5A"/>
</svg>
