<svg xmlns="http://www.w3.org/2000/svg" width="121" height="24" fill="none" viewBox="0 0 121 24"><g clip-path="url(#a)"><path fill="#5a5a5a" fill-rule="evenodd" d="M29.244 6.178a5.16 5.16 0 0 0-3.307 1.19v-1.07h-3.016v11.749h3.138v-7.512a3.73 3.73 0 0 1 2.848-1.455c.429-.021.855.042 1.258.19V6.258a5.5 5.5 0 0 0-.92-.08M1.89 14.463a4.92 4.92 0 0 0 3.206 1.163c.844 0 1.496-.413 1.496-.994 0-1.77-5.672-1.139-5.672-4.917 0-2.252 2.173-3.659 4.488-3.659a7.24 7.24 0 0 1 3.956 1.19L7.897 9.52a3.93 3.93 0 0 0-2.245-.799c-.87 0-1.594.34-1.594.945 0 1.525 5.672.92 5.672 4.99 0 2.252-2.198 3.632-4.657 3.632a8.06 8.06 0 0 1-4.706-1.57zm19.692-2.4c0-3.27-2.29-6.007-5.526-6.007-3.476 0-5.696 2.857-5.696 6.13a5.86 5.86 0 0 0 6.132 6.102 6.33 6.33 0 0 0 4.802-2.107l-1.786-1.793a4.14 4.14 0 0 1-2.943 1.357 3.076 3.076 0 0 1-3.165-2.782h8.11q.073-.444.072-.9m-8.039-1.404a2.54 2.54 0 0 1 2.51-2.06 2.34 2.34 0 0 1 2.319 2.06zm24.099 2.811 3.21-7.172h3.259l-5.382 11.751h-2.172L31.175 6.298h3.258zM46.745.78a2.015 2.015 0 1 1-.035-.002z" clip-rule="evenodd"/><path fill="#5a5a5a" d="M48.315 6.298h-3.138v11.749h3.138z"/><path fill="#5a5a5a" fill-rule="evenodd" d="M61.286 15.65a6.2 6.2 0 0 1-5.314 2.64 6.117 6.117 0 0 1-6.272-5.962 6.117 6.117 0 0 1 6.296-6.272 6.24 6.24 0 0 1 4.924 2.351l-2.22 1.962a3.4 3.4 0 0 0-2.702-1.406 3.144 3.144 0 0 0-3.157 3.13v.092a3.1 3.1 0 0 0 2.995 3.2l.24-.003a3.43 3.43 0 0 0 2.798-1.55zm11.397.534a6.33 6.33 0 0 1-4.802 2.107 5.86 5.86 0 0 1-6.13-6.103c0-3.272 2.22-6.13 5.696-6.13 3.235 0 5.527 2.738 5.527 6.008q.004.45-.073.897h-8.11a3.08 3.08 0 0 0 3.163 2.787 4.14 4.14 0 0 0 2.946-1.357zm-2.92-5.525a2.337 2.337 0 0 0-2.316-2.06 2.54 2.54 0 0 0-2.51 2.06zm4.455 7.391V6.3h3.017v.945a5.15 5.15 0 0 1 3.307-1.186 5.27 5.27 0 0 1 4.055 1.889 5.94 5.94 0 0 1 1.207 4.122v5.98h-3.139v-6.23a2.85 2.85 0 0 0-.7-2.206 2.46 2.46 0 0 0-1.763-.654 3.73 3.73 0 0 0-2.848 1.453v7.634h-3.136z" clip-rule="evenodd"/><path fill="#62d84e" fill-rule="evenodd" d="M93.882 6.056A6.869 6.869 0 0 0 89.15 17.92a1.356 1.356 0 0 0 1.765.092 4.9 4.9 0 0 1 5.857 0c.535.41 1.292.365 1.774-.103a6.87 6.87 0 0 0 .256-9.713 6.88 6.88 0 0 0-4.92-2.14m-.04 10.299a3.33 3.33 0 0 1-3.419-3.242v-.178a3.419 3.419 0 1 1 6.84 0 3.33 3.33 0 0 1-3.242 3.42z" clip-rule="evenodd"/><path fill="#5a5a5a" fill-rule="evenodd" d="M106.893 18.05h-2.337l-4.66-11.752h3.132l2.554 6.714 2.506-6.714h2.618l2.484 6.714 2.576-6.714h3.134l-4.66 11.751h-2.336l-2.506-6.691z" clip-rule="evenodd"/><path fill="#5a5a5a" d="M118.935 16.72h-.265v.497h-.225v-1.361h.551c.241 0 .436.194.438.433v.005a.43.43 0 0 1-.27.396l.31.53h-.246zm-.265-.201h.323a.23.23 0 0 0 0-.46h-.321z"/><path fill="#5a5a5a" d="M118.904 15.298a1.263 1.263 0 1 1 0 2.526 1.262 1.262 0 1 1 0-2.526m0-.2a1.466 1.466 0 0 0 0 2.93 1.465 1.465 0 0 0 0-2.93"/></g><defs><clipPath id="a"><path fill="#fff" d="M0 0h121v24H0z"/></clipPath></defs></svg>