<svg width="14" height="15" viewBox="0 0 14 15" fill="none" xmlns="http://www.w3.org/2000/svg">
<path d="M13.7028 4.77375L11.949 6.25375L12.484 8.46562C12.5228 8.62575 12.5133 8.79379 12.4567 8.94852C12.4001 9.10325 12.2989 9.23774 12.1659 9.335C12.0313 9.43389 11.8705 9.49075 11.7037 9.49843C11.5369 9.5061 11.3715 9.46424 11.2284 9.37812L9.25028 8.1875L7.27215 9.37875C7.12915 9.46511 6.96374 9.50711 6.79686 9.49943C6.62998 9.49175 6.46913 9.43475 6.33465 9.33562C6.20142 9.23855 6.1 9.10411 6.04326 8.94934C5.98651 8.79457 5.97699 8.62644 6.0159 8.46625L6.5509 6.25437L4.79778 4.77375C4.67082 4.66643 4.5787 4.52374 4.53316 4.36386C4.48762 4.20398 4.49073 4.03416 4.54209 3.87605C4.59345 3.71795 4.69074 3.57872 4.82154 3.47612C4.95234 3.37353 5.11074 3.31221 5.27653 3.3L7.58528 3.1175L8.4734 1.01375C8.53828 0.861403 8.64651 0.731493 8.78464 0.64018C8.92277 0.548868 9.0847 0.500183 9.25028 0.500183C9.41586 0.500183 9.57779 0.548868 9.71592 0.64018C9.85405 0.731493 9.96228 0.861403 10.0272 1.01375L10.9153 3.1175L13.224 3.3C13.3898 3.31221 13.5482 3.37353 13.679 3.47612C13.8098 3.57872 13.9071 3.71795 13.9585 3.87605C14.0098 4.03416 14.0129 4.20398 13.9674 4.36386C13.9219 4.52374 13.8297 4.66643 13.7028 4.77375ZM4.50715 6.49312C4.46072 6.44664 4.40557 6.40976 4.34487 6.38459C4.28417 6.35943 4.21911 6.34648 4.1534 6.34648C4.0877 6.34648 4.02263 6.35943 3.96193 6.38459C3.90123 6.40976 3.84609 6.44664 3.79965 6.49312L0.146528 10.1462C0.0527077 10.2401 0 10.3673 0 10.5C0 10.6327 0.0527077 10.7599 0.146528 10.8537C0.240348 10.9476 0.367596 11.0003 0.500278 11.0003C0.63296 11.0003 0.760208 10.9476 0.854028 10.8537L4.50715 7.20062C4.55364 7.15419 4.59052 7.09904 4.61568 7.03834C4.64085 6.97765 4.6538 6.91258 4.6538 6.84687C4.6538 6.78117 4.64085 6.7161 4.61568 6.6554C4.59052 6.59471 4.55364 6.53956 4.50715 6.49312ZM4.4759 10.3175L1.14653 13.6462C1.10007 13.6927 1.06322 13.7479 1.03808 13.8086C1.01294 13.8692 1 13.9343 1 14C1 14.0657 1.01294 14.1308 1.03808 14.1914C1.06322 14.2521 1.10007 14.3073 1.14653 14.3537C1.24035 14.4476 1.3676 14.5003 1.50028 14.5003C1.56598 14.5003 1.63103 14.4873 1.69173 14.4622C1.75242 14.4371 1.80757 14.4002 1.85403 14.3537L5.18278 11.0244C5.27259 10.9298 5.32192 10.804 5.32025 10.6736C5.31858 10.5432 5.26604 10.4186 5.17384 10.3264C5.08164 10.2342 4.95707 10.1817 4.82669 10.18C4.69631 10.1784 4.57043 10.2277 4.4759 10.3175ZM9.0384 10.255L5.64528 13.6475C5.59882 13.694 5.56197 13.7491 5.53683 13.8098C5.51169 13.8705 5.49875 13.9356 5.49875 14.0012C5.49875 14.0669 5.51169 14.132 5.53683 14.1927C5.56197 14.2534 5.59882 14.3085 5.64528 14.355C5.7391 14.4488 5.86635 14.5015 5.99903 14.5015C6.06473 14.5015 6.12978 14.4886 6.19048 14.4634C6.25117 14.4383 6.30632 14.4015 6.35278 14.355L9.74528 10.9625C9.8391 10.8688 9.89184 10.7416 9.8919 10.609C9.89196 10.4763 9.83933 10.3491 9.74559 10.2553C9.65185 10.1615 9.52469 10.1088 9.39206 10.1087C9.25944 10.1086 9.13222 10.1613 9.0384 10.255Z" fill="#0C7CF3"/>
</svg>
