<svg width="13" height="13" viewBox="0 0 13 13" fill="none" xmlns="http://www.w3.org/2000/svg">
<path d="M6.37719 0.604907C6.39432 0.465031 6.59862 0.465031 6.61591 0.604907L6.83979 2.41534C7.08222 4.37582 8.63914 5.92068 10.6139 6.16025L12.4376 6.38149C12.5785 6.39858 12.5786 6.60141 12.4377 6.61851L10.6143 6.83974C8.6398 7.07932 7.08467 8.62418 6.84449 10.5847L6.62269 12.3951C6.60556 12.535 6.40126 12.535 6.38397 12.3951L6.16009 10.5847C5.91766 8.62418 4.36074 7.07932 2.38595 6.83974L0.562309 6.61851C0.421412 6.60141 0.421296 6.39858 0.562173 6.38149L2.38556 6.16025C4.36008 5.92068 5.91521 4.37582 6.15539 2.41533L6.37719 0.604907Z" fill="white"/>
</svg>
