<svg width="150" height="150" viewBox="0 0 150 150" fill="none" xmlns="http://www.w3.org/2000/svg">
<circle cx="75" cy="75" r="75" fill="white"/>
<path fill-rule="evenodd" clip-rule="evenodd" d="M49.3977 69.7297V91.0755H52.4038H55.4099L55.4573 82.6306L55.5048 74.1857L55.901 73.0049C56.8609 70.1438 59.0344 68.0072 61.9578 67.051L62.9627 66.7223L64.3981 66.723C66.0067 66.7237 66.9984 66.9228 68.294 67.5047C70.6832 68.5779 72.5493 70.7415 73.3123 73.3233L73.5671 74.1857L73.6194 82.6306L73.6715 91.0755H76.6786H79.6856L79.6837 82.4869L79.6818 73.8982L79.4146 72.6014C78.0878 66.1643 72.6749 61.3175 66.01 60.5988L64.5201 60.4383L63.0453 60.6008C60.527 60.8782 58.2825 61.6683 56.3955 62.9414L55.4266 63.595V55.9894V48.3838H52.4121H49.3977V69.7297ZM116.859 51.3962C116.58 51.544 116.138 51.9784 115.877 52.3615C115.616 52.7445 115.016 53.3485 114.543 53.7036C114.071 54.0586 113.253 54.806 112.726 55.3644C112.199 55.9227 111.364 56.7248 110.871 57.1468C110.05 57.8487 109.754 58.3021 110.116 58.3021C110.195 58.3021 109.565 58.9054 108.717 59.6428L107.174 60.9835L107.126 61.3318C107.1 61.5234 107.019 61.7414 106.947 61.8166C106.748 62.0236 106.79 62.3269 107.018 62.3269C107.129 62.3269 107.565 62.0488 107.986 61.7087C109.377 60.5876 111.043 59.4957 111.494 59.4093C111.738 59.3626 112.304 59.3622 112.75 59.4083L113.562 59.4923L113.564 59.8674C113.565 60.0737 113.627 60.3388 113.701 60.4564L113.836 60.6703L112.371 60.9792C110.844 61.3014 108.781 62.1139 107.47 62.9095C105.191 64.2924 103.125 66.5939 101.863 69.1547C100.977 70.9544 100.559 72.4509 100.35 74.5774L100.205 76.0544L100.244 89.71L100.284 103.366L103.334 103.404L106.385 103.443V97.3313V91.2193L111.373 91.2184L116.361 91.2176L117.725 91.0106C120.812 90.542 123.405 89.2772 125.778 87.0816C130.789 82.4445 132.094 74.8961 128.932 68.8385C127.06 65.2519 123.576 62.3886 119.726 61.2711C119.058 61.0773 118.124 60.8758 117.652 60.8233C117.179 60.7707 116.625 60.6967 116.421 60.6586L116.049 60.5895L115.81 60.0874L115.571 59.5851L115.845 59.0488L116.118 58.5125L116.844 58.0412C117.746 57.4562 118.524 56.5619 118.641 55.9779C118.69 55.7343 118.73 55.1269 118.73 54.628C118.73 53.4966 118.905 53.0172 119.36 52.9028C119.555 52.8539 119.749 52.7213 119.793 52.608C119.863 52.4228 119.737 52.2637 119.017 51.6312C118.359 51.0537 117.651 50.9766 116.859 51.3962ZM114.427 59.5506L114.114 60.0805L114.253 60.3859L114.393 60.6915L114.91 60.631C115.508 60.5612 115.499 60.5807 115.2 60.0031C115.075 59.7606 115.005 59.4404 115.043 59.2915L115.114 59.0208H114.926C114.823 59.0208 114.598 59.2593 114.427 59.5506ZM32.9619 60.6047C29.3536 60.9905 25.9826 62.693 23.4419 65.4128C21.3403 67.6625 20.1481 70.1447 19.6039 73.403L19.3559 74.8885L19.4412 76.5494L19.5263 78.2105L19.9006 79.648C21.458 85.6275 26.4434 90.0748 32.5412 90.924C36.2565 91.4415 40.244 90.4518 43.3546 88.2402C44.2397 87.6109 47.3881 84.6698 47.3881 84.4723C47.3881 84.3429 43.3621 80.1511 43.2378 80.1511C43.1804 80.1511 42.3475 80.8909 41.3872 81.7952L39.6411 83.4392L38.5983 83.9532C34.8162 85.8168 30.3006 84.8497 27.5973 81.597C26.7793 80.6125 25.9803 79.0342 25.7013 77.8512C25.4581 76.82 25.4552 74.6823 25.6957 73.6826C25.8003 73.2478 26.1325 72.3745 26.4341 71.7421L26.9823 70.5921L27.9334 69.6142C29.1403 68.3736 30.2472 67.658 31.763 67.1386L32.9619 66.7276L34.5409 66.7305L36.1199 66.7332L37.2682 67.1187C38.9648 67.6884 39.7662 68.2125 41.4894 69.8799C42.3439 70.7064 43.101 71.3827 43.1719 71.3827C43.2428 71.3827 44.2317 70.4488 45.3694 69.3075L47.4382 67.2321L47.2336 66.9727C47.1212 66.8299 46.3833 66.0754 45.5938 65.2959C42.7311 62.4695 39.8102 61.0328 36.0481 60.6007C34.7065 60.4466 34.4369 60.447 32.9619 60.6047ZM95.9715 60.6023C92.5187 60.9741 88.8748 62.8116 86.4745 65.3911C84.4154 67.6041 83.1484 70.1467 82.6274 73.1117L82.4133 74.3295L82.4131 82.7025L82.4129 91.0755H85.4991H88.5853V83.0199V74.9642L88.813 73.8563C88.9456 73.2111 89.2874 72.2679 89.6309 71.5983L90.221 70.4484L91.3052 69.364L92.3892 68.2796L93.394 67.7607C93.9467 67.4753 94.7541 67.1315 95.1884 66.9967L95.9778 66.7513L98.3851 66.6769L100.792 66.6023L100.754 63.5662L100.715 60.5301L98.8487 60.5117C97.8224 60.5016 96.5276 60.5423 95.9715 60.6023ZM113.306 67.0732C110.265 67.8708 107.795 70.1957 106.796 73.1995L106.468 74.1857L106.417 79.612L106.366 85.0383L111.364 85.0359L116.361 85.0333L117.366 84.8229C118.7 84.5433 120.477 83.6463 121.485 82.7435C122.515 81.8206 123.538 80.2878 124.015 78.9545L124.384 77.923L124.442 76.2579L124.5 74.5929L124.267 73.681C123.615 71.1323 121.784 68.8862 119.376 67.6805C118.459 67.2215 116.478 66.7822 115.365 66.7908C114.808 66.7952 113.881 66.9222 113.306 67.0732Z" fill="#64CCCC"/>
</svg>
