<svg width="41" height="47" viewBox="0 0 41 47" fill="none" xmlns="http://www.w3.org/2000/svg">
<path d="M11.9831 24.0908C9.98033 24.0908 8.35254 25.7186 8.35254 27.7213C8.35254 29.7241 9.98033 31.3519 11.9831 31.3519C13.9858 31.3519 15.6136 29.7241 15.6136 27.7213C15.6136 25.7186 13.9858 24.0908 11.9831 24.0908ZM11.9831 30.9129C10.2272 30.9129 8.79149 29.4863 8.79149 27.7213C8.79149 25.9655 10.2181 24.5298 11.9831 24.5298C13.748 24.5298 15.1746 25.9564 15.1746 27.7213C15.1655 29.4863 13.7389 30.9129 11.9831 30.9129Z" fill="white"/>
<path d="M10.335 12.7797C10.335 12.8437 10.3807 12.8894 10.4447 12.8894H13.5174C13.5814 12.8894 13.6271 12.8437 13.6271 12.7797C13.6271 12.7156 13.5814 12.6699 13.5174 12.6699H10.4447C10.3807 12.6699 10.335 12.7156 10.335 12.7797Z" fill="white"/>
<path d="M10.9486 16.2373C10.8846 16.2373 10.8389 16.283 10.8389 16.347V16.7951C10.8389 16.8592 10.8846 16.9049 10.9486 16.9049C11.0126 16.9049 11.0583 16.8592 11.0583 16.7951V16.347C11.0583 16.2922 11.0035 16.2373 10.9486 16.2373Z" fill="white"/>
<path d="M11.9818 16.2373C11.9178 16.2373 11.8721 16.283 11.8721 16.347V16.7951C11.8721 16.8592 11.9178 16.9049 11.9818 16.9049C12.0458 16.9049 12.0915 16.8592 12.0915 16.7951V16.347C12.0915 16.2922 12.0458 16.2373 11.9818 16.2373Z" fill="white"/>
<path d="M13.015 16.2373C12.951 16.2373 12.9053 16.283 12.9053 16.347V16.7951C12.9053 16.8592 12.951 16.9049 13.015 16.9049C13.079 16.9049 13.1248 16.8592 13.1248 16.7951V16.347C13.1248 16.2922 13.079 16.2373 13.015 16.2373Z" fill="white"/>
<path d="M10.4271 17.5176C10.3631 17.5176 10.3174 17.5633 10.3174 17.6273V18.0754C10.3174 18.1394 10.3631 18.1852 10.4271 18.1852C10.4911 18.1852 10.5369 18.1394 10.5369 18.0754V17.6273C10.5369 17.5633 10.4911 17.5176 10.4271 17.5176Z" fill="white"/>
<path d="M11.4623 17.5176C11.3983 17.5176 11.3525 17.5633 11.3525 17.6273V18.0754C11.3525 18.1394 11.3983 18.1852 11.4623 18.1852C11.5263 18.1852 11.572 18.1394 11.572 18.0754V17.6273C11.572 17.5633 11.5263 17.5176 11.4623 17.5176Z" fill="white"/>
<path d="M12.4955 17.5176C12.4315 17.5176 12.3857 17.5633 12.3857 17.6273V18.0754C12.3857 18.1394 12.4315 18.1852 12.4955 18.1852C12.5595 18.1852 12.6052 18.1394 12.6052 18.0754V17.6273C12.6144 17.5633 12.5595 17.5176 12.4955 17.5176Z" fill="white"/>
<path d="M13.5287 17.5176C13.4647 17.5176 13.4189 17.5633 13.4189 17.6273V18.0754C13.4189 18.1394 13.4647 18.1852 13.5287 18.1852C13.5927 18.1852 13.6384 18.1394 13.6384 18.0754V17.6273C13.6476 17.5633 13.5927 17.5176 13.5287 17.5176Z" fill="white"/>
<path d="M9.724 34.5632C9.78801 34.5632 9.83374 34.5174 9.83374 34.4534V33.1C9.83374 33.036 9.78801 32.9902 9.724 32.9902C9.65998 32.9902 9.61426 33.036 9.61426 33.1V34.4534C9.61426 34.5083 9.65998 34.5632 9.724 34.5632Z" fill="white"/>
<path d="M11.2309 34.5632C11.2949 34.5632 11.3406 34.5174 11.3406 34.4534V33.1C11.3406 33.036 11.2949 32.9902 11.2309 32.9902C11.1668 32.9902 11.1211 33.036 11.1211 33.1V34.4534C11.112 34.5083 11.1668 34.5632 11.2309 34.5632Z" fill="white"/>
<path d="M12.7299 34.5632C12.7939 34.5632 12.8396 34.5174 12.8396 34.4534V33.1C12.8396 33.036 12.7939 32.9902 12.7299 32.9902C12.6658 32.9902 12.6201 33.036 12.6201 33.1V34.4534C12.6201 34.5083 12.6658 34.5632 12.7299 34.5632Z" fill="white"/>
<path d="M14.2406 34.5632C14.3046 34.5632 14.3504 34.5174 14.3504 34.4534V33.1C14.3504 33.036 14.3046 32.9902 14.2406 32.9902C14.1766 32.9902 14.1309 33.036 14.1309 33.1V34.4534C14.1217 34.5083 14.1766 34.5632 14.2406 34.5632Z" fill="white"/>
<path d="M13.2987 27.6129H12.0915V25.8754C12.0915 25.8114 12.0458 25.7656 11.9818 25.7656C11.9178 25.7656 11.8721 25.8114 11.8721 25.8754V27.7318C11.8721 27.7958 11.9178 27.8415 11.9818 27.8415H13.2987C13.3627 27.8415 13.4084 27.7958 13.4084 27.7318C13.4084 27.6678 13.3627 27.6129 13.2987 27.6129Z" fill="white"/>
<path d="M11.9818 30.1729C11.9178 30.1729 11.8721 30.2186 11.8721 30.2826V30.5844C11.8721 30.6484 11.9178 30.6941 11.9818 30.6941C12.0458 30.6941 12.0915 30.6484 12.0915 30.5844V30.2826C12.0915 30.2186 12.0458 30.1729 11.9818 30.1729Z" fill="white"/>
<path d="M11.9818 25.281C12.0458 25.281 12.0915 25.2353 12.0915 25.1713V24.8695C12.0915 24.8055 12.0458 24.7598 11.9818 24.7598C11.9178 24.7598 11.8721 24.8055 11.8721 24.8695V25.1713C11.8721 25.2353 11.9178 25.281 11.9818 25.281Z" fill="white"/>
<path d="M9.42226 27.6123H9.12048C9.05647 27.6123 9.01074 27.658 9.01074 27.722C9.01074 27.7861 9.05647 27.8318 9.12048 27.8318H9.42226C9.48628 27.8318 9.532 27.7861 9.532 27.722C9.532 27.658 9.48628 27.6123 9.42226 27.6123Z" fill="white"/>
<path d="M14.8324 27.6123H14.5306C14.4666 27.6123 14.4209 27.658 14.4209 27.722C14.4209 27.7861 14.4666 27.8318 14.5306 27.8318H14.8324C14.8964 27.8318 14.9422 27.7861 14.9422 27.722C14.9422 27.658 14.8964 27.6123 14.8324 27.6123Z" fill="white"/>
<path d="M10.0874 29.4591L9.87707 29.6694C9.83134 29.7152 9.83134 29.7883 9.87707 29.8249C9.89536 29.8432 9.93194 29.8615 9.95937 29.8615C9.9868 29.8615 10.0142 29.8523 10.0417 29.8249L10.252 29.6146C10.2977 29.5688 10.2977 29.4957 10.252 29.4591C10.2063 29.4134 10.1331 29.4134 10.0874 29.4591Z" fill="white"/>
<path d="M13.9214 25.629L13.7111 25.8394C13.6653 25.8851 13.6653 25.9582 13.7111 25.9948C13.7293 26.0131 13.7659 26.0314 13.7934 26.0314C13.8208 26.0314 13.8482 26.0222 13.8757 25.9948L14.086 25.7845C14.1317 25.7388 14.1317 25.6656 14.086 25.629C14.0403 25.5833 13.9671 25.5833 13.9214 25.629Z" fill="white"/>
<path d="M10.088 26.0026C10.1063 26.0209 10.1429 26.0392 10.1703 26.0392C10.1978 26.0392 10.2252 26.0301 10.2526 26.0026C10.2984 25.9569 10.2984 25.8837 10.2526 25.8472L10.0423 25.6368C9.99657 25.5911 9.92341 25.5911 9.88683 25.6368C9.84111 25.6826 9.84111 25.7557 9.88683 25.7923L10.088 26.0026Z" fill="white"/>
<path d="M13.8665 29.4591C13.8208 29.4134 13.7476 29.4134 13.7111 29.4591C13.6653 29.5048 13.6653 29.578 13.7111 29.6146L13.9214 29.8249C13.9397 29.8432 13.9763 29.8615 14.0037 29.8615C14.0311 29.8615 14.0586 29.8523 14.086 29.8249C14.1317 29.7792 14.1317 29.706 14.086 29.6694L13.8665 29.4591Z" fill="white"/>
<path d="M24.6475 36.8392C24.6475 36.9032 24.6932 36.949 24.7572 36.949H28.7718C28.8358 36.949 28.8815 36.9032 28.8815 36.8392C28.8815 36.7752 28.8358 36.7295 28.7718 36.7295H24.7572C24.6932 36.7295 24.6475 36.7752 24.6475 36.8392Z" fill="white"/>
<path d="M31.0775 36.949H32.8608C32.9248 36.949 32.9705 36.9032 32.9705 36.8392C32.9705 36.7752 32.9248 36.7295 32.8608 36.7295H31.0775C31.0135 36.7295 30.9678 36.7752 30.9678 36.8392C30.9678 36.9032 31.0226 36.949 31.0775 36.949Z" fill="white"/>
<path d="M29.6849 30.9698C29.6391 30.9241 29.566 30.9241 29.5294 30.9698C29.4837 31.0156 29.4837 31.0887 29.5294 31.1253L31.6785 33.2743C31.6967 33.2926 31.7333 33.3109 31.7608 33.3109C31.7882 33.3109 31.8156 33.3018 31.8431 33.2743C31.8888 33.2286 31.8888 33.1555 31.8431 33.1189L29.6849 30.9698Z" fill="white"/>
<path d="M31.5157 40.5704L28.7814 43.3047C28.7356 43.3505 28.7356 43.4236 28.7814 43.4602C28.7997 43.4785 28.8362 43.4968 28.8637 43.4968C28.8911 43.4968 28.9185 43.4876 28.946 43.4602L31.6803 40.7259C31.726 40.6802 31.726 40.607 31.6803 40.5704C31.6254 40.5247 31.5614 40.5247 31.5157 40.5704Z" fill="white"/>
<path d="M32.2647 39.9771C32.283 39.9954 32.3195 40.0137 32.347 40.0137C32.3744 40.0137 32.4018 40.0046 32.4293 39.9771L33.6913 38.7151C33.737 38.6694 33.737 38.5963 33.6913 38.5597C33.6456 38.514 33.5724 38.514 33.5358 38.5597L32.2738 39.8217C32.2189 39.8674 32.2189 39.9406 32.2647 39.9771Z" fill="white"/>
<path d="M28.6717 39.6119C28.69 39.6576 28.7266 39.685 28.7723 39.685C28.7906 39.685 28.7998 39.685 28.818 39.6759L30.4733 38.9992C30.5281 38.9717 30.5556 38.9077 30.5373 38.8529C30.5098 38.798 30.4458 38.7706 30.391 38.7888L28.7357 39.4656C28.6717 39.4839 28.6443 39.5479 28.6717 39.6119Z" fill="white"/>
<path d="M31.2957 38.523C31.314 38.5687 31.3506 38.5962 31.3963 38.5962C31.4146 38.5962 31.4237 38.5962 31.442 38.587L33.0972 37.9103C33.1521 37.8829 33.1795 37.8189 33.1612 37.764C33.1338 37.7091 33.0698 37.6817 33.0149 37.7L31.3597 38.3767C31.3048 38.4041 31.2774 38.4681 31.2957 38.523Z" fill="white"/>
<path d="M38.9778 28.2635C38.923 28.2361 38.859 28.2635 38.8315 28.3275L36.5819 33.7139C36.5544 33.7687 36.5819 33.8328 36.6459 33.8602C36.6642 33.8693 36.6733 33.8693 36.6916 33.8693C36.7373 33.8693 36.7739 33.8419 36.7922 33.7962L39.0419 28.4098C39.0693 28.3458 39.0419 28.2818 38.9778 28.2635Z" fill="white"/>
<path d="M34.459 39.0897C34.4041 39.0623 34.3401 39.0897 34.3127 39.1537L33.6268 40.7998C33.5994 40.8547 33.6268 40.9187 33.6908 40.9461C33.7091 40.9552 33.7183 40.9552 33.7365 40.9552C33.7823 40.9552 33.8188 40.9278 33.8371 40.8821L34.523 39.236C34.5413 39.172 34.5139 39.108 34.459 39.0897Z" fill="white"/>
<path d="M20.8247 6.82648C18.008 6.82648 15.3377 7.41175 12.9052 8.46341C12.7223 7.43004 12.5851 6.16805 12.5851 4.68657C12.5851 4.55855 12.4845 4.4671 12.3657 4.4671H12.2102V0.763422C12.2102 0.635394 12.1096 0.543945 11.9907 0.543945C11.8627 0.543945 11.7712 0.644539 11.7712 0.763422V4.44881H11.6158C11.4877 4.44881 11.3963 4.5494 11.3963 4.66828C11.3963 6.6893 11.1402 8.2988 10.8567 9.47849C10.5367 9.66139 10.2258 9.85343 9.91483 10.0546C9.90568 9.93573 9.81423 9.85343 9.69535 9.85343C9.56732 9.85343 9.47587 9.95402 9.47587 10.0729V10.3564C4.21757 13.9778 0.760805 20.05 0.760805 26.8995C0.73337 37.9922 9.75022 46.9999 20.8247 46.9999C31.8991 46.9999 40.916 37.9922 40.916 26.9086C40.916 15.8342 31.8991 6.82648 20.8247 6.82648ZM35.4016 24.7962C28.7533 24.7962 23.3487 30.2008 23.3487 36.8491C23.3487 40.0773 24.6289 43.0128 26.7048 45.1801C26.275 45.3173 25.8452 45.4453 25.4063 45.5459C23.3669 43.2048 22.1598 40.1504 22.1598 36.84C22.1598 29.5332 28.104 23.589 35.4107 23.589C36.9654 23.589 38.4651 23.8634 39.8552 24.3572C39.91 24.7962 39.9558 25.2351 39.9832 25.6832C38.5657 25.1162 37.0202 24.7962 35.4016 24.7962ZM22.0318 43.9272C21.2819 44.2382 20.4314 43.8724 20.1205 43.1316C19.9742 42.7658 19.9742 42.3726 20.1205 42.0068C20.2668 41.6502 20.5503 41.3667 20.9161 41.2204C21.099 41.1472 21.2819 41.1106 21.474 41.1106C21.666 41.1106 21.858 41.1472 22.0409 41.2204C22.233 41.3027 22.4067 41.4215 22.5439 41.5679C22.6628 41.8971 22.8 42.2172 22.9371 42.5281C22.9554 43.1225 22.6079 43.6895 22.0318 43.9272ZM22.0684 32.4047C21.7026 32.551 21.3093 32.551 20.9435 32.4047C20.5869 32.2584 20.3034 31.9749 20.1571 31.6091C20.0108 31.2433 20.0108 30.8501 20.1571 30.4843C20.3949 29.9264 20.9344 29.5881 21.5105 29.5881C21.7026 29.5881 21.8855 29.6247 22.0775 29.6978C22.6628 29.9447 23.0011 30.5209 22.9737 31.1153C22.8274 31.4262 22.6994 31.7371 22.5805 32.0572C22.4342 32.1944 22.2604 32.3224 22.0684 32.4047ZM26.0738 26.8263C25.8361 27.0458 25.5983 27.2836 25.3788 27.5213C24.8393 27.7774 24.1625 27.6859 23.7144 27.2378C23.1475 26.6709 23.1475 25.7381 23.7144 25.162C23.9979 24.8785 24.3729 24.7321 24.7478 24.7321C25.1228 24.7321 25.4977 24.8785 25.7812 25.162C26.2384 25.6192 26.339 26.2868 26.0738 26.8263ZM29.1191 24.2749C28.7624 24.1286 28.4789 23.8451 28.3326 23.4793C28.1863 23.1135 28.1863 22.7203 28.3326 22.3545C28.4789 21.9978 28.7624 21.7143 29.1282 21.568C29.3111 21.4949 29.494 21.4583 29.6861 21.4583C29.8781 21.4583 30.0701 21.4949 30.253 21.568C30.6097 21.7143 30.8932 21.9978 31.0395 22.3636C31.1858 22.7294 31.1858 23.1226 31.0395 23.4884C30.9572 23.6896 30.8383 23.8542 30.6828 24.0006C30.3628 24.1194 30.0427 24.2475 29.7409 24.3938C29.5214 24.3938 29.3111 24.3572 29.1191 24.2749ZM35.4016 23.1501C35.2278 23.1501 35.0632 23.1501 34.8986 23.1592C34.3408 22.9489 33.9384 22.4185 33.9384 21.7875C33.9384 20.9827 34.5969 20.3243 35.4016 20.3243C36.2064 20.3243 36.8648 20.9827 36.8648 21.7875C36.8648 22.4185 36.4624 22.958 35.9046 23.1592C35.74 23.1592 35.5754 23.1501 35.4016 23.1501ZM11.8261 4.90605H12.137C12.1736 8.59144 13.0149 10.8959 13.3716 11.7098H12.2102V10.0912C12.2102 9.96317 12.1096 9.87172 11.9907 9.87172C11.8627 9.87172 11.7712 9.97231 11.7712 10.0912V11.7098H10.6098C10.9482 10.8959 11.7895 8.59144 11.8261 4.90605ZM14.0575 12.1579V13.4199H9.89654V12.1579H10.2349H13.7191H14.0575ZM15.3652 19.8031H8.58882V19.355H15.3652V19.8031ZM7.94868 32.3132V23.1409H16.0145V32.3132H7.94868ZM16.1974 45.1527H15.5023V41.2569H16.1974V45.1527ZM16.1974 41.0283H15.5023V39.9309H16.1974V41.0283ZM15.2829 41.0283H14.3501V39.9309H15.2829V41.0283ZM8.68027 35.1665H9.61305V39.7023H8.68027V35.1665ZM14.1215 35.1665V39.7023H12.8412V35.1665H14.1215ZM12.6217 39.7023H11.3414V35.1665H12.6217V39.7023ZM11.1128 39.7023H9.83252V35.1665H11.1128V39.7023ZM9.61305 39.9309V41.0283H8.68027V39.9309H9.61305ZM9.83252 39.9309H11.1128V41.0283H9.83252V39.9309ZM11.3414 39.9309H12.6217V41.0283H11.3414V39.9309ZM12.8412 39.9309H14.1215V41.0283H12.8412V39.9309ZM14.3501 39.7023V35.1665H15.2829V39.7023H14.3501ZM15.2829 34.947H8.68027V32.7613H15.2829V34.947ZM15.4841 22.6928H14.6153V21.5132C14.6153 21.4491 14.5696 21.4034 14.5056 21.4034C14.4415 21.4034 14.3958 21.4491 14.3958 21.5132V22.6928H12.9326V21.5132C12.9326 21.4491 12.8869 21.4034 12.8229 21.4034C12.7589 21.4034 12.7132 21.4491 12.7132 21.5132V22.6928H11.25V21.5132C11.25 21.4491 11.2043 21.4034 11.1402 21.4034C11.0762 21.4034 11.0305 21.4491 11.0305 21.5132V22.6928H9.56732V21.5132C9.56732 21.4491 9.5216 21.4034 9.45758 21.4034C9.39357 21.4034 9.34784 21.4491 9.34784 21.5132V22.6928H8.47908V20.9279H15.4749V22.6928H15.4841ZM8.2596 20.9279V22.6928H7.76578V20.9279H8.2596ZM7.53716 23.1409H7.72006V32.3132H7.53716H7.0159V23.1409H7.53716ZM8.46079 32.7613V39.7023H7.76578V32.7613H8.46079ZM7.76578 39.9309H8.46079V41.0283H7.83894C7.81151 41.01 7.79322 40.9826 7.76578 40.9643V39.9309ZM8.46079 41.2569V41.577C8.33276 41.4673 8.21388 41.3667 8.08585 41.2569H8.46079ZM8.68027 41.2569H9.61305V42.4824C9.29297 42.2537 8.98205 42.016 8.68027 41.7691V41.2569ZM9.83252 41.2569H11.1128V43.47C10.6739 43.2139 10.244 42.9396 9.83252 42.647V41.2569ZM11.3414 41.2569H12.6217V44.2565C12.1828 44.0461 11.7621 43.8267 11.3414 43.5889V41.2569ZM12.8412 41.2569H14.1215V44.8966C13.6825 44.732 13.2619 44.5582 12.8412 44.3662V41.2569ZM14.3501 41.2569H15.2829V45.1527H14.8531C14.6885 45.0978 14.5147 45.0429 14.3501 44.9789V41.2569ZM16.1974 45.3721V45.5367C15.987 45.4819 15.7858 45.427 15.5755 45.3721H16.1974ZM16.1974 39.7023H15.5023V32.7613H16.1974V39.7023ZM16.4168 32.3132H16.2339V23.1409H16.4168H16.9472V32.3132H16.4168ZM16.1974 22.6928H15.7035V20.9279H16.1974V22.6928ZM8.58882 20.4798V20.0317H15.3652V20.4798H8.58882ZM8.78086 18.9069C9.1558 18.2942 9.83252 16.9681 9.89654 15.3404H14.0575C14.1123 16.9681 14.7982 18.2942 15.1731 18.9069H8.78086ZM14.0575 14.8923H13.4539V14.1607C13.4539 14.0967 13.4082 14.0509 13.3442 14.0509C13.2801 14.0509 13.2344 14.0967 13.2344 14.1607V14.8923H12.5486V14.1607C12.5486 14.0967 12.5028 14.0509 12.4388 14.0509C12.3748 14.0509 12.3291 14.0967 12.3291 14.1607V14.8923H11.6432V14.1607C11.6432 14.0967 11.5975 14.0509 11.5335 14.0509C11.4695 14.0509 11.4237 14.0967 11.4237 14.1607V14.8923H10.7379V14.1607C10.7379 14.0967 10.6921 14.0509 10.6281 14.0509C10.5641 14.0509 10.5184 14.0967 10.5184 14.1607V14.8923H9.91483V13.6303H14.0575V14.8923ZM10.0977 11.7098H9.89654V11.1429C10.0886 11.0148 10.2715 10.8868 10.4635 10.7588C10.3081 11.2343 10.1709 11.5452 10.0977 11.7098ZM1.62957 26.9086C1.62957 20.5804 4.71139 14.9563 9.44844 11.4629V11.9293V15.1209C9.44844 15.13 9.44844 15.13 9.44844 15.1392C9.43929 17.2791 8.19559 18.98 8.18645 18.9983C8.1773 19.0166 8.16816 19.0257 8.15901 19.044V19.0532C8.14987 19.0715 8.14987 19.0806 8.14987 19.0989C8.14987 19.108 8.14987 19.108 8.14987 19.1172V19.1263V20.4798H7.5463C7.41828 20.4798 7.32683 20.5804 7.32683 20.6993V22.6837H6.79642C6.6684 22.6837 6.57695 22.7843 6.57695 22.9032V32.5236C6.57695 32.6516 6.67754 32.7431 6.79642 32.7431H7.32683V40.5071C3.80605 37.0503 1.62957 32.2309 1.62957 26.9086ZM16.6455 45.6465V32.7613H17.1759C17.3039 32.7613 17.3953 32.6608 17.3953 32.5419V22.9123C17.3953 22.7843 17.2947 22.6928 17.1759 22.6928H16.6455V20.7084C16.6455 20.5804 16.5449 20.4889 16.426 20.4889H15.8224V19.1355V19.1263C15.8224 19.1172 15.8224 19.1172 15.8224 19.108C15.8224 19.0898 15.8133 19.0806 15.8133 19.0623V19.0532C15.8041 19.0349 15.795 19.0166 15.7858 19.0075C15.7767 18.9892 14.5238 17.2882 14.5238 15.13V11.9385V10.0912C14.5238 9.96317 14.4233 9.87172 14.3044 9.87172C14.1763 9.87172 14.0849 9.97231 14.0849 10.0912V11.7098H13.8837C13.7465 11.4263 13.4082 10.6307 13.1064 9.35961C15.4749 8.30795 18.0903 7.72267 20.843 7.72267C29.9695 7.72267 37.6238 14.1241 39.5625 22.6745C39.4894 23.0861 39.5808 23.4976 39.7911 23.8451C39.7911 23.8542 39.7911 23.8725 39.8003 23.8817C38.712 23.5159 37.5598 23.2781 36.371 23.1958C36.8191 22.894 37.1117 22.3819 37.1117 21.7966C37.1117 20.8639 36.3527 20.1048 35.4199 20.1048C34.4871 20.1048 33.7281 20.8639 33.7281 21.7966C33.7281 22.3728 34.0207 22.8849 34.4688 23.1958C33.2983 23.2781 32.1735 23.5067 31.1035 23.8542C31.1584 23.7628 31.2132 23.6713 31.2498 23.5799C31.4236 23.1592 31.4236 22.702 31.2498 22.2905C31.0761 21.8698 30.756 21.5497 30.3353 21.376C29.9147 21.2022 29.4574 21.2022 29.0459 21.376C28.6252 21.5497 28.3052 21.8698 28.1314 22.2905C27.9577 22.7111 27.9577 23.1684 28.1314 23.5799C28.3052 24.0006 28.6252 24.3206 29.0459 24.4944C29.1465 24.5401 29.2471 24.5675 29.3477 24.5858C28.2869 25.1071 27.3084 25.7655 26.4213 26.5428C26.5219 26.0124 26.3756 25.4363 25.9549 25.0248C25.2965 24.3664 24.2266 24.3664 23.5681 25.0248C22.9097 25.6832 22.9097 26.7532 23.5681 27.4116C23.8973 27.7408 24.3272 27.9054 24.7661 27.9054C24.8758 27.9054 24.9856 27.8963 25.0953 27.878C24.3454 28.7376 23.6962 29.6978 23.1749 30.7312C23.1566 30.6306 23.12 30.53 23.0835 30.4294C22.9097 30.0087 22.5896 29.6887 22.169 29.5149C21.7483 29.3412 21.2911 29.3412 20.8795 29.5149C20.4589 29.6887 20.1388 30.0087 19.965 30.4294C19.7913 30.8501 19.7913 31.3073 19.965 31.7188C20.1388 32.1395 20.4589 32.4596 20.8795 32.6333C21.0899 32.7248 21.3093 32.7613 21.5288 32.7613C21.7483 32.7613 21.9678 32.7156 22.169 32.6333C22.2696 32.5967 22.361 32.5419 22.4433 32.487C22.0775 33.5752 21.8397 34.7275 21.7574 35.9255C21.4557 35.4774 20.9435 35.1847 20.3583 35.1847C19.4255 35.1847 18.6665 35.9438 18.6665 36.8765C18.6665 37.8093 19.4255 38.5683 20.3583 38.5683C20.9435 38.5683 21.4557 38.2757 21.7574 37.8276C21.8397 38.989 22.0592 40.123 22.4159 41.1929C22.3336 41.1381 22.2421 41.0923 22.1415 41.0466C21.7209 40.8729 21.2636 40.8729 20.8521 41.0466C20.4314 41.2204 20.1114 41.5404 19.9376 41.9611C19.7639 42.3818 19.7639 42.839 19.9376 43.2505C20.2028 43.8998 20.8338 44.293 21.5014 44.293C21.7117 44.293 21.9312 44.2565 22.1415 44.165C22.6719 43.9455 23.0377 43.4791 23.1475 42.9579C23.6321 43.9455 24.2357 44.86 24.9399 45.6922C23.623 45.9757 22.2513 46.1312 20.8521 46.1312C19.3889 46.1037 17.9898 45.9483 16.6455 45.6465ZM21.7209 37.3521C21.5105 37.9099 20.9801 38.3123 20.3491 38.3123C19.5444 38.3123 18.886 37.6539 18.886 36.8491C18.886 36.0444 19.5444 35.3859 20.3491 35.3859C20.9801 35.3859 21.5105 35.7883 21.7209 36.3461C21.7117 36.5107 21.7117 36.6845 21.7117 36.8491C21.7117 37.0137 21.7117 37.1875 21.7209 37.3521ZM33.4629 41.3392L34.0664 38.7787C34.414 39.0256 34.8346 39.1719 35.2919 39.1902V39.5103C34.7249 40.1596 34.1122 40.7723 33.4629 41.3392ZM35.4016 34.7275C36.4258 34.7275 37.2854 35.4591 37.4866 36.4376C36.9837 37.3155 36.4075 38.1568 35.7765 38.9433C35.6577 38.9616 35.5296 38.9799 35.4107 38.9799C34.2402 38.9799 33.2891 38.0288 33.2891 36.8583C33.28 35.6786 34.2311 34.7275 35.4016 34.7275ZM35.5113 39.1902C35.5296 39.1902 35.5479 39.1902 35.5571 39.1902C35.5388 39.2085 35.5205 39.2268 35.5113 39.2451V39.1902ZM39.0047 33.0814L37.697 34.3891C37.6512 34.4349 37.6512 34.508 37.697 34.5446C37.7153 34.5629 37.7518 34.5812 37.7793 34.5812C37.8067 34.5812 37.8341 34.572 37.8616 34.5446L38.8309 33.5752C38.5017 34.4714 38.0993 35.3311 37.6421 36.1632C37.3586 35.2396 36.5173 34.5629 35.5205 34.5172V30.3471C35.5205 30.2831 35.4748 30.2374 35.4107 30.2374C35.3467 30.2374 35.301 30.2831 35.301 30.3471V34.5172C35.0632 34.5263 34.8438 34.572 34.6243 34.6543L33.6824 32.3681C33.6549 32.3133 33.5909 32.2858 33.536 32.3041C33.4812 32.3315 33.4537 32.3956 33.472 32.4504L34.414 34.7366C33.9201 34.9653 33.5269 35.3676 33.2891 35.8523L27.8754 33.5935C27.8205 33.5661 27.7565 33.5935 27.729 33.6575C27.7016 33.7124 27.7291 33.7764 27.7931 33.8039L33.2068 36.0626C33.1154 36.3096 33.0605 36.5839 33.0605 36.8583C33.0605 37.5716 33.3806 38.2026 33.8744 38.6324L33.1794 41.5862C31.4236 43.0676 29.3934 44.2473 27.1712 45.0246C26.1287 43.973 25.2874 42.7384 24.7021 41.3575L27.2901 40.2967C27.345 40.2693 27.3724 40.2053 27.3541 40.1504C27.3267 40.0955 27.2627 40.0681 27.2078 40.0864L24.6198 41.1472C24.0894 39.8212 23.7876 38.3672 23.7876 36.8491C23.7876 35.3036 24.0894 33.8313 24.6472 32.4779L26.0372 33.054C26.0555 33.0631 26.0647 33.0631 26.083 33.0631C26.1287 33.0631 26.1653 33.0357 26.1836 32.99C26.211 32.9351 26.1836 32.8711 26.1196 32.8437L24.7295 32.2675C25.3057 30.9415 26.1196 29.7344 27.1163 28.7193L28.1771 29.7801C28.1954 29.7984 28.232 29.8167 28.2595 29.8167C28.2869 29.8167 28.3143 29.8076 28.3418 29.7801C28.3875 29.7344 28.3875 29.6612 28.3418 29.6247L27.281 28.5638C28.3143 27.5488 29.5397 26.7257 30.8932 26.1496L32.8319 30.8684C32.8502 30.9141 32.8868 30.9415 32.9325 30.9415C32.9508 30.9415 32.9599 30.9415 32.9782 30.9324C33.0331 30.9049 33.0605 30.8409 33.0422 30.7861L31.1035 26.0673C32.4021 25.546 33.8195 25.2534 35.301 25.2351V28.8291C35.301 28.8931 35.3467 28.9388 35.4107 28.9388C35.4748 28.9388 35.5205 28.8931 35.5205 28.8291V25.2351C37.0202 25.2534 38.456 25.546 39.7729 26.0856L39.4071 26.9726C39.3796 27.0275 39.4071 27.0915 39.4711 27.119C39.4894 27.1281 39.4985 27.1281 39.5168 27.1281C39.5625 27.1281 39.5991 27.1007 39.6174 27.0549L39.9832 26.1679C39.9923 26.1679 40.0015 26.177 40.0106 26.177C40.0198 26.4148 40.0289 26.6526 40.0289 26.8995C40.0198 29.0668 39.6631 31.1427 39.0047 33.0814Z" fill="white"/>
</svg>
