<svg width="23" height="52" viewBox="0 0 23 52" fill="none" xmlns="http://www.w3.org/2000/svg">
<g clip-path="url(#clip0_4912_498)">
<path d="M22.1216 27.3098L19.2621 25.8366C19.2132 25.8148 19.1643 25.8094 19.1153 25.8148C19.3328 25.0157 19.4959 24.1948 19.5611 23.3631C19.6046 22.8467 19.4306 22.352 19.0718 21.9714C18.7076 21.58 18.1912 21.281 17.6639 21.3517C17.4899 21.3734 16.9408 21.4495 16.9082 21.455C16.332 20.6504 16.8104 18.5249 16.9082 17.2365C16.9571 16.6059 16.7886 15.8394 16.5766 15.3229L17.6095 14.3825C17.7182 14.2792 17.7291 14.1106 17.6258 13.9965C17.5225 13.8878 17.354 13.8769 17.2398 13.9802L16.3211 14.8174C16.1906 14.5999 16.0439 14.4096 15.8862 14.2411L16.4788 13.355C16.5603 13.23 16.5277 13.0615 16.4026 12.9799C16.2776 12.8984 16.1091 12.931 16.0275 13.056L15.4676 13.8878C15.3263 13.7845 15.1795 13.6975 15.0273 13.6214L15.6579 11.7133C15.7068 11.5719 15.6253 11.4197 15.4839 11.3708C15.3426 11.3219 15.1904 11.4034 15.1414 11.5448L14.5163 13.4257C14.3695 13.3822 14.2173 13.355 14.0651 13.3333V11.9144C14.0651 11.7622 13.9455 11.6426 13.7933 11.6426C13.641 11.6426 13.5215 11.7622 13.5215 11.9144V13.317C13.3692 13.3278 13.2116 13.3496 13.0539 13.3822L12.4451 11.5448C12.3962 11.4034 12.2439 11.3273 12.1026 11.3708C11.9613 11.4197 11.8852 11.5719 11.9286 11.7133L12.5375 13.5562C12.3635 13.6323 12.2004 13.7301 12.0374 13.8497L11.4829 13.018C11.4013 12.8929 11.2274 12.8603 11.1078 12.9419C10.9827 13.0234 10.9501 13.1919 11.0317 13.317L11.6296 14.2139C11.4883 14.3716 11.3578 14.551 11.2382 14.7521L10.2978 13.8932C10.189 13.7899 10.0151 13.8008 9.9118 13.9095C9.80851 14.0182 9.81939 14.1922 9.92811 14.2955L10.9936 15.2686C10.7979 15.7252 10.6294 16.5461 10.6783 17.2256C10.7327 17.9921 10.9556 19.9002 10.8088 20.9222C9.86831 19.8187 9.10181 18.3292 8.56906 17.106C8.41684 16.7581 8.07436 16.5461 7.69926 16.5624C7.31872 16.5787 6.99799 16.8233 6.87839 17.1821C6.82403 17.3452 6.75879 17.5192 6.68812 17.6931C5.04095 15.2577 3.42639 12.5015 3.17632 12.0721V10.4358H4.28531C4.38317 10.4358 4.47015 10.3814 4.51907 10.2999C4.568 10.2129 4.568 10.1096 4.51907 10.028L3.73625 8.69617C4.88873 7.25557 3.98632 4.74948 3.33398 3.72203C3.17632 3.4774 2.99693 3.2219 2.74143 3.30888C2.68706 3.32519 2.51311 3.40673 2.53485 3.6731C2.58921 4.29827 2.3772 4.89625 1.15949 5.9835C0.0885512 6.93484 0.333181 8.08732 0.670227 8.67986L-0.123462 10.0335C-0.172388 10.115 -0.172388 10.2238 -0.123462 10.3053C-0.0745358 10.3923 0.0124439 10.4412 0.110296 10.4412H1.14318C0.855058 10.6206 0.392979 10.9848 0.278818 11.5719C0.159222 12.2025 0.46365 12.8929 1.19754 13.616C1.20298 13.6214 1.21928 14.127 1.21928 14.127C1.21928 14.2792 1.33888 14.3988 1.4911 14.3988H2.15431C2.38807 14.975 3.25243 16.9429 5.05726 19.922C4.90504 20.0253 4.74739 20.1177 4.57343 20.1938C4.41578 20.2645 3.98632 20.4493 3.93196 20.8787C3.87216 21.33 4.24726 21.879 5.12249 22.6238C4.98115 22.776 4.88873 22.9554 4.86155 23.1674C4.72021 24.309 6.41631 25.9507 6.74792 26.2552C6.74248 26.266 6.73705 26.2769 6.72618 26.2878C6.60114 26.4563 6.56309 26.652 6.62289 26.8532C6.78054 27.4022 7.66121 27.8752 8.16134 28.1089C7.31873 29.2723 7.45463 30.4954 7.87322 31.0445C7.94933 31.1478 8.04174 31.2239 8.13416 31.2837C7.90584 31.5664 7.66664 31.9741 7.62859 32.4851C7.5851 33.0722 7.82973 33.6376 8.3353 34.1812C8.34617 34.3062 8.38422 34.4149 8.42771 34.5074C8.46577 34.5889 8.52013 34.665 8.57993 34.7357C9.09093 37.2363 8.87892 46.5268 7.29154 48.5056C6.82403 48.5763 6.4598 48.9786 6.4598 49.4624V51.1476C6.4598 51.6858 6.8947 52.1207 7.43289 52.1207H20.1482C20.6864 52.1207 21.1213 51.6858 21.1213 51.1476V49.4624C21.1213 48.9731 20.7571 48.5763 20.2895 48.5056C18.6315 46.4562 18.2455 40.2045 18.0661 35.6381C18.0498 35.1216 18.0335 34.6813 18.0226 34.366C18.0226 34.366 18.3053 34.5074 18.3977 34.5563C18.5391 34.6324 18.6913 34.578 18.762 34.4367C18.9794 34.029 19.61 32.7895 19.61 32.7895C19.6426 32.8113 19.6753 32.8384 19.7079 32.8602C19.9634 33.0178 20.2189 33.0994 20.4472 33.0994C20.6103 33.0994 20.7571 33.0613 20.893 32.9852C21.2191 32.7949 21.3931 32.409 21.3822 31.898C21.3714 31.4468 21.2137 30.9358 20.9365 30.4574C20.9147 30.4193 20.8875 30.3867 20.8658 30.3541L22.2357 27.7012C22.3064 27.5381 22.2575 27.375 22.1216 27.3098ZM15.5383 33.0613L17.4681 34.0561C17.4681 34.0616 17.4681 34.0725 17.4681 34.0779C17.4845 34.5128 17.5008 34.9422 17.5171 35.3717C17.6258 38.7259 17.5932 42.0148 17.3486 42.3899C17.2181 42.5856 16.3428 42.7758 15.647 42.9226C14.3912 43.189 12.88 43.5152 12.1787 44.3252C11.8852 43.4282 11.6188 41.1287 11.9993 35.2847C12.1841 35.2304 12.3635 35.1706 12.5321 35.0945C13.3203 34.7248 14.4184 33.8061 15.5165 32.5177L15.4241 32.6917C15.3535 32.8276 15.4078 32.9906 15.5383 33.0613ZM14.5 43.7544V45.9669C14.1521 46.0267 13.3203 46.0158 12.456 44.8688C12.7713 44.3197 13.5976 43.9936 14.5 43.7544ZM19.0175 23.3142C18.5717 28.908 14.1086 33.7626 12.2983 34.6052C11.048 35.1869 9.26489 34.8933 8.94959 34.2464C8.75932 33.855 9.27576 33.2896 10.3358 32.746C13.6139 31.0499 15.3263 26.9075 16.2015 23.5479C16.2015 23.5425 16.2831 23.2381 16.3157 23.0967C16.4624 22.5042 16.8321 22.0856 17.3051 21.9442C17.3812 21.9279 17.6095 21.8844 17.6584 21.8844C18.039 21.8844 18.4086 22.0475 18.6696 22.3302C18.9251 22.602 19.0447 22.9554 19.0175 23.3142ZM11.9721 21.9551C11.7329 21.7975 11.5101 21.6018 11.2872 21.3843C11.4503 20.8189 11.4557 19.8785 11.4122 19.025C11.6786 19.6773 12.1189 20.2047 12.6625 20.5145V21.9062C12.4288 21.9225 12.195 21.9388 11.9721 21.9551ZM12.2113 15.7959C12.5429 15.3664 13.0104 15.0131 13.4834 14.9152C13.5867 14.8935 14.0216 14.8935 14.1249 14.9152C14.5924 15.0185 15.0816 15.3501 15.3915 15.7904C15.8101 16.383 15.9406 16.9864 15.9351 17.5844C15.9351 19.0794 14.9784 20.2971 13.7987 20.2971C12.619 20.2971 11.6623 19.0794 11.6623 17.5844C11.6731 16.981 11.8417 16.2851 12.2113 15.7959ZM13.2007 20.7483C13.3964 20.8026 13.5976 20.8353 13.8041 20.8353C14.0107 20.8353 14.2119 20.8026 14.4076 20.7483V21.7431C14.0161 21.7866 13.6084 21.8246 13.2007 21.8573V20.7483ZM14.9566 20.5145C15.4187 20.2481 15.8047 19.8241 16.0765 19.3022C16.0167 20.1557 16.0493 21.031 16.332 21.5202C15.9351 21.5691 15.4676 21.6235 14.9566 21.6833V20.5145ZM16.3265 16.4863C16.3211 16.47 16.0602 15.7796 15.8916 15.5404C15.4024 14.801 14.6467 14.3227 13.8041 14.3227C12.9506 14.3227 12.1896 14.8065 11.7058 15.5621C11.5155 15.8611 11.2817 16.5026 11.2763 16.5243C11.4829 14.5564 12.6299 13.8334 13.7063 13.8334C14.8914 13.8334 16.0873 14.6651 16.3265 16.4863ZM1.5509 6.36403C2.53485 5.49424 2.93713 4.85276 3.0676 4.28196C3.36116 4.84189 3.73082 5.78236 3.77974 6.69021C3.8178 7.40779 3.65471 7.96772 3.30136 8.38087H1.17036C0.9964 8.06557 0.63761 7.17403 1.5509 6.36403ZM1.17036 8.92449H3.27418L3.83411 9.87583H0.615865L1.17036 8.92449ZM0.849622 11.6589C0.903984 11.3871 1.07794 11.1751 1.2519 11.0337V12.806C0.920293 12.3819 0.784388 11.996 0.849622 11.6589ZM1.79552 10.4195H2.65445V13.8334H1.79552V10.4195ZM2.92626 14.377C3.07847 14.377 3.19807 14.2574 3.19807 14.1052V13.1213C3.88303 14.2737 5.17142 16.3884 6.44893 18.2531C6.20974 18.7206 5.90531 19.1772 5.5139 19.5523C3.94827 16.9647 3.09478 15.1218 2.77948 14.377H2.92626ZM5.43236 23.2163C5.4541 23.0532 5.54108 22.9391 5.7096 22.8467C6.699 22.3085 7.76993 20.9766 7.81342 20.9222C7.90584 20.8026 7.88953 20.6341 7.76993 20.5417C7.65577 20.4493 7.48181 20.4656 7.3894 20.5852C7.37852 20.5961 6.4598 21.7377 5.60632 22.2759C4.55169 21.3952 4.49189 21.0255 4.50276 20.9331C4.51363 20.8461 4.61692 20.7646 4.8235 20.6722C6.2641 20.0416 7.0306 18.5086 7.41658 17.3343C7.48725 17.1114 7.68839 17.0897 7.74275 17.0843C7.80255 17.0788 7.99825 17.0897 8.09067 17.3017C8.70496 18.7097 9.61824 20.4602 10.7653 21.6453C10.7707 21.6507 10.7762 21.6561 10.7816 21.6616C10.8958 21.7812 11.0154 21.8953 11.135 21.9986C10.5098 22.0258 9.94442 22.0258 9.50952 21.9932C7.76993 21.8627 7.67208 22.7977 7.56879 23.7871C7.50899 24.3634 7.43289 25.0538 7.06322 25.7605C6.35108 25.0755 5.35625 23.8741 5.43236 23.2163ZM7.17738 26.6901C7.16651 26.6574 7.16651 26.6303 7.19913 26.5922C7.93845 25.5865 8.04174 24.5808 8.11785 23.8469C8.21026 22.9282 8.25376 22.5259 9.1616 22.5259C9.73241 22.5259 12.7821 22.5748 15.1143 22.2324C12.3472 23.798 9.22684 26.9456 8.53644 27.6577C7.98194 27.4076 7.25893 26.9836 7.17738 26.6901ZM8.82456 28.1578C9.54757 27.4403 13.1246 23.7328 16.0221 22.3683C15.9188 22.5531 15.8373 22.7488 15.7829 22.9663C15.7503 23.0913 15.7177 23.2163 15.6851 23.3414C13.3312 26.1899 9.25946 30.5009 8.61798 30.8216C8.52557 30.8705 8.42771 30.827 8.32986 30.6966C8.00912 30.2671 7.87322 29.1037 8.82456 28.1578ZM8.91154 31.2837C9.72697 30.8162 13.1083 27.2065 15.3317 24.6134C14.413 27.587 12.8147 30.8542 10.0858 32.2622C9.19966 32.7188 8.74845 33.1483 8.531 33.5125C8.29181 33.1755 8.18308 32.8384 8.20483 32.5068C8.25919 31.7892 8.9061 31.2891 8.91154 31.2837ZM9.22684 35.1488C9.6563 35.35 10.2054 35.4587 10.7816 35.4587C10.999 35.4587 11.2219 35.4369 11.4448 35.4043C11.0969 40.8569 11.2545 44.1077 11.9178 45.0482C12.7821 46.2768 13.6737 46.5214 14.2553 46.5214C14.6196 46.5214 14.8588 46.4235 14.8859 46.4127C14.9838 46.3692 15.049 46.2713 15.049 46.1626V43.613C15.2882 43.5587 15.5329 43.5043 15.7612 43.4554C16.9028 43.2107 17.5606 43.0531 17.8052 42.6889C17.8704 42.5856 17.9248 42.3844 17.9737 42.1072C18.2836 44.847 18.7728 47.1411 19.6155 48.4621H7.98194C9.42798 45.8962 9.57476 38.0192 9.22684 35.1488ZM20.5777 49.4406V51.1259C20.5777 51.3651 20.3874 51.5553 20.1482 51.5553H7.4655C7.22631 51.5553 7.03604 51.3651 7.03604 51.1259V49.4406C7.03604 49.2015 7.22631 49.0112 7.4655 49.0112H20.1482C20.382 49.0112 20.5777 49.2069 20.5777 49.4406ZM20.6266 32.4905C20.4798 32.5775 20.2515 32.534 19.996 32.3764C19.6916 32.1915 19.3871 31.8545 19.1588 31.4631C18.6967 30.6585 18.6913 29.8539 19.0012 29.6746C19.0501 29.6474 19.1099 29.6311 19.1751 29.6311C19.5285 29.6311 20.0775 30.0225 20.4689 30.702C20.6973 31.0988 20.8332 31.5283 20.844 31.8871C20.8495 32.1861 20.7734 32.409 20.6266 32.4905ZM20.5124 29.8431C19.9362 29.2016 19.2295 28.9189 18.7294 29.207C18.0987 29.5713 18.077 30.6857 18.6859 31.7349C18.8326 31.9849 19.0012 32.2133 19.186 32.409L18.4032 33.9257L16.0275 32.7025L19.2567 26.44L21.6323 27.6631L20.5124 29.8431Z" fill="white"/>
</g>
<defs>
<clipPath id="clip0_4912_498">
<rect width="22.2885" height="51.6441" fill="white" transform="translate(0 0.250488)"/>
</clipPath>
</defs>
</svg>
