<svg xmlns="http://www.w3.org/2000/svg" width="66" height="68" fill="none" viewBox="0 0 66 68"><g clip-path="url(#a)"><path fill="#010101" fill-rule="evenodd" d="M11.585 39.494c15.13-6.105 25.013-9.873 22.384 9.875a130 130 0 0 0-2.112 13.311q.926 7.655 5.068 4.294 11.11-18.424 16.472-34.78c7.488-22.94-32.432-5.636-41.812 7.3" clip-rule="evenodd"/><path fill="#bae40e" fill-rule="evenodd" d="M41.27 66.65a226 226 0 0 0 3.291-5.779l2.923-5.06c7.937-5.492 13.1-14.25 14.125-23.954a29.4 29.4 0 0 0-2.725-10.305 12.8 12.8 0 0 0 3.676-2.313A33.86 33.86 0 0 1 66 34.163a33.84 33.84 0 0 1-4.078 16.17 20 20 0 0 1-1.291 2.179C56.193 59.404 49.328 64.537 41.27 66.65" clip-rule="evenodd"/><path fill="#010101" d="M54.071 18.892c5.131 0 9.291-4.229 9.291-9.445S59.202 0 54.071 0 44.78 4.23 44.78 9.447s4.16 9.445 9.291 9.445"/><path fill="#bae40e" fill-rule="evenodd" d="M19.916 18.155a28.83 28.83 0 0 1 24.1-.588c-3.498-4.473-3.671-10.669-.688-15.274A32.5 32.5 0 0 0 33 .615c-18.225 0-33 15.02-33 33.549 0 17.28 12.851 31.505 29.366 33.345-.57-1.404-.862-2.973-1.033-4.387l-.02-.173C4.933 59.044-5.13 30.41 19.916 18.155" clip-rule="evenodd"/></g><defs><clipPath id="a"><path fill="#fff" d="M0 0h66v68H0z"/></clipPath></defs></svg>