<svg width="38" height="37" viewBox="0 0 38 37" fill="none" xmlns="http://www.w3.org/2000/svg">
<rect x="0.455078" width="37.0074" height="37.0074" rx="18.5037" fill="white" fill-opacity="0.2"/>
<path d="M19.64 24.4208L16.144 24.3555C15.012 24.3327 13.8772 24.3782 12.7675 24.1423C11.0793 23.7898 10.9597 22.0618 10.8345 20.6122C10.6621 18.5744 10.7288 16.4995 11.0543 14.4787C11.238 13.3448 11.9609 12.6682 13.079 12.5945C16.8532 12.3273 20.6525 12.359 24.4183 12.4837C24.816 12.4951 25.2165 12.5576 25.6087 12.6287C27.5445 12.9754 27.5917 14.9337 27.7172 16.5822C27.8423 18.2478 27.7895 19.9218 27.5503 21.576C27.3584 22.9456 26.9912 24.0942 25.4418 24.2051C23.5004 24.3501 21.6035 24.4668 19.6567 24.4296C19.6568 24.4208 19.6456 24.4208 19.64 24.4208ZM17.5847 20.9533C19.0477 20.0949 20.4828 19.2508 21.9374 18.3982C20.4717 17.5397 19.0393 16.6956 17.5847 15.843V20.9533Z" fill="white"/>
</svg>
