<svg width="52" height="52" viewBox="0 0 52 52" fill="none" xmlns="http://www.w3.org/2000/svg">
<g clip-path="url(#clip0_1180_1156)">
<path d="M42.5138 0.149414H9.34325C4.26509 0.149414 0.148438 4.26607 0.148438 9.34422V42.5148C0.148438 47.593 4.26509 51.7096 9.34325 51.7096H42.5138C47.592 51.7096 51.7086 47.593 51.7086 42.5148V9.34422C51.7086 4.26607 47.592 0.149414 42.5138 0.149414Z" fill="#1C63FF" fill-opacity="0.1"/>
<path fill-rule="evenodd" clip-rule="evenodd" d="M33.2901 26.0562C36.147 26.0562 38.4629 28.3721 38.4629 31.229C38.4629 34.0858 36.147 36.4018 33.2901 36.4018C30.4333 36.4018 28.1173 34.0858 28.1173 31.229C28.1172 28.3721 30.4333 26.0562 33.2901 26.0562ZM16.6068 24.8338V22.9393C16.6069 22.8911 16.6261 22.8449 16.6601 22.8109C16.6942 22.7768 16.7404 22.7576 16.7886 22.7575H18.6388C18.687 22.7576 18.7332 22.7768 18.7673 22.8109C18.8013 22.8449 18.8205 22.8911 18.8206 22.9393V24.8338C18.8205 24.882 18.8013 24.9281 18.7672 24.9622C18.7332 24.9963 18.687 25.0155 18.6388 25.0156H16.7885C16.7403 25.0155 16.6942 24.9963 16.6601 24.9622C16.6261 24.9281 16.6069 24.882 16.6068 24.8338ZM33.2901 21.584H14.5371V33.4541C14.5371 33.7839 14.8063 34.0532 15.1363 34.0532H27.9364C27.4906 33.2101 27.2383 32.249 27.2383 31.2291C27.2383 27.8868 29.9478 25.1773 33.29 25.1773V21.584H33.2901ZM16.7885 30.1822H18.6388C18.687 30.1823 18.7331 30.2014 18.7672 30.2355C18.8013 30.2696 18.8205 30.3158 18.8206 30.364V32.2584C18.8205 32.3066 18.8013 32.3528 18.7672 32.3869C18.7331 32.421 18.687 32.4401 18.6388 32.4402H16.7885C16.7403 32.4401 16.6942 32.421 16.6601 32.3869C16.626 32.3528 16.6068 32.3066 16.6067 32.2584V30.364C16.6068 30.3158 16.626 30.2696 16.6601 30.2355C16.6942 30.2014 16.7403 30.1823 16.7885 30.1822ZM25.0552 30.1822H26.9053C26.9535 30.1823 26.9997 30.2014 27.0338 30.2355C27.0678 30.2696 27.087 30.3158 27.0871 30.364V32.2584C27.087 32.3066 27.0678 32.3528 27.0338 32.3869C26.9997 32.421 26.9535 32.4401 26.9053 32.4402H25.0552C25.007 32.4401 24.9608 32.421 24.9267 32.3869C24.8927 32.3528 24.8735 32.3066 24.8734 32.2584V30.364C24.8735 30.3158 24.8927 30.2696 24.9267 30.2355C24.9608 30.2014 25.007 30.1823 25.0552 30.1822ZM20.9219 30.1822H22.772C22.8202 30.1823 22.8664 30.2014 22.9005 30.2355C22.9346 30.2696 22.9538 30.3158 22.9539 30.364V32.2584C22.9538 32.3066 22.9346 32.3528 22.9005 32.3869C22.8664 32.421 22.8202 32.4402 22.772 32.4402H20.9219C20.8737 32.4401 20.8275 32.421 20.7934 32.3869C20.7594 32.3528 20.7402 32.3066 20.7401 32.2584V30.364C20.7402 30.3158 20.7594 30.2696 20.7934 30.2355C20.8275 30.2014 20.8737 30.1823 20.9219 30.1822ZM16.6068 28.546V26.6516C16.6069 26.6034 16.6261 26.5572 16.6601 26.5232C16.6942 26.4891 16.7404 26.4699 16.7886 26.4698H18.6388C18.687 26.4699 18.7332 26.4891 18.7672 26.5232C18.8013 26.5573 18.8205 26.6034 18.8206 26.6516V28.546C18.8205 28.5942 18.8013 28.6404 18.7673 28.6745C18.7332 28.7086 18.687 28.7277 18.6388 28.7278H16.7885C16.7403 28.7277 16.6942 28.7085 16.6601 28.6745C16.6261 28.6404 16.6069 28.5942 16.6068 28.546ZM20.7401 28.546V26.6516C20.7402 26.6034 20.7594 26.5572 20.7934 26.5232C20.8275 26.4891 20.8737 26.4699 20.9219 26.4698H22.772C22.8202 26.4699 22.8664 26.4891 22.9005 26.5232C22.9346 26.5572 22.9538 26.6034 22.9539 26.6516V28.546C22.9538 28.5942 22.9346 28.6404 22.9005 28.6745C22.8664 28.7086 22.8202 28.7278 22.772 28.7278H20.9219C20.8737 28.7277 20.8275 28.7086 20.7934 28.6745C20.7594 28.6404 20.7402 28.5942 20.7401 28.546ZM24.8734 28.546V26.6516C24.8735 26.6034 24.8927 26.5572 24.9268 26.5232C24.9609 26.4891 25.007 26.4699 25.0552 26.4698H26.9054C26.9536 26.4699 26.9997 26.4891 27.0338 26.5232C27.0679 26.5572 27.0871 26.6034 27.0872 26.6516V28.546C27.0871 28.5942 27.0679 28.6404 27.0338 28.6745C26.9997 28.7086 26.9536 28.7277 26.9054 28.7278H25.0552C25.007 28.7277 24.9608 28.7086 24.9268 28.6745C24.8927 28.6404 24.8735 28.5942 24.8734 28.546ZM26.9053 25.0156H25.0552C25.007 25.0155 24.9608 24.9963 24.9267 24.9622C24.8927 24.9282 24.8735 24.882 24.8734 24.8338V22.9393C24.8735 22.8911 24.8927 22.8449 24.9267 22.8109C24.9608 22.7768 25.007 22.7576 25.0552 22.7575H26.9053C26.9535 22.7576 26.9997 22.7768 27.0338 22.8109C27.0678 22.8449 27.087 22.8911 27.0871 22.9393V24.8338C27.087 24.882 27.0678 24.9282 27.0338 24.9622C26.9997 24.9963 26.9535 25.0155 26.9053 25.0156ZM29.0067 24.8338V22.9393C29.0068 22.8911 29.026 22.8449 29.0601 22.8109C29.0942 22.7768 29.1403 22.7576 29.1885 22.7575H31.0387C31.0869 22.7576 31.133 22.7768 31.1671 22.8109C31.2012 22.8449 31.2204 22.8911 31.2205 22.9393V24.8338C31.2204 24.882 31.2012 24.9282 31.1671 24.9622C31.133 24.9963 31.0869 25.0155 31.0387 25.0156H29.1885C29.1403 25.0155 29.0942 24.9963 29.0601 24.9622C29.026 24.9282 29.0068 24.882 29.0067 24.8338ZM20.7401 24.8338V22.9393C20.7402 22.8911 20.7594 22.8449 20.7934 22.8109C20.8275 22.7768 20.8737 22.7576 20.9219 22.7575H22.772C22.8202 22.7576 22.8664 22.7768 22.9005 22.8108C22.9346 22.8449 22.9538 22.8911 22.9539 22.9393V24.8338C22.9538 24.882 22.9346 24.9282 22.9005 24.9622C22.8664 24.9963 22.8202 25.0155 22.772 25.0156H20.9219C20.8737 25.0155 20.8275 24.9963 20.7934 24.9622C20.7594 24.9282 20.7402 24.882 20.7401 24.8338ZM17.903 19.1453C17.903 19.3516 17.7344 19.5203 17.5281 19.5203H16.7432C16.5369 19.5203 16.3683 19.3516 16.3683 19.1453V18.0592H15.1363C14.8063 18.0592 14.5371 18.3283 14.5371 18.6583V20.7051H33.2901V18.6583C33.2901 18.3283 33.0209 18.0591 32.6909 18.0591H31.459V19.1453C31.459 19.3516 31.2904 19.5203 31.0842 19.5203H30.2992C30.0928 19.5203 29.9242 19.3516 29.9242 19.1453V18.0592H26.9404V19.1453C26.9404 19.3516 26.7717 19.5203 26.5655 19.5203H25.7805C25.5742 19.5203 25.4056 19.3516 25.4056 19.1453V18.0592H22.4218V19.1453C22.4218 19.3516 22.2531 19.5203 22.0469 19.5203H21.2619C21.0556 19.5203 20.8869 19.3516 20.8869 19.1453V18.0592H17.903V19.1453ZM16.7432 16.5981H17.5281C17.7344 16.5981 17.903 16.7668 17.903 16.973V18.0152H16.3683V16.973C16.3683 16.7668 16.5369 16.5981 16.7432 16.5981ZM30.2992 16.5981H31.0841C31.2903 16.5981 31.4589 16.7668 31.4589 16.973V18.0152H29.9242V16.973C29.9242 16.7668 30.0928 16.5981 30.2992 16.5981ZM25.7805 16.5981H26.5654C26.7716 16.5981 26.9403 16.7668 26.9403 16.973V18.0152H25.4056V16.973C25.4056 16.7668 25.5742 16.5981 25.7805 16.5981ZM21.2619 16.5981H22.0468C22.253 16.5981 22.4217 16.7668 22.4217 16.973V18.0152H20.8869V16.973C20.8869 16.7668 21.0556 16.5981 21.2619 16.5981ZM33.7295 30.5211V27.4225C33.7295 27.1797 33.5328 26.983 33.2901 26.983C33.0474 26.983 32.8506 27.1797 32.8506 27.4225V30.9765L30.7475 32.1908C30.6977 32.2196 30.654 32.258 30.619 32.3037C30.5841 32.3495 30.5584 32.4016 30.5436 32.4573C30.5288 32.5129 30.525 32.5709 30.5326 32.628C30.5402 32.6851 30.559 32.7401 30.5878 32.7899C30.7091 32.9994 30.9774 33.0709 31.187 32.9496L32.8947 31.9636C32.9381 32.0531 33.0106 32.1252 33.1003 32.1682C33.19 32.2112 33.2916 32.2224 33.3886 32.2002C33.4855 32.1779 33.572 32.1234 33.634 32.0455C33.6959 31.9677 33.7296 31.8712 33.7296 31.7717V31.4806L33.9781 31.3371C34.064 31.2878 34.1306 31.2108 34.167 31.1187C34.2035 31.0266 34.2076 30.9249 34.1787 30.8301C34.1499 30.7354 34.0897 30.6533 34.0081 30.5971C33.9266 30.541 33.8283 30.5142 33.7295 30.5211Z" fill="#1C63FF"/>
</g>
<defs>
<clipPath id="clip0_1180_1156">
<rect width="52" height="52" fill="white"/>
</clipPath>
</defs>
</svg>
