<svg width="52" height="52" viewBox="0 0 52 52" fill="none" xmlns="http://www.w3.org/2000/svg">
<g clip-path="url(#clip0_1180_1156)">
<path d="M42.5138 0.149414H9.34325C4.26509 0.149414 0.148438 4.26607 0.148438 9.34422V42.5148C0.148438 47.593 4.26509 51.7096 9.34325 51.7096H42.5138C47.592 51.7096 51.7086 47.593 51.7086 42.5148V9.34422C51.7086 4.26607 47.592 0.149414 42.5138 0.149414Z" fill="#1C63FF" fill-opacity="0.1"/>
<g clip-path="url(#clip1_1180_1156)">
<path d="M15.6055 27.3135C14.6431 27.5884 14 28.4559 14 29.4297V32.3594C14 33.3628 14.6763 34.2114 15.5972 34.4731C15.542 34.1182 15.5137 33.7549 15.5137 33.3848C15.5137 28.0228 15.5097 28.3481 15.5234 28.0835C15.5366 27.8228 15.5645 27.5659 15.6055 27.3135ZM37.394 27.3135C37.4551 27.688 37.4863 28.0688 37.4863 28.4531V33.3848C37.4863 33.7549 37.458 34.1182 37.4028 34.4731C38.3237 34.2114 39 33.3628 39 32.3594V29.4297C39 28.4233 38.3193 27.5723 37.394 27.3135ZM35.8262 27.2324H27.751L25.2852 28.4653C24.98 28.6176 24.6437 28.697 24.3027 28.6973C23.8945 28.6973 23.4946 28.584 23.1475 28.3691C22.4951 27.9658 22.1055 27.2671 22.1055 26.5V22.8594C19.2368 23.1074 16.9785 25.5215 16.9785 28.4531V33.3848C16.9785 36.481 19.4976 39 22.5938 39H30.4062C33.5024 39 36.0215 36.481 36.0215 33.3848V28.4531C36.0215 28.0391 35.9761 27.6294 35.8872 27.2314C35.8667 27.2324 35.8467 27.2324 35.8262 27.2324ZM23.5703 30.8945C23.5703 31.299 23.2424 31.627 22.8379 31.627C22.4334 31.627 22.1055 31.299 22.1055 30.8945V29.4297C22.1055 29.0252 22.4334 28.6973 22.8379 28.6973C23.2424 28.6973 23.5703 29.0252 23.5703 29.4297V30.8945ZM27.9648 34.5566H25.0352C24.6307 34.5566 24.3027 34.2287 24.3027 33.8242C24.3027 33.4197 24.6307 33.0918 25.0352 33.0918H27.9648C28.3693 33.0918 28.6973 33.4197 28.6973 33.8242C28.6973 34.2287 28.3693 34.5566 27.9648 34.5566ZM30.8945 30.8945C30.8945 31.299 30.5666 31.627 30.1621 31.627C29.7576 31.627 29.4297 31.299 29.4297 30.8945V29.4297C29.4297 29.0252 29.7576 28.6973 30.1621 28.6973C30.5666 28.6973 30.8945 29.0252 30.8945 29.4297V30.8945ZM16.9785 22.7119C17.8311 22.4097 18.4434 21.5952 18.4434 20.6406C18.4434 19.4292 17.4575 18.4434 16.2461 18.4434C15.0347 18.4434 14.0488 19.4292 14.0488 20.6406C14.0488 21.5952 14.6611 22.4097 15.5137 22.7119C15.5137 24.0596 15.5137 25.0649 15.5132 25.8164L16.0918 25.6509C16.3243 25.1145 16.6222 24.6089 16.9785 24.1455V22.7119Z" fill="#1C63FF"/>
<path d="M35.8262 14H26.7441C24.9941 14 23.5703 15.4238 23.5703 17.1738V26.5C23.5704 26.6942 23.6475 26.8805 23.7849 27.0179C23.9223 27.1552 24.1085 27.2324 24.3028 27.2324C24.4147 27.2324 24.527 27.2068 24.6303 27.1551L27.4053 25.7676H35.8262C37.5762 25.7676 39 24.3438 39 22.5938V17.1738C39 15.4238 37.5762 14 35.8262 14ZM35.2891 22.1055H27.2812C26.8768 22.1055 26.5488 21.7775 26.5488 21.373C26.5488 20.9686 26.8768 20.6406 27.2812 20.6406H35.2891C35.6936 20.6406 36.0215 20.9686 36.0215 21.373C36.0215 21.7775 35.6936 22.1055 35.2891 22.1055ZM35.2891 19.1758H27.2812C26.8768 19.1758 26.5488 18.8479 26.5488 18.4434C26.5488 18.0389 26.8768 17.7109 27.2812 17.7109H35.2891C35.6936 17.7109 36.0215 18.0389 36.0215 18.4434C36.0215 18.8479 35.6936 19.1758 35.2891 19.1758Z" fill="#1C63FF"/>
</g>
</g>
<defs>
<clipPath id="clip0_1180_1156">
<rect width="52" height="52" fill="white"/>
</clipPath>
<clipPath id="clip1_1180_1156">
<rect width="25" height="25" fill="white" transform="translate(14 14)"/>
</clipPath>
</defs>
</svg>
