<svg width="52" height="52" viewBox="0 0 52 52" fill="none" xmlns="http://www.w3.org/2000/svg">
<g clip-path="url(#clip0_1180_1156)">
<path d="M42.5138 0.149414H9.34325C4.26509 0.149414 0.148438 4.26607 0.148438 9.34422V42.5148C0.148438 47.593 4.26509 51.7096 9.34325 51.7096H42.5138C47.592 51.7096 51.7086 47.593 51.7086 42.5148V9.34422C51.7086 4.26607 47.592 0.149414 42.5138 0.149414Z" fill="#1C63FF" fill-opacity="0.1"/>
<path d="M22.1758 28.0669H25.3555C25.4591 28.0669 25.5584 28.0257 25.6317 27.9525C25.7049 27.8792 25.7461 27.7799 25.7461 27.6763V26.3872H21.7852V27.6763C21.7852 27.7799 21.8263 27.8792 21.8996 27.9525C21.9728 28.0257 22.0722 28.0669 22.1758 28.0669ZM26.1793 35.2415H26.8352L26.5164 34.004L26.1793 35.2415Z" fill="#1C63FF"/>
<path d="M35.0938 31.2539V20.9828L34.9793 20.8684L29.3973 15.2863L29.2828 15.1719H19.4688C19.0543 15.1719 18.6569 15.3365 18.3639 15.6295C18.0709 15.9225 17.9062 16.32 17.9062 16.7344V29.9145C17.7878 29.9825 17.6894 30.0806 17.6209 30.1987C17.5523 30.3168 17.516 30.4509 17.5156 30.5875V36.2656C17.5162 36.7834 17.7222 37.2799 18.0884 37.646C18.4545 38.0122 18.9509 38.2181 19.4688 38.2188H33.5312C34.0491 38.2181 34.5455 38.0122 34.9116 37.646C35.2778 37.2799 35.4838 36.7834 35.4844 36.2656V31.927C35.4841 31.7903 35.4479 31.6562 35.3793 31.5381C35.3107 31.4199 35.2122 31.3219 35.0938 31.2539ZM24.1109 36.6102L23.4766 35.232H23.0008V36.6102H22.2559V33.1227H23.652C23.811 33.1207 23.9693 33.1444 24.1207 33.193C24.2532 33.2355 24.375 33.3058 24.4781 33.3992C24.5788 33.494 24.6571 33.6101 24.707 33.7391C24.7642 33.8894 24.7919 34.0493 24.7887 34.2102C24.7932 34.4009 24.7387 34.5884 24.6324 34.7469C24.5232 34.902 24.3669 35.0179 24.1867 35.0773L24.9434 36.6102H24.1109ZM27.1867 36.6102L26.9992 35.8789H26.0102L25.8086 36.6102H25.059L26.0668 33.1227H26.9477L27.9414 36.6102H27.1867ZM30.8242 36.6102H30.25V36.3398C30.1437 36.4478 30.0158 36.5321 29.8746 36.5871C29.7314 36.6361 29.5807 36.6598 29.4293 36.657C29.2052 36.6635 28.983 36.6145 28.7824 36.5145C28.6091 36.4231 28.4599 36.2921 28.3469 36.132C28.2312 35.9654 28.1476 35.7786 28.1004 35.5813C28.048 35.3688 28.0218 35.1508 28.0223 34.932C28.0217 34.6947 28.0479 34.458 28.1004 34.2266C28.1464 34.0157 28.2317 33.8155 28.352 33.6363C28.47 33.4643 28.6287 33.3242 28.8141 33.2285C29.0325 33.121 29.2739 33.0685 29.5172 33.0758C29.7763 33.075 30.0307 33.1453 30.2527 33.2789C30.3706 33.3519 30.4726 33.4478 30.5527 33.5609C30.6485 33.7015 30.7227 33.8555 30.773 34.018L30.0793 34.2008C30.0233 34.064 29.9395 33.9403 29.8332 33.8375C29.7166 33.7467 29.5704 33.7024 29.423 33.7133C29.3602 33.7102 29.2974 33.7197 29.2383 33.7412C29.1792 33.7627 29.125 33.7959 29.0789 33.8387C28.9903 33.9258 28.9222 34.0314 28.8793 34.148C28.8322 34.2738 28.8015 34.4051 28.7879 34.5387C28.7749 34.6588 28.768 34.7795 28.7672 34.9004C28.7679 35.0197 28.7764 35.1388 28.7926 35.257C28.8089 35.3831 28.8423 35.5063 28.8918 35.6234C28.9377 35.733 29.009 35.8302 29.0996 35.907C29.1978 35.9853 29.321 36.0256 29.4465 36.0203C29.5333 36.024 29.6198 36.0093 29.7006 35.9774C29.7813 35.9454 29.8545 35.8968 29.9152 35.8348C30.0185 35.7294 30.0815 35.5912 30.0934 35.4441H29.4512V34.8059H30.8242V36.6102ZM34.3125 31.1457H25.7523L24.8148 30.0727C24.7415 29.9889 24.6511 29.9218 24.5497 29.8759C24.4483 29.83 24.3383 29.8062 24.227 29.8063H18.6875V16.7344C18.6875 16.5272 18.7698 16.3285 18.9163 16.1819C19.0628 16.0354 19.2615 15.9531 19.4688 15.9531H22.1434C22.0463 15.9604 21.9556 16.0039 21.8892 16.0751C21.8228 16.1463 21.7857 16.2398 21.7852 16.3371V16.5391C21.7852 16.6427 21.8263 16.742 21.8996 16.8153C21.9728 16.8885 22.0722 16.9297 22.1758 16.9297H23.2609V17.9145H22.1758C22.0722 17.9145 21.9728 17.9556 21.8996 18.0289C21.8263 18.1021 21.7852 18.2015 21.7852 18.3051V18.5086C21.7852 18.6122 21.8263 18.7116 21.8996 18.7848C21.9728 18.8581 22.0722 18.8992 22.1758 18.8992H23.2609V19.884H22.1758C22.0722 19.884 21.9728 19.9251 21.8996 19.9984C21.8263 20.0717 21.7852 20.171 21.7852 20.2746V20.4781C21.7852 20.5817 21.8263 20.6811 21.8996 20.7543C21.9728 20.8276 22.0722 20.8687 22.1758 20.8687H23.2609V21.8535H22.1758C22.0722 21.8535 21.9728 21.8947 21.8996 21.9679C21.8263 22.0412 21.7852 22.1405 21.7852 22.2441V22.4477C21.7852 22.5513 21.8263 22.6506 21.8996 22.7239C21.9728 22.7971 22.0722 22.8383 22.1758 22.8383H23.2609V23.823H22.1758C22.0722 23.823 21.9728 23.8642 21.8996 23.9375C21.8263 24.0107 21.7852 24.1101 21.7852 24.2137V24.4172C21.7852 24.5208 21.8263 24.6201 21.8996 24.6934C21.9728 24.7667 22.0722 24.8078 22.1758 24.8078H23.2609V25.402C23.2609 25.5056 23.3021 25.6049 23.3753 25.6782C23.4486 25.7514 23.548 25.7926 23.6516 25.7926H25.3555C25.4591 25.7926 25.5584 25.7514 25.6317 25.6782C25.7049 25.6049 25.7461 25.5056 25.7461 25.402V25.1984C25.7461 25.0948 25.7049 24.9955 25.6317 24.9222C25.5584 24.849 25.4591 24.8078 25.3555 24.8078H24.2703V23.8246H25.3555C25.4591 23.8246 25.5584 23.7835 25.6317 23.7102C25.7049 23.6369 25.7461 23.5376 25.7461 23.434V23.2305C25.7461 23.1269 25.7049 23.0275 25.6317 22.9543C25.5584 22.881 25.4591 22.8398 25.3555 22.8398H24.2703V21.8551H25.3555C25.4591 21.8551 25.5584 21.8139 25.6317 21.7407C25.7049 21.6674 25.7461 21.5681 25.7461 21.4645V21.2609C25.7461 21.1573 25.7049 21.058 25.6317 20.9847C25.5584 20.9115 25.4591 20.8703 25.3555 20.8703H24.2703V19.8855H25.3555C25.4591 19.8855 25.5584 19.8444 25.6317 19.7711C25.7049 19.6979 25.7461 19.5985 25.7461 19.4949V19.2914C25.7461 19.1878 25.7049 19.0884 25.6317 19.0152C25.5584 18.9419 25.4591 18.9008 25.3555 18.9008H24.2703V17.916H25.3555C25.4591 17.916 25.5584 17.8749 25.6317 17.8016C25.7049 17.7283 25.7461 17.629 25.7461 17.5254V17.3203C25.7461 17.2167 25.7049 17.1174 25.6317 17.0441C25.5584 16.9708 25.4591 16.9297 25.3555 16.9297H24.2703V15.9531H28.7305V19.9727C28.7305 20.3871 28.8951 20.7845 29.1881 21.0775C29.4811 21.3705 29.8786 21.5352 30.293 21.5352H34.3125V31.1457Z" fill="#1C63FF"/>
<path d="M23.915 33.8655C23.8002 33.7852 23.6609 33.7479 23.5213 33.7601H23.001V34.5948H23.4467C23.5186 34.5948 23.5904 34.5909 23.6619 34.5831C23.7287 34.5771 23.7939 34.5592 23.8545 34.5304C23.9093 34.5041 23.9561 34.4636 23.99 34.4132C24.0274 34.3494 24.0454 34.2761 24.0416 34.2023C24.0434 34.1335 24.0322 34.065 24.0088 34.0003C23.9896 33.9481 23.9573 33.9017 23.915 33.8655Z" fill="#1C63FF"/>
</g>
<defs>
<clipPath id="clip0_1180_1156">
<rect width="52" height="52" fill="white"/>
</clipPath>
</defs>
</svg>
