<svg width="17" height="14" viewBox="0 0 17 14" fill="none" xmlns="http://www.w3.org/2000/svg">
<path d="M16.3952 7.62054L10.4351 13.5806C10.3109 13.7049 10.1423 13.7747 9.96659 13.7747C9.79086 13.7747 9.62232 13.7049 9.49806 13.5806C9.3738 13.4564 9.30399 13.2878 9.30399 13.1121C9.30399 12.9364 9.3738 12.7678 9.49806 12.6436L14.3282 7.81424H1.35755C1.18191 7.81424 1.01347 7.74447 0.889276 7.62028C0.765084 7.49608 0.695312 7.32764 0.695312 7.15201C0.695312 6.97637 0.765084 6.80793 0.889276 6.68374C1.01347 6.55954 1.18191 6.48977 1.35755 6.48977H14.3282L9.49806 1.66043C9.3738 1.53617 9.30399 1.36763 9.30399 1.1919C9.30399 1.01617 9.3738 0.847631 9.49806 0.723369C9.62232 0.599107 9.79086 0.529297 9.96659 0.529297C10.1423 0.529297 10.3109 0.599107 10.4351 0.723369L16.3952 6.68348C16.4568 6.74498 16.5056 6.81802 16.539 6.89841C16.5723 6.9788 16.5895 7.06498 16.5895 7.15201C16.5895 7.23903 16.5723 7.32521 16.539 7.4056C16.5056 7.486 16.4568 7.55903 16.3952 7.62054Z" fill="#1C63FF"/>
</svg>
