<svg width="54" height="54" viewBox="0 0 54 54" fill="none" xmlns="http://www.w3.org/2000/svg">
<rect x="0.25" y="0.25" width="53.5" height="53.5" rx="26.75" fill="white"/>
<rect x="0.25" y="0.25" width="53.5" height="53.5" rx="26.75" stroke="#1C63FF" stroke-width="0.5"/>
<path d="M39.4282 17.2226V26.2136C39.4282 28.4389 38.4083 31.0219 36.557 33.4867C34.3995 36.3585 31.2215 38.8934 27.3664 40.8173L27 41L26.6336 40.8173C22.7785 38.8934 19.6005 36.3585 17.443 33.4867C15.5917 31.0219 14.5718 28.4389 14.5718 26.2136V17.2226L20.6183 13H33.3817L39.4282 17.2226Z" fill="#1C63FF"/>
<path d="M39.4282 17.2226V26.2136C39.4282 28.4389 38.4083 31.0219 36.557 33.4867C34.3995 36.3585 31.2215 38.8934 27.3664 40.8173L27 41V13H33.3817L39.4282 17.2226Z" fill="#1C63FF"/>
<path d="M32.3492 16.2814H21.6508L17.8532 18.9333V26.2136C17.8532 28.7156 20.3147 33.6049 27 37.3035C33.6853 33.6049 36.1468 28.7156 36.1468 26.2136V18.9333L32.3492 16.2814Z" fill="white"/>
<path d="M36.1468 18.9333V26.2136C36.1468 28.7156 33.6853 33.6049 27 37.3035V16.2814H32.3492L36.1468 18.9333Z" fill="white"/>
<path d="M32.6073 15.461H21.3927L17.0328 18.5056V26.2136C17.0328 27.8138 17.8433 29.8471 19.2559 31.7919C20.9759 34.16 23.5163 36.3142 26.603 38.0216L27 38.2415L27.397 38.0216C30.4837 36.3142 33.0241 34.16 34.7441 31.7919C36.1567 29.8471 36.9672 27.8138 36.9672 26.2136V18.5056L32.6073 15.461ZM35.3265 26.2136C35.3265 28.3962 33.1001 32.8529 27 36.3618C20.8999 32.8529 18.6735 28.3962 18.6735 26.2136V19.3609L21.9089 17.1017H32.0911L35.3265 19.3609V26.2136Z" fill="#BFD3FF"/>
<path d="M36.9672 18.5056V26.2136C36.9672 27.8138 36.1567 29.8471 34.7441 31.7919C33.0241 34.16 30.4837 36.3142 27.397 38.0216L27 38.2415V36.3618C33.1001 32.8529 35.3265 28.3962 35.3265 26.2136V19.3609L32.0911 17.1017H27V15.461H32.6073L36.9672 18.5056Z" fill="#BFD3FF"/>
<path d="M32.2371 22.5291L27 27.9117L26.9891 27.9232L25.6574 29.2915L21.7629 25.6492L22.8835 24.4509L25.6027 26.9945L26.9891 25.5704L27 25.5589L31.0612 21.385L32.2371 22.5291Z" fill="#1C63FF"/>
<path d="M32.2371 22.5291L27 27.9117V25.5589L31.0613 21.385L32.2371 22.5291Z" fill="#1C63FF"/>
</svg>
