<svg width="43" height="43" viewBox="0 0 43 43" fill="none" xmlns="http://www.w3.org/2000/svg">
<rect x="0.5" y="0.511719" width="42" height="42" rx="11.4545" fill="#1167E8" fill-opacity="0.1"/>
<path fill-rule="evenodd" clip-rule="evenodd" d="M18.2949 16.8071C18.2949 15.8126 18.69 14.8587 19.3933 14.1555C20.0965 13.4522 21.0504 13.0571 22.0449 13.0571C23.0395 13.0571 23.9933 13.4522 24.6966 14.1555C25.3998 14.8587 25.7949 15.8126 25.7949 16.8071C25.7949 17.8017 25.3998 18.7555 24.6966 19.4588C23.9933 20.162 23.0395 20.5571 22.0449 20.5571C21.0504 20.5571 20.0965 20.162 19.3933 19.4588C18.69 18.7555 18.2949 17.8017 18.2949 16.8071ZM25.7949 19.8071C25.7949 19.0115 26.111 18.2484 26.6736 17.6858C27.2362 17.1232 27.9993 16.8071 28.7949 16.8071C29.5906 16.8071 30.3536 17.1232 30.9162 17.6858C31.4789 18.2484 31.7949 19.0115 31.7949 19.8071C31.7949 20.6028 31.4789 21.3658 30.9162 21.9284C30.3536 22.4911 29.5906 22.8071 28.7949 22.8071C27.9993 22.8071 27.2362 22.4911 26.6736 21.9284C26.111 21.3658 25.7949 20.6028 25.7949 19.8071ZM12.2949 19.8071C12.2949 19.0115 12.611 18.2484 13.1736 17.6858C13.7362 17.1232 14.4993 16.8071 15.2949 16.8071C16.0906 16.8071 16.8536 17.1232 17.4162 17.6858C17.9789 18.2484 18.2949 19.0115 18.2949 19.8071C18.2949 20.6028 17.9789 21.3658 17.4162 21.9284C16.8536 22.4911 16.0906 22.8071 15.2949 22.8071C14.4993 22.8071 13.7362 22.4911 13.1736 21.9284C12.611 21.3658 12.2949 20.6028 12.2949 19.8071ZM16.3549 25.1741C16.9649 24.2182 17.806 23.4314 18.8005 22.8866C19.7951 22.3418 20.9109 22.0565 22.0449 22.0571C22.9947 22.0563 23.934 22.256 24.8013 22.6433C25.6686 23.0306 26.4443 23.5967 27.0777 24.3045C27.711 25.0123 28.1877 25.8459 28.4766 26.7508C28.7654 27.6556 28.86 28.6112 28.7539 29.5551C28.741 29.6724 28.7005 29.7849 28.6359 29.8836C28.5712 29.9823 28.4842 30.0644 28.3819 30.1231C26.4535 31.2297 24.2683 31.8104 22.0449 31.8071C19.7399 31.8071 17.5749 31.1951 15.7079 30.1231C15.6056 30.0644 15.5186 29.9823 15.454 29.8836C15.3893 29.7849 15.3489 29.6724 15.3359 29.5551C15.168 28.0218 15.5274 26.4769 16.3549 25.1751V25.1741Z" fill="#1167E8"/>
<path d="M15.127 24.311C14.1408 25.8334 13.6813 27.6373 13.819 29.446C13.2185 29.355 12.6279 29.2077 12.055 29.006L11.94 28.966C11.8374 28.9296 11.7476 28.8642 11.6814 28.7778C11.6151 28.6914 11.5754 28.5876 11.567 28.479L11.557 28.358C11.5166 27.856 11.5778 27.351 11.7368 26.8731C11.8959 26.3952 12.1495 25.9542 12.4827 25.5765C12.8159 25.1988 13.2218 24.8921 13.6761 24.6747C14.1304 24.4573 14.6238 24.3336 15.127 24.311ZM30.271 29.446C30.4087 27.6373 29.9492 25.8334 28.963 24.311C29.4662 24.3336 29.9596 24.4573 30.4139 24.6747C30.8682 24.8921 31.2741 25.1988 31.6073 25.5765C31.9405 25.9542 32.1941 26.3952 32.3532 26.8731C32.5122 27.351 32.5734 27.856 32.533 28.358L32.523 28.479C32.5144 28.5874 32.4746 28.691 32.4084 28.7772C32.3422 28.8635 32.2525 28.9287 32.15 28.965L32.035 29.005C31.468 29.205 30.879 29.354 30.271 29.446Z" fill="#1167E8"/>
</svg>
