<svg width="43" height="43" viewBox="0 0 43 43" fill="none" xmlns="http://www.w3.org/2000/svg">
<rect x="0.5" y="0.825195" width="42" height="42" rx="11.4545" fill="#1167E8" fill-opacity="0.1"/>
<path fill-rule="evenodd" clip-rule="evenodd" d="M22.0449 11.8706C22.2438 11.8706 22.4346 11.9496 22.5753 12.0903C22.7159 12.2309 22.7949 12.4217 22.7949 12.6206V14.8706C22.7949 15.0695 22.7159 15.2603 22.5753 15.4009C22.4346 15.5416 22.2438 15.6206 22.0449 15.6206C21.846 15.6206 21.6552 15.5416 21.5146 15.4009C21.3739 15.2603 21.2949 15.0695 21.2949 14.8706V12.6206C21.2949 12.4217 21.3739 12.2309 21.5146 12.0903C21.6552 11.9496 21.846 11.8706 22.0449 11.8706ZM15.6809 14.5066C15.8215 14.3662 16.0122 14.2873 16.2109 14.2873C16.4097 14.2873 16.6003 14.3662 16.7409 14.5066L18.3329 16.0976C18.4695 16.2391 18.545 16.4286 18.5432 16.6253C18.5414 16.8219 18.4624 17.01 18.3233 17.149C18.1842 17.288 17.996 17.3667 17.7994 17.3684C17.6027 17.37 17.4133 17.2943 17.2719 17.1576L15.6809 15.5676C15.6112 15.498 15.5559 15.4153 15.5182 15.3242C15.4805 15.2332 15.4611 15.1356 15.4611 15.0371C15.4611 14.9386 15.4805 14.841 15.5182 14.75C15.5559 14.659 15.6112 14.5763 15.6809 14.5066ZM28.4089 14.5066C28.5494 14.6472 28.6283 14.8379 28.6283 15.0366C28.6283 15.2354 28.5494 15.426 28.4089 15.5666L26.8179 17.1586C26.6764 17.2952 26.4869 17.3707 26.2903 17.3689C26.0936 17.3671 25.9056 17.2881 25.7666 17.149C25.6276 17.0099 25.5488 16.8217 25.5472 16.6251C25.5455 16.4284 25.6212 16.239 25.7579 16.0976L27.3479 14.5066C27.4176 14.4369 27.5003 14.3816 27.5913 14.3439C27.6823 14.3062 27.7799 14.2868 27.8784 14.2868C27.977 14.2868 28.0745 14.3062 28.1655 14.3439C28.2566 14.3816 28.3393 14.4369 28.4089 14.5066ZM21.5929 19.0026C21.7449 18.9618 21.9059 18.9699 22.0531 19.0258C22.2003 19.0816 22.3262 19.1823 22.4129 19.3136L27.6409 27.2306C27.7227 27.3544 27.766 27.4998 27.7651 27.6482C27.7643 27.7966 27.7194 27.9415 27.6363 28.0644C27.5531 28.1873 27.4353 28.2828 27.2978 28.3387C27.1603 28.3946 27.0093 28.4085 26.8639 28.3786L24.7669 27.9486L25.8119 31.8486C25.8634 32.0409 25.8363 32.2457 25.7368 32.4181C25.6372 32.5904 25.4732 32.7162 25.2809 32.7676C25.0886 32.8191 24.8838 32.792 24.7114 32.6924C24.5391 32.5929 24.4134 32.4289 24.3619 32.2366L23.3179 28.3376L21.7169 29.7576C21.606 29.8563 21.4682 29.9198 21.3211 29.9401C21.1741 29.9604 21.0243 29.9366 20.8907 29.8717C20.7572 29.8068 20.6459 29.7037 20.571 29.5755C20.4961 29.4474 20.4609 29.2998 20.4699 29.1516L21.0389 19.6816C21.0482 19.5245 21.1067 19.3742 21.2062 19.2522C21.3056 19.1301 21.4409 19.0425 21.5929 19.0016V19.0026ZM13.0449 20.8706C13.0449 20.6717 13.1239 20.4809 13.2646 20.3403C13.4052 20.1996 13.596 20.1206 13.7949 20.1206H16.0449C16.2438 20.1206 16.4346 20.1996 16.5753 20.3403C16.7159 20.4809 16.7949 20.6717 16.7949 20.8706C16.7949 21.0695 16.7159 21.2603 16.5753 21.4009C16.4346 21.5416 16.2438 21.6206 16.0449 21.6206H13.7949C13.596 21.6206 13.4052 21.5416 13.2646 21.4009C13.1239 21.2603 13.0449 21.0695 13.0449 20.8706ZM27.2949 20.8706C27.2949 20.6717 27.3739 20.4809 27.5146 20.3403C27.6552 20.1996 27.846 20.1206 28.0449 20.1206H30.2949C30.4938 20.1206 30.6846 20.1996 30.8253 20.3403C30.9659 20.4809 31.0449 20.6717 31.0449 20.8706C31.0449 21.0695 30.9659 21.2603 30.8253 21.4009C30.6846 21.5416 30.4938 21.6206 30.2949 21.6206H28.0449C27.846 21.6206 27.6552 21.5416 27.5146 21.4009C27.3739 21.2603 27.2949 21.0695 27.2949 20.8706ZM18.3329 24.5826C18.4026 24.6523 18.4579 24.735 18.4956 24.826C18.5333 24.917 18.5528 25.0146 18.5528 25.1131C18.5528 25.2116 18.5333 25.3092 18.4956 25.4002C18.4579 25.4913 18.4026 25.574 18.3329 25.6436L16.7419 27.2346C16.6728 27.3063 16.59 27.3634 16.4986 27.4028C16.4071 27.4421 16.3087 27.4629 16.2091 27.4638C16.1095 27.4647 16.0107 27.4458 15.9185 27.4081C15.8264 27.3704 15.7426 27.3148 15.6721 27.2444C15.6017 27.174 15.546 27.0903 15.5082 26.9981C15.4704 26.906 15.4514 26.8072 15.4522 26.7077C15.4531 26.6081 15.4737 26.5097 15.513 26.4181C15.5522 26.3266 15.6093 26.2438 15.6809 26.1746L17.2719 24.5826C17.4125 24.4422 17.6032 24.3633 17.8019 24.3633C18.0007 24.3633 18.1913 24.4422 18.3319 24.5826H18.3329Z" fill="#1167E8"/>
</svg>
