<svg width="87" height="25" viewBox="0 0 87 25" fill="none" xmlns="http://www.w3.org/2000/svg">
<g clip-path="url(#clip0_291_2173)">
<path d="M12.3614 0.370957L19.7694 0.362793L7.34087 12.785L4.10176 16.0059L0.416382 12.316L12.3614 0.370957ZM12.2925 11.4625C12.3887 11.3355 12.5655 11.3981 12.6998 11.3818L19.7631 11.3836L13.3257 17.8146L9.62122 14.1329L12.2925 11.4625Z" fill="#5A5A5A"/>
<path d="M30.1815 5.55212L38.2571 5.55485L38.2562 7.14492C36.1436 7.14492 34.0302 7.13857 31.9167 7.14764C31.7553 7.20116 31.8314 7.40343 31.8133 7.5277L31.8197 11.8045C31.8732 11.965 32.0764 11.8879 32.2015 11.9079L37.6221 11.9052V13.4934C35.9368 13.4925 34.2524 13.4925 32.5671 13.4934C32.3167 13.4925 32.0637 13.4771 31.816 13.5197L31.797 19.5571C31.2536 19.5354 30.7112 19.5553 30.1679 19.5435L30.167 5.80882L30.1815 5.55212ZM40.2154 5.55485H41.8735L41.8744 15.0572L41.8563 19.5317C41.3166 19.5217 40.7769 19.519 40.2381 19.5335C40.1963 19.3122 40.2136 19.0873 40.2136 18.8641L40.2154 5.55485ZM56.4445 6.73312L58.1081 6.73402L58.1108 9.54591C58.9244 9.56586 59.7426 9.50962 60.5544 9.57403C60.5317 10.0784 60.5508 10.5827 60.5417 11.087C59.7326 11.0888 58.9244 11.0952 58.1162 11.0834L58.1099 16.6836C58.1271 17.2024 58.2378 17.8292 58.7421 18.0968C59.3181 18.4242 60.0256 18.27 60.5707 17.9543V19.5834C59.9702 19.8555 59.2854 19.8882 58.6405 19.8002C57.7316 19.6614 56.8608 19.0419 56.586 18.1412C56.4037 17.6478 56.4454 17.1153 56.4418 16.6001L56.4382 11.146L56.3973 11.0997C55.8232 11.0689 55.2472 11.1042 54.6721 11.0843C54.6757 10.5709 54.6522 10.0575 54.6848 9.545C55.269 9.53502 55.8558 9.5713 56.4391 9.52686L56.4445 6.73312ZM63.4724 6.72767C64.0257 6.74672 64.579 6.72132 65.1314 6.74037L65.1695 6.7821C65.1904 7.70548 65.1414 8.63159 65.1913 9.55316C65.9795 9.53865 66.7677 9.55044 67.5551 9.54591L67.5605 11.0752C66.7677 11.1051 65.9723 11.087 65.1795 11.0825L65.1704 16.7797C65.1695 17.2759 65.3128 17.8627 65.7927 18.1067C66.3813 18.4278 67.0952 18.2627 67.6422 17.9344L67.6403 19.5725C67.0571 19.8356 66.3995 19.8864 65.77 19.8138C64.9527 19.705 64.1527 19.2433 63.769 18.495C63.584 18.1031 63.4806 17.6695 63.4633 17.2369V11.0888C62.8892 11.0879 62.3159 11.0906 61.7426 11.0888L61.7463 9.54046C62.3114 9.55588 62.8765 9.53593 63.4416 9.55498C63.5014 8.61526 63.437 7.6692 63.4724 6.72767ZM71.5471 9.59852C72.6954 9.12231 74.0206 9.11324 75.1934 9.51235C76.5368 9.97585 77.5763 11.1478 77.9572 12.5075C78.2067 13.2612 78.1967 14.0622 78.1613 14.8459L70.2654 14.854C70.3307 15.6949 70.5819 16.552 71.1661 17.1833C71.996 18.1512 73.4247 18.5104 74.6311 18.1303C75.4773 17.8809 76.1377 17.2296 76.5722 16.4813C77.0529 16.6963 77.52 16.9412 77.999 17.1616C77.3441 18.4097 76.1531 19.4011 74.7535 19.6696C73.6043 19.8846 72.3471 19.89 71.2931 19.3222C69.9252 18.6428 68.9837 17.2595 68.7152 15.772C68.5202 14.6291 68.581 13.42 69.0109 12.3351C69.4617 11.1441 70.3733 10.1128 71.5471 9.59852ZM72.172 11.0326C71.206 11.4789 70.5838 12.4703 70.3896 13.4934L76.4452 13.4744C76.349 12.8059 76.1114 12.1265 75.6216 11.643C74.7635 10.7233 73.2968 10.5437 72.172 11.0326ZM81.756 11.1641C82.3882 9.62845 84.3302 8.82207 85.8659 9.46518V11.2575C85.221 11.0036 84.498 10.8466 83.8168 11.0471C82.8862 11.3237 82.1977 12.1537 81.9338 13.0671C81.7524 13.6839 81.8204 14.3279 81.8277 14.9601C81.7569 15.7783 81.863 16.5974 81.8095 17.4156C81.8531 18.1222 81.7714 18.8288 81.8313 19.5363C81.2671 19.5635 80.7029 19.5344 80.1396 19.5535C80.107 17.421 80.1351 15.2876 80.126 13.1542L80.1387 9.56314C80.6675 9.57765 81.1973 9.56133 81.727 9.57403C81.7751 10.1037 81.668 10.6362 81.756 11.1641ZM44.2518 9.54319C44.8142 9.56677 45.3811 9.50962 45.9408 9.57312L45.9326 15.518C45.9272 16.2445 46.0306 17.0382 46.5331 17.6024C47.1816 18.3208 48.2801 18.4523 49.1672 18.1684C50.3527 17.7439 51.1799 16.4885 51.1319 15.2332L51.15 9.54319L52.8435 9.54681L52.8335 19.529C52.2965 19.5199 51.7604 19.529 51.2244 19.5227L51.218 18.1022C50.8706 18.5385 50.506 18.9802 50.008 19.2551C48.9885 19.8982 47.695 19.9834 46.553 19.6542C45.8165 19.4319 45.1752 18.9158 44.806 18.241C44.3679 17.499 44.2573 16.6219 44.2319 15.7765L44.2518 9.54319Z" fill="#5A5A5A"/>
<path d="M5.92865 17.821L9.62129 14.1329L13.3257 17.8146L13.3411 17.831L9.6222 21.5154L5.92865 17.821Z" fill="#5A5A5A"/>
<path d="M9.62207 21.5155L13.341 17.831L19.7657 24.262C17.3457 24.2675 14.9266 24.2602 12.5074 24.2657C12.3696 24.2965 12.2843 24.1704 12.1963 24.0924L9.62207 21.5155Z" fill="#5A5A5A"/>
</g>
<defs>
<clipPath id="clip0_291_2173">
<rect width="86.4428" height="24.672" fill="white"/>
</clipPath>
</defs>
</svg>
