<svg width="54" height="42" viewBox="0 0 54 42" fill="none" xmlns="http://www.w3.org/2000/svg">
<g clip-path="url(#clip0_4913_515)">
<path d="M5.51396 31.0096C5.28595 31.0096 5.09595 30.8196 5.09595 30.5916V26.1455C5.09595 25.9175 5.28595 25.7275 5.51396 25.7275C5.74196 25.7275 5.93196 25.9175 5.93196 26.1455V30.5916C5.89396 30.8196 5.74196 31.0096 5.51396 31.0096Z" fill="white"/>
<path d="M5.51371 24.5842C5.28571 24.5842 5.0957 24.3942 5.0957 24.1662V14.6661C5.0957 14.438 5.28571 14.248 5.51371 14.248H32.5322C32.7602 14.248 32.9502 14.438 32.9502 14.6661V24.0522C32.9502 24.2802 32.7602 24.4702 32.5322 24.4702C32.3042 24.4702 32.1142 24.2802 32.1142 24.0522V15.0841H5.89372V24.1662C5.89372 24.3942 5.74172 24.5842 5.51371 24.5842Z" fill="white"/>
<path d="M32.4925 31.0096C32.2645 31.0096 32.0745 30.8196 32.0745 30.5916V26.1455C32.0745 25.9175 32.2645 25.7275 32.4925 25.7275C32.7205 25.7275 32.9105 25.9175 32.9105 26.1455V30.5916C32.9105 30.8196 32.7205 31.0096 32.4925 31.0096Z" fill="white"/>
<path d="M32.493 38.0006H23.5628C23.3348 38.0006 23.1448 37.8105 23.1448 37.5825V32.5664C23.1448 32.3384 23.3348 32.1484 23.5628 32.1484C23.7908 32.1484 23.9808 32.3384 23.9808 32.5664V37.2025H32.1129V32.5664C32.1129 32.3384 32.303 32.1484 32.531 32.1484C32.759 32.1484 32.949 32.3384 32.949 32.5664V37.5825C32.911 37.8105 32.721 38.0006 32.493 38.0006Z" fill="white"/>
<path d="M23.5628 31.0096C23.3348 31.0096 23.1448 30.8196 23.1448 30.5916V26.1455C23.1448 25.9175 23.3348 25.7275 23.5628 25.7275C23.7908 25.7275 23.9808 25.9175 23.9808 26.1455V30.5916C23.9808 30.8196 23.7908 31.0096 23.5628 31.0096Z" fill="white"/>
<path d="M14.4439 38.0004H5.51371C5.28571 38.0004 5.0957 37.8104 5.0957 37.5824V32.7183C5.0957 32.4903 5.28571 32.3003 5.51371 32.3003C5.74172 32.3003 5.93172 32.4903 5.93172 32.7183V37.2024H14.0639V23.5601C14.0639 20.8241 16.3059 18.582 19.042 18.582C21.778 18.582 23.9821 20.8241 23.9821 23.5601V24.1681C23.9821 24.3961 23.7921 24.5861 23.5641 24.5861C23.3361 24.5861 23.146 24.3961 23.146 24.1681V23.5601C23.146 21.2801 21.284 19.418 19.004 19.418C16.7239 19.418 14.8619 21.2801 14.8619 23.5601V37.5824C14.8619 37.8104 14.6719 38.0004 14.4439 38.0004Z" fill="white"/>
<path d="M32.4936 15.0843C32.4176 15.0843 32.3036 15.0463 32.2276 15.0083C32.0376 14.8562 32.0376 14.5902 32.1516 14.4382L34.0136 12.1202H3.95503L5.81706 14.4382C5.96907 14.6282 5.93106 14.8942 5.74106 15.0083C5.55106 15.1603 5.28505 15.1223 5.17105 14.9322L2.777 11.9302C2.663 11.8162 2.663 11.6262 2.739 11.5122C2.815 11.3602 2.96701 11.2842 3.11901 11.2842H34.8876C35.0396 11.2842 35.1916 11.3602 35.2676 11.5122C35.3436 11.6642 35.3056 11.8162 35.2296 11.9302L32.8356 14.9322C32.7596 15.0463 32.6456 15.0843 32.4936 15.0843Z" fill="white"/>
<path d="M32.4915 12.0854C32.2635 12.0854 32.0734 11.8954 32.0734 11.6673V8.74129H5.89095V11.6673C5.89095 11.8954 5.70094 12.0854 5.47294 12.0854C5.24494 12.0854 5.05493 11.8954 5.05493 11.6673V8.32328C5.05493 8.09528 5.24494 7.90527 5.47294 7.90527H32.4915C32.7195 7.90527 32.9095 8.09528 32.9095 8.32328V11.6673C32.9095 11.9334 32.7195 12.0854 32.4915 12.0854Z" fill="white"/>
<path d="M28.2751 8.74002C28.0471 8.74002 27.8571 8.55002 27.8571 8.32202V4.25594H10.1488V8.36002C10.1488 8.58802 9.95876 8.77803 9.73075 8.77803C9.50275 8.77803 9.31274 8.58802 9.31274 8.36002V3.83793C9.31274 3.60993 9.50275 3.41992 9.73075 3.41992H28.2751C28.5031 3.41992 28.6931 3.60993 28.6931 3.83793V8.32202C28.6931 8.55002 28.5031 8.74002 28.2751 8.74002Z" fill="white"/>
<path d="M24.0964 4.25413C23.8684 4.25413 23.6784 4.06413 23.6784 3.83612C23.6784 2.16409 21.5884 0.834063 18.9663 0.834063C16.3823 0.834063 14.2542 2.16409 14.2542 3.83612C14.2542 4.06413 14.0642 4.25413 13.8362 4.25413C13.6082 4.25413 13.4182 4.06413 13.4182 3.83612C13.4942 1.70808 15.9643 -0.00195312 19.0043 -0.00195312C22.0444 -0.00195312 24.5144 1.70808 24.5144 3.83612C24.5144 4.06413 24.3244 4.25413 24.0964 4.25413Z" fill="white"/>
<path d="M14.4417 26.5612H5.51152C5.39751 26.5612 5.32151 26.5232 5.24551 26.4852L2.85147 24.5091C2.69946 24.3951 2.66146 24.2051 2.73746 24.0531C2.81347 23.9011 2.96547 23.7871 3.11747 23.7871H14.4417C14.6697 23.7871 14.8597 23.9771 14.8597 24.2051C14.8597 24.4331 14.6697 24.6231 14.4417 24.6231H4.25749L5.62552 25.7631H14.4417C14.6697 25.7631 14.8597 25.9532 14.8597 26.1812C14.8597 26.4092 14.6697 26.5612 14.4417 26.5612Z" fill="white"/>
<path d="M14.4417 32.983H5.51152C5.39751 32.983 5.32151 32.945 5.24551 32.9069L2.85147 30.9309C2.69946 30.7789 2.66146 30.5889 2.73746 30.4369C2.81347 30.2849 2.96547 30.1709 3.11747 30.1709H14.4417C14.6697 30.1709 14.8597 30.3609 14.8597 30.5889C14.8597 30.8169 14.6697 31.0069 14.4417 31.0069H4.25749L5.62552 32.1469H14.4417C14.6697 32.1469 14.8597 32.3369 14.8597 32.5649C14.8597 32.7929 14.6697 32.983 14.4417 32.983Z" fill="white"/>
<path d="M32.493 26.5601H23.5628C23.3348 26.5601 23.1448 26.3701 23.1448 26.1421V24.1661C23.1448 23.938 23.3348 23.748 23.5628 23.748H34.887C35.077 23.748 35.229 23.862 35.267 24.0141C35.343 24.1661 35.267 24.3561 35.153 24.4701L32.759 26.4461C32.683 26.5221 32.607 26.5601 32.493 26.5601ZM23.9808 25.7241H32.379L33.747 24.5841H23.9808V25.7241Z" fill="white"/>
<path d="M32.493 32.983H23.5628C23.3348 32.983 23.1448 32.7929 23.1448 32.5649V30.5889C23.1448 30.3609 23.3348 30.1709 23.5628 30.1709H34.887C35.077 30.1709 35.229 30.2849 35.267 30.4369C35.343 30.5889 35.267 30.7789 35.153 30.8929L32.759 32.8689C32.683 32.945 32.607 32.983 32.493 32.983ZM23.9808 32.1469H32.379L33.747 31.0069H23.9808V32.1469Z" fill="white"/>
<path d="M28.0446 21.3935C26.9426 21.3935 26.0686 20.5195 26.0686 19.4174C26.0686 18.3154 26.9426 17.4414 28.0446 17.4414C29.1467 17.4414 30.0207 18.3154 30.0207 19.4174C29.9827 20.5195 29.1087 21.3935 28.0446 21.3935ZM28.0446 18.2774C27.3986 18.2774 26.9046 18.8094 26.9046 19.4174C26.9046 20.0635 27.4366 20.5575 28.0446 20.5575C28.6907 20.5575 29.1847 20.0255 29.1847 19.4174C29.1847 18.7714 28.6527 18.2774 28.0446 18.2774Z" fill="white"/>
<path d="M10.0703 21.3935C8.96826 21.3935 8.09424 20.5195 8.09424 19.4174C8.09424 18.3154 8.96826 17.4414 10.0703 17.4414C11.1723 17.4414 12.0463 18.3154 12.0463 19.4174C12.0463 20.5195 11.1723 21.3935 10.0703 21.3935ZM10.0703 18.2774C9.42426 18.2774 8.93025 18.8094 8.93025 19.4174C8.93025 20.0635 9.46226 20.5575 10.0703 20.5575C10.7163 20.5575 11.2103 20.0255 11.2103 19.4174C11.2483 18.7714 10.7163 18.2774 10.0703 18.2774Z" fill="white"/>
</g>
<path d="M38.7905 39.2295V32.1519H39.7215V35.3059H43.2651V32.1519H44.2056V39.2295H43.2651V36.1609H39.7215V39.2295H38.7905ZM49.1585 39.3435C48.6582 39.3435 48.1895 39.2548 47.7525 39.0775C47.3155 38.8938 46.9323 38.6373 46.603 38.308C46.28 37.9786 46.0266 37.5923 45.8429 37.149C45.6593 36.6993 45.5674 36.2116 45.5674 35.6859C45.5674 35.1539 45.6593 34.6662 45.8429 34.2229C46.0266 33.7796 46.28 33.3932 46.603 33.0639C46.9323 32.7345 47.3123 32.4812 47.743 32.3039C48.18 32.1265 48.6518 32.0379 49.1585 32.0379C49.6652 32.0379 50.1339 32.1297 50.5645 32.3134C51.0015 32.4907 51.3816 32.744 51.7046 33.0734C52.0339 33.3964 52.2904 33.7796 52.4741 34.2229C52.6641 34.6662 52.7591 35.1539 52.7591 35.6859C52.7591 36.2116 52.6641 36.6993 52.4741 37.149C52.2904 37.5923 52.0339 37.9786 51.7046 38.308C51.3816 38.6373 51.0015 38.8938 50.5645 39.0775C50.1339 39.2548 49.6652 39.3435 49.1585 39.3435ZM49.1585 38.479C49.5512 38.479 49.909 38.4093 50.232 38.27C50.555 38.1243 50.8337 37.9248 51.068 37.6715C51.3087 37.4118 51.4924 37.1141 51.6191 36.7784C51.7521 36.4364 51.8186 36.0723 51.8186 35.6859C51.8186 35.2996 51.7521 34.9386 51.6191 34.6029C51.4924 34.2672 51.3087 33.9727 51.068 33.7194C50.8337 33.4597 50.555 33.2602 50.232 33.1209C49.909 32.9752 49.5512 32.9024 49.1585 32.9024C48.7722 32.9024 48.4175 32.9752 48.0945 33.1209C47.7715 33.2602 47.4896 33.4597 47.249 33.7194C47.0146 33.9727 46.831 34.2672 46.698 34.6029C46.565 34.9386 46.4985 35.2996 46.4985 35.6859C46.4985 36.0723 46.565 36.4364 46.698 36.7784C46.831 37.1141 47.0146 37.4118 47.249 37.6715C47.4896 37.9248 47.7715 38.1243 48.0945 38.27C48.4175 38.4093 48.7722 38.479 49.1585 38.479ZM51.068 40.0845L48.655 36.3984H49.681L52.1036 40.0845H51.068Z" fill="#FF4F4F"/>
<defs>
<clipPath id="clip0_4913_515">
<rect width="38.0007" height="38.0007" fill="white"/>
</clipPath>
</defs>
</svg>
