<svg width="69" height="31" viewBox="0 0 69 31" fill="none" xmlns="http://www.w3.org/2000/svg">
<path d="M12.6515 0.693916C11.8024 0.693916 11.0398 1.30451 10.7193 2.16602C10.6153 2.45877 10.5806 2.67624 10.5113 3.12791L8.26713 16.4187L5.30374 0.785923H0.46875L5.18243 21.203L5.1911 21.1946C5.19976 21.2365 5.20842 21.295 5.21709 21.3285C5.23441 21.3954 5.25174 21.4707 5.27774 21.5376C5.54635 22.3238 6.11823 22.9678 6.82008 23.1854C6.90676 23.2104 6.99339 23.2857 7.08001 23.2857H10.6413L13.648 7.17618L16.5161 23.2857H21.455L26.7146 0.785923H23.5606C22.3821 0.785923 21.5937 1.48852 21.2297 2.88534L18.6476 16.427L16.0828 0.668823L12.6602 0.685552" fill="white"/>
<path d="M29.55 5.65309C31.0316 5.65309 31.7508 6.34732 31.7508 7.77759V23.2096H27.1758V5.65309H29.55ZM31.4475 2.36595C31.4475 3.38639 30.5897 4.21445 29.5326 4.21445C28.4755 4.21445 27.6177 3.38639 27.6177 2.36595C27.6177 1.34551 28.4755 0.517456 29.5326 0.517456C30.5897 0.517456 31.4475 1.34551 31.4475 2.36595Z" fill="white"/>
<path d="M45.1272 23.2097C43.6109 23.1093 42.857 22.4151 42.857 21.0182V11.9932C42.7531 10.1698 42.3891 9.27485 40.3616 9.27485C38.334 9.27485 37.9701 10.1698 37.9354 11.9932V23.2097H33.291V12.8882C33.291 7.87803 35.2319 5.3855 40.4309 5.3855C45.6298 5.3855 47.5014 7.87803 47.4668 12.8882V23.2097H45.1272Z" fill="white"/>
<path d="M48.0375 30.2774H47.249V26.3964H48.1068C48.93 26.3964 49.2419 25.9615 49.2419 25.2338V5.71169H51.6161C53.0978 5.71169 53.817 6.40591 53.817 7.83617V25.9949C53.817 29.2821 51.6508 30.2774 48.0375 30.2774ZM53.2884 2.42455C53.2884 3.44498 52.4306 4.27304 51.3735 4.27304C50.3164 4.27304 49.4586 3.44498 49.4586 2.42455C49.4586 1.40411 50.3164 0.57605 51.3735 0.57605C52.4306 0.57605 53.2884 1.40411 53.2884 2.42455Z" fill="white"/>
<path d="M57.7453 5.66286C59.2269 5.66286 59.9461 6.35712 59.9461 7.78739V23.2194H55.3711V5.66286H57.7453ZM59.5736 2.37572C59.5736 3.39615 58.7157 4.22421 57.6586 4.22421C56.6015 4.22421 55.7436 3.39615 55.7436 2.37572C55.7436 1.35528 56.6015 0.527222 57.6586 0.527222C58.7157 0.527222 59.5736 1.35528 59.5736 2.37572Z" fill="white"/>
<path d="M66.5442 8.92413H66.0587V18.6517C66.0587 19.3794 66.5095 19.7809 67.4016 19.7809H68.8142V23.2269C67.2543 23.2269 65.764 23.2269 63.9967 23.2269C62.2725 23.2269 61.4575 22.332 61.4923 20.3747V0.76062H63.8665C65.071 0.76062 66.0675 1.82288 66.0675 2.98551V5.7708H68.823V6.73271C68.8142 7.99567 67.8177 8.92413 66.5442 8.92413ZM68.8142 23.135C67.3327 23.2688 65.7988 23.2269 63.9967 23.2269L68.8142 23.135Z" fill="white"/>
</svg>
