<svg width="156" height="40" viewBox="0 0 156 40" fill="none" xmlns="http://www.w3.org/2000/svg">
<path fill-rule="evenodd" clip-rule="evenodd" d="M12.3972 23.4658C13.175 22.5462 13.7449 21.5007 14.3305 20.4671C15.5418 18.3274 16.6522 16.1222 18.2172 14.2064C19.3477 12.8224 20.58 11.5577 22.417 11.109C24.4523 10.6122 26.0205 11.419 26.7641 13.3784C27.1947 14.512 27.3349 15.7003 27.3722 16.8983C27.4404 19.0701 27.4658 21.2434 27.5283 23.4157C27.5581 24.462 27.7255 25.4903 28.1774 26.447C28.5316 27.196 29.0677 27.4322 29.8707 27.2187C30.6727 27.005 31.2962 26.5236 31.7996 25.8773C33.1584 24.1352 33.7941 22.0915 34.2355 19.9745C34.8484 17.0326 34.7515 14.1139 33.4009 11.3998C31.2554 7.08782 27.7369 4.45966 22.9741 3.70364C17.928 2.90281 13.357 4.14347 9.48682 7.51485C6.48926 10.1258 4.52084 13.4022 3.95008 17.3901C2.87015 24.9345 6.35148 31.0202 12.555 34.5444C16.3369 36.6932 20.4978 37.0292 24.729 35.8345C25.7524 35.5457 26.7656 35.2275 27.7449 34.8078C29.0721 34.2392 30.2381 33.4333 31.1273 32.2951C32.0421 31.1229 33.2198 30.6437 34.6678 30.7128C35.2218 30.7396 35.7764 30.7585 36.3304 30.763C36.6526 30.7658 36.7387 30.8886 36.5757 31.1626C36.3499 31.5424 36.1408 31.9378 35.8734 32.2876C32.7822 36.3379 28.6491 38.7351 23.6919 39.6179C15.5888 41.0612 8.97634 38.3969 3.93705 31.9447C1.60696 28.9612 0.438053 25.4832 0.0876452 21.6983C-0.854061 11.5274 5.88273 2.64314 15.9668 0.466512C21.442 -0.715424 26.6497 0.348384 31.2578 3.65948C38.8065 9.08362 39.3463 17.7504 36.481 24.3057C35.6568 26.1927 34.5656 27.9041 32.9409 29.2247C31.8718 30.0942 30.6789 30.6806 29.3099 30.9164C27.8381 31.1694 26.6932 30.6974 25.8743 29.453C24.9975 28.1224 24.7104 26.5983 24.4517 25.0648C24.0487 22.6778 24.045 20.2543 23.7899 17.8533C23.6983 16.9935 23.5967 16.1331 23.264 15.3263C22.9525 14.5698 22.4916 14.4135 21.7926 14.8379C20.941 15.3545 20.3194 16.1174 19.7588 16.9162C17.5798 20.0209 15.6283 23.2668 13.8109 26.5947C13.0995 27.897 12.3647 29.1865 11.6663 30.4956C11.5228 30.765 11.3482 30.8124 11.0856 30.8109C10.4204 30.8067 9.75797 30.789 9.0938 30.7307C8.73302 30.6989 8.65596 30.5896 8.69283 30.2434C8.92379 28.0628 9.17241 25.8831 9.34154 23.6976C9.56057 20.8696 9.76039 18.0355 9.41264 15.2024C9.35081 14.7014 9.1755 14.2141 9.0503 13.7213C8.99334 13.4983 8.93505 13.2826 9.23246 13.175C10.1521 12.8425 11.0713 12.527 12.0772 12.6239C12.4822 12.6632 12.7025 12.8036 12.7785 13.2492C13.1132 15.2159 13.0061 17.1867 12.8266 19.1494C12.6964 20.5793 12.6522 22.0215 12.3972 23.4658Z" fill="#65BC7B"/>
<mask id="path-2-outside-1_9_23" maskUnits="userSpaceOnUse" x="45.96" y="6.3999" width="110" height="27" fill="black">
<rect fill="white" x="45.96" y="6.3999" width="110" height="27"/>
<path d="M49.368 12.7759V14.7639C50.5253 13.0652 52.1213 12.2159 54.156 12.2159C55.892 12.2159 57.068 12.7012 57.684 13.6719C58.02 14.2132 58.272 14.7172 58.44 15.1839C58.552 15.5012 58.636 16.0519 58.692 16.8359L58.72 17.1999V26.9999H56.312L56.284 17.1719C56.2653 16.7239 56.2093 16.3599 56.116 16.0799C56.0226 15.7812 55.864 15.4079 55.64 14.9599C55.304 14.2879 54.548 13.9519 53.372 13.9519C53.1666 13.9519 52.9613 13.9612 52.756 13.9799C52.5693 13.9986 52.392 14.0452 52.224 14.1199C51.1973 14.3626 50.4413 15.0346 49.956 16.1359C49.564 17.0132 49.368 18.0492 49.368 19.2439V26.9999H46.96V12.7759H49.368Z"/>
<path d="M75.0033 22.8839L74.7793 23.7239C74.7046 24.0412 74.5926 24.3306 74.4433 24.5919C74.0699 25.3199 73.4633 25.9826 72.6233 26.5799C71.6339 27.3079 70.4019 27.6252 68.9273 27.5319L67.5553 27.4479C67.3873 27.4292 67.0793 27.3639 66.6313 27.2519C66.1833 27.1399 65.8099 27.0186 65.5113 26.8879C63.7753 26.1412 62.6553 24.7599 62.1513 22.7439C61.9646 22.0159 61.8713 21.0826 61.8713 19.9439C61.8713 17.5732 62.4033 15.7252 63.4673 14.3999C64.6246 12.9439 66.3606 12.2159 68.6753 12.2159C71.1579 12.2159 72.8379 12.9812 73.7153 14.5119C74.1819 15.3332 74.5366 16.2199 74.7793 17.1719C75.0219 18.1052 75.1433 19.1972 75.1433 20.4479H64.4193L64.5033 21.4559L64.7553 22.5759C64.9233 23.2852 65.3526 24.0226 66.0433 24.7879C66.6779 25.4786 67.6113 25.8239 68.8433 25.8239C69.8139 25.8239 70.6539 25.5719 71.3633 25.0679C72.0726 24.5452 72.5206 23.8172 72.7073 22.8839H75.0033ZM72.5953 18.7119L72.5113 17.8159C72.5113 17.7039 72.4926 17.5172 72.4553 17.2559C72.4179 17.1439 72.3713 16.9946 72.3153 16.8079C72.1286 16.1359 71.7646 15.4919 71.2233 14.8759C70.6819 14.2599 69.8513 13.9519 68.7313 13.9519C67.5553 13.9519 66.5939 14.2879 65.8473 14.9599C65.1193 15.6319 64.6619 16.5559 64.4753 17.7319C64.4753 17.9186 64.4566 18.0866 64.4193 18.2359V18.7119H72.5953Z"/>
<path d="M79.1366 12.7759V8.5199H81.5726V12.7759H84.5406V14.5119H81.5726V23.8079C81.5726 24.4239 81.6659 24.8626 81.8526 25.1239C82.0392 25.3852 82.4312 25.5159 83.0286 25.5159H83.2806L83.5606 25.4879L84.0646 25.4039L84.5406 25.2639V26.9999L84.2046 27.0839L83.8966 27.2239L82.8886 27.4479L81.9926 27.5319C81.0032 27.5319 80.2939 27.3172 79.8646 26.8879C79.4539 26.3839 79.2299 25.8892 79.1926 25.4039L79.1366 24.7599V14.5119H76.6446V12.7759H79.1366Z"/>
<path d="M89.4539 7.3999V14.7639C90.6859 13.0652 92.2819 12.2159 94.2419 12.2159C96.5192 12.2159 97.9659 13.2519 98.5819 15.3239L98.7499 16.5279L98.8059 17.5359V26.9999H96.3699L96.2859 16.4719C96.1179 14.7919 95.1752 13.9519 93.4579 13.9519L92.6459 14.0359C91.6939 14.1292 90.8632 14.7359 90.1539 15.8559C89.6872 16.6026 89.4539 17.7319 89.4539 19.2439V26.9999H87.0459V7.3999H89.4539Z"/>
<path d="M108.762 12.2159C111.002 12.2159 112.729 12.9439 113.942 14.3999C115.062 15.7626 115.622 17.5826 115.622 19.8599C115.622 22.1372 115.053 23.9572 113.914 25.3199C112.701 26.7946 110.983 27.5319 108.762 27.5319C106.522 27.5319 104.805 26.7946 103.61 25.3199C102.49 23.9572 101.93 22.1372 101.93 19.8599C101.93 17.5452 102.481 15.7159 103.582 14.3719C104.777 12.9346 106.503 12.2159 108.762 12.2159ZM104.478 20.5319L104.562 21.2039C104.954 24.2839 106.354 25.8239 108.762 25.8239C110.218 25.8239 111.254 25.3479 111.87 24.3959C112.523 23.3692 112.897 22.3052 112.99 21.2039L113.046 20.5319L113.074 19.8599L113.018 18.5999C112.981 17.5359 112.607 16.4719 111.898 15.4079C111.263 14.4372 110.218 13.9519 108.762 13.9519C106.317 13.9519 104.907 15.5292 104.534 18.6839C104.534 18.9079 104.515 19.1132 104.478 19.2999V20.5319Z"/>
<path d="M126.549 13.9519C124.906 13.9519 123.609 14.3719 122.657 15.2119C121.947 15.8466 121.499 16.6959 121.313 17.7599C121.257 18.0959 121.219 18.4879 121.201 18.9359L121.173 19.6919V26.9999H118.765V12.7759H121.173V15.5199C121.546 14.5306 122.153 13.7466 122.993 13.1679C123.833 12.5892 124.785 12.2812 125.849 12.2439L126.549 12.2159V13.9519Z"/>
<path d="M131.234 12.7759V26.9999H128.826V12.7759H131.234ZM128.826 7.3999H131.234V9.9759H128.826V7.3999Z"/>
<path d="M135.984 12.7759V8.5199H138.42V12.7759H141.388V14.5119H138.42V23.8079C138.42 24.4239 138.514 24.8626 138.7 25.1239C138.887 25.3852 139.279 25.5159 139.876 25.5159H140.128L140.408 25.4879L140.912 25.4039L141.388 25.2639V26.9999L141.052 27.0839L140.744 27.2239L139.736 27.4479L138.84 27.5319C137.851 27.5319 137.142 27.3172 136.712 26.8879C136.302 26.3839 136.078 25.8892 136.04 25.4039L135.984 24.7599V14.5119H133.492V12.7759H135.984Z"/>
<path d="M144.426 30.3319L145.238 30.4159L145.63 30.4439C146.264 30.4812 146.768 30.2292 147.142 29.6879C147.328 29.4266 147.552 28.8759 147.814 28.0359L148.15 26.9999L142.102 12.7759H144.986L149.466 24.2839L153.162 12.7759H155.598L149.858 29.2399C149.578 29.9866 149.195 30.6866 148.71 31.3399C148.243 31.9932 147.468 32.3012 146.386 32.2639L145.322 32.2359C144.911 32.2172 144.612 32.1799 144.426 32.1239V30.3319Z"/>
</mask>
<path d="M49.368 12.7759V14.7639C50.5253 13.0652 52.1213 12.2159 54.156 12.2159C55.892 12.2159 57.068 12.7012 57.684 13.6719C58.02 14.2132 58.272 14.7172 58.44 15.1839C58.552 15.5012 58.636 16.0519 58.692 16.8359L58.72 17.1999V26.9999H56.312L56.284 17.1719C56.2653 16.7239 56.2093 16.3599 56.116 16.0799C56.0226 15.7812 55.864 15.4079 55.64 14.9599C55.304 14.2879 54.548 13.9519 53.372 13.9519C53.1666 13.9519 52.9613 13.9612 52.756 13.9799C52.5693 13.9986 52.392 14.0452 52.224 14.1199C51.1973 14.3626 50.4413 15.0346 49.956 16.1359C49.564 17.0132 49.368 18.0492 49.368 19.2439V26.9999H46.96V12.7759H49.368Z" fill="#515050"/>
<path d="M75.0033 22.8839L74.7793 23.7239C74.7046 24.0412 74.5926 24.3306 74.4433 24.5919C74.0699 25.3199 73.4633 25.9826 72.6233 26.5799C71.6339 27.3079 70.4019 27.6252 68.9273 27.5319L67.5553 27.4479C67.3873 27.4292 67.0793 27.3639 66.6313 27.2519C66.1833 27.1399 65.8099 27.0186 65.5113 26.8879C63.7753 26.1412 62.6553 24.7599 62.1513 22.7439C61.9646 22.0159 61.8713 21.0826 61.8713 19.9439C61.8713 17.5732 62.4033 15.7252 63.4673 14.3999C64.6246 12.9439 66.3606 12.2159 68.6753 12.2159C71.1579 12.2159 72.8379 12.9812 73.7153 14.5119C74.1819 15.3332 74.5366 16.2199 74.7793 17.1719C75.0219 18.1052 75.1433 19.1972 75.1433 20.4479H64.4193L64.5033 21.4559L64.7553 22.5759C64.9233 23.2852 65.3526 24.0226 66.0433 24.7879C66.6779 25.4786 67.6113 25.8239 68.8433 25.8239C69.8139 25.8239 70.6539 25.5719 71.3633 25.0679C72.0726 24.5452 72.5206 23.8172 72.7073 22.8839H75.0033ZM72.5953 18.7119L72.5113 17.8159C72.5113 17.7039 72.4926 17.5172 72.4553 17.2559C72.4179 17.1439 72.3713 16.9946 72.3153 16.8079C72.1286 16.1359 71.7646 15.4919 71.2233 14.8759C70.6819 14.2599 69.8513 13.9519 68.7313 13.9519C67.5553 13.9519 66.5939 14.2879 65.8473 14.9599C65.1193 15.6319 64.6619 16.5559 64.4753 17.7319C64.4753 17.9186 64.4566 18.0866 64.4193 18.2359V18.7119H72.5953Z" fill="#515050"/>
<path d="M79.1366 12.7759V8.5199H81.5726V12.7759H84.5406V14.5119H81.5726V23.8079C81.5726 24.4239 81.6659 24.8626 81.8526 25.1239C82.0392 25.3852 82.4312 25.5159 83.0286 25.5159H83.2806L83.5606 25.4879L84.0646 25.4039L84.5406 25.2639V26.9999L84.2046 27.0839L83.8966 27.2239L82.8886 27.4479L81.9926 27.5319C81.0032 27.5319 80.2939 27.3172 79.8646 26.8879C79.4539 26.3839 79.2299 25.8892 79.1926 25.4039L79.1366 24.7599V14.5119H76.6446V12.7759H79.1366Z" fill="#515050"/>
<path d="M89.4539 7.3999V14.7639C90.6859 13.0652 92.2819 12.2159 94.2419 12.2159C96.5192 12.2159 97.9659 13.2519 98.5819 15.3239L98.7499 16.5279L98.8059 17.5359V26.9999H96.3699L96.2859 16.4719C96.1179 14.7919 95.1752 13.9519 93.4579 13.9519L92.6459 14.0359C91.6939 14.1292 90.8632 14.7359 90.1539 15.8559C89.6872 16.6026 89.4539 17.7319 89.4539 19.2439V26.9999H87.0459V7.3999H89.4539Z" fill="#515050"/>
<path d="M108.762 12.2159C111.002 12.2159 112.729 12.9439 113.942 14.3999C115.062 15.7626 115.622 17.5826 115.622 19.8599C115.622 22.1372 115.053 23.9572 113.914 25.3199C112.701 26.7946 110.983 27.5319 108.762 27.5319C106.522 27.5319 104.805 26.7946 103.61 25.3199C102.49 23.9572 101.93 22.1372 101.93 19.8599C101.93 17.5452 102.481 15.7159 103.582 14.3719C104.777 12.9346 106.503 12.2159 108.762 12.2159ZM104.478 20.5319L104.562 21.2039C104.954 24.2839 106.354 25.8239 108.762 25.8239C110.218 25.8239 111.254 25.3479 111.87 24.3959C112.523 23.3692 112.897 22.3052 112.99 21.2039L113.046 20.5319L113.074 19.8599L113.018 18.5999C112.981 17.5359 112.607 16.4719 111.898 15.4079C111.263 14.4372 110.218 13.9519 108.762 13.9519C106.317 13.9519 104.907 15.5292 104.534 18.6839C104.534 18.9079 104.515 19.1132 104.478 19.2999V20.5319Z" fill="#515050"/>
<path d="M126.549 13.9519C124.906 13.9519 123.609 14.3719 122.657 15.2119C121.947 15.8466 121.499 16.6959 121.313 17.7599C121.257 18.0959 121.219 18.4879 121.201 18.9359L121.173 19.6919V26.9999H118.765V12.7759H121.173V15.5199C121.546 14.5306 122.153 13.7466 122.993 13.1679C123.833 12.5892 124.785 12.2812 125.849 12.2439L126.549 12.2159V13.9519Z" fill="#515050"/>
<path d="M131.234 12.7759V26.9999H128.826V12.7759H131.234ZM128.826 7.3999H131.234V9.9759H128.826V7.3999Z" fill="#515050"/>
<path d="M135.984 12.7759V8.5199H138.42V12.7759H141.388V14.5119H138.42V23.8079C138.42 24.4239 138.514 24.8626 138.7 25.1239C138.887 25.3852 139.279 25.5159 139.876 25.5159H140.128L140.408 25.4879L140.912 25.4039L141.388 25.2639V26.9999L141.052 27.0839L140.744 27.2239L139.736 27.4479L138.84 27.5319C137.851 27.5319 137.142 27.3172 136.712 26.8879C136.302 26.3839 136.078 25.8892 136.04 25.4039L135.984 24.7599V14.5119H133.492V12.7759H135.984Z" fill="#515050"/>
<path d="M144.426 30.3319L145.238 30.4159L145.63 30.4439C146.264 30.4812 146.768 30.2292 147.142 29.6879C147.328 29.4266 147.552 28.8759 147.814 28.0359L148.15 26.9999L142.102 12.7759H144.986L149.466 24.2839L153.162 12.7759H155.598L149.858 29.2399C149.578 29.9866 149.195 30.6866 148.71 31.3399C148.243 31.9932 147.468 32.3012 146.386 32.2639L145.322 32.2359C144.911 32.2172 144.612 32.1799 144.426 32.1239V30.3319Z" fill="#515050"/>
<path d="M49.368 12.7759V14.7639C50.5253 13.0652 52.1213 12.2159 54.156 12.2159C55.892 12.2159 57.068 12.7012 57.684 13.6719C58.02 14.2132 58.272 14.7172 58.44 15.1839C58.552 15.5012 58.636 16.0519 58.692 16.8359L58.72 17.1999V26.9999H56.312L56.284 17.1719C56.2653 16.7239 56.2093 16.3599 56.116 16.0799C56.0226 15.7812 55.864 15.4079 55.64 14.9599C55.304 14.2879 54.548 13.9519 53.372 13.9519C53.1666 13.9519 52.9613 13.9612 52.756 13.9799C52.5693 13.9986 52.392 14.0452 52.224 14.1199C51.1973 14.3626 50.4413 15.0346 49.956 16.1359C49.564 17.0132 49.368 18.0492 49.368 19.2439V26.9999H46.96V12.7759H49.368Z" stroke="#515050" stroke-width="0.4" mask="url(#path-2-outside-1_9_23)"/>
<path d="M75.0033 22.8839L74.7793 23.7239C74.7046 24.0412 74.5926 24.3306 74.4433 24.5919C74.0699 25.3199 73.4633 25.9826 72.6233 26.5799C71.6339 27.3079 70.4019 27.6252 68.9273 27.5319L67.5553 27.4479C67.3873 27.4292 67.0793 27.3639 66.6313 27.2519C66.1833 27.1399 65.8099 27.0186 65.5113 26.8879C63.7753 26.1412 62.6553 24.7599 62.1513 22.7439C61.9646 22.0159 61.8713 21.0826 61.8713 19.9439C61.8713 17.5732 62.4033 15.7252 63.4673 14.3999C64.6246 12.9439 66.3606 12.2159 68.6753 12.2159C71.1579 12.2159 72.8379 12.9812 73.7153 14.5119C74.1819 15.3332 74.5366 16.2199 74.7793 17.1719C75.0219 18.1052 75.1433 19.1972 75.1433 20.4479H64.4193L64.5033 21.4559L64.7553 22.5759C64.9233 23.2852 65.3526 24.0226 66.0433 24.7879C66.6779 25.4786 67.6113 25.8239 68.8433 25.8239C69.8139 25.8239 70.6539 25.5719 71.3633 25.0679C72.0726 24.5452 72.5206 23.8172 72.7073 22.8839H75.0033ZM72.5953 18.7119L72.5113 17.8159C72.5113 17.7039 72.4926 17.5172 72.4553 17.2559C72.4179 17.1439 72.3713 16.9946 72.3153 16.8079C72.1286 16.1359 71.7646 15.4919 71.2233 14.8759C70.6819 14.2599 69.8513 13.9519 68.7313 13.9519C67.5553 13.9519 66.5939 14.2879 65.8473 14.9599C65.1193 15.6319 64.6619 16.5559 64.4753 17.7319C64.4753 17.9186 64.4566 18.0866 64.4193 18.2359V18.7119H72.5953Z" stroke="#515050" stroke-width="0.4" mask="url(#path-2-outside-1_9_23)"/>
<path d="M79.1366 12.7759V8.5199H81.5726V12.7759H84.5406V14.5119H81.5726V23.8079C81.5726 24.4239 81.6659 24.8626 81.8526 25.1239C82.0392 25.3852 82.4312 25.5159 83.0286 25.5159H83.2806L83.5606 25.4879L84.0646 25.4039L84.5406 25.2639V26.9999L84.2046 27.0839L83.8966 27.2239L82.8886 27.4479L81.9926 27.5319C81.0032 27.5319 80.2939 27.3172 79.8646 26.8879C79.4539 26.3839 79.2299 25.8892 79.1926 25.4039L79.1366 24.7599V14.5119H76.6446V12.7759H79.1366Z" stroke="#515050" stroke-width="0.4" mask="url(#path-2-outside-1_9_23)"/>
<path d="M89.4539 7.3999V14.7639C90.6859 13.0652 92.2819 12.2159 94.2419 12.2159C96.5192 12.2159 97.9659 13.2519 98.5819 15.3239L98.7499 16.5279L98.8059 17.5359V26.9999H96.3699L96.2859 16.4719C96.1179 14.7919 95.1752 13.9519 93.4579 13.9519L92.6459 14.0359C91.6939 14.1292 90.8632 14.7359 90.1539 15.8559C89.6872 16.6026 89.4539 17.7319 89.4539 19.2439V26.9999H87.0459V7.3999H89.4539Z" stroke="#515050" stroke-width="0.4" mask="url(#path-2-outside-1_9_23)"/>
<path d="M108.762 12.2159C111.002 12.2159 112.729 12.9439 113.942 14.3999C115.062 15.7626 115.622 17.5826 115.622 19.8599C115.622 22.1372 115.053 23.9572 113.914 25.3199C112.701 26.7946 110.983 27.5319 108.762 27.5319C106.522 27.5319 104.805 26.7946 103.61 25.3199C102.49 23.9572 101.93 22.1372 101.93 19.8599C101.93 17.5452 102.481 15.7159 103.582 14.3719C104.777 12.9346 106.503 12.2159 108.762 12.2159ZM104.478 20.5319L104.562 21.2039C104.954 24.2839 106.354 25.8239 108.762 25.8239C110.218 25.8239 111.254 25.3479 111.87 24.3959C112.523 23.3692 112.897 22.3052 112.99 21.2039L113.046 20.5319L113.074 19.8599L113.018 18.5999C112.981 17.5359 112.607 16.4719 111.898 15.4079C111.263 14.4372 110.218 13.9519 108.762 13.9519C106.317 13.9519 104.907 15.5292 104.534 18.6839C104.534 18.9079 104.515 19.1132 104.478 19.2999V20.5319Z" stroke="#515050" stroke-width="0.4" mask="url(#path-2-outside-1_9_23)"/>
<path d="M126.549 13.9519C124.906 13.9519 123.609 14.3719 122.657 15.2119C121.947 15.8466 121.499 16.6959 121.313 17.7599C121.257 18.0959 121.219 18.4879 121.201 18.9359L121.173 19.6919V26.9999H118.765V12.7759H121.173V15.5199C121.546 14.5306 122.153 13.7466 122.993 13.1679C123.833 12.5892 124.785 12.2812 125.849 12.2439L126.549 12.2159V13.9519Z" stroke="#515050" stroke-width="0.4" mask="url(#path-2-outside-1_9_23)"/>
<path d="M131.234 12.7759V26.9999H128.826V12.7759H131.234ZM128.826 7.3999H131.234V9.9759H128.826V7.3999Z" stroke="#515050" stroke-width="0.4" mask="url(#path-2-outside-1_9_23)"/>
<path d="M135.984 12.7759V8.5199H138.42V12.7759H141.388V14.5119H138.42V23.8079C138.42 24.4239 138.514 24.8626 138.7 25.1239C138.887 25.3852 139.279 25.5159 139.876 25.5159H140.128L140.408 25.4879L140.912 25.4039L141.388 25.2639V26.9999L141.052 27.0839L140.744 27.2239L139.736 27.4479L138.84 27.5319C137.851 27.5319 137.142 27.3172 136.712 26.8879C136.302 26.3839 136.078 25.8892 136.04 25.4039L135.984 24.7599V14.5119H133.492V12.7759H135.984Z" stroke="#515050" stroke-width="0.4" mask="url(#path-2-outside-1_9_23)"/>
<path d="M144.426 30.3319L145.238 30.4159L145.63 30.4439C146.264 30.4812 146.768 30.2292 147.142 29.6879C147.328 29.4266 147.552 28.8759 147.814 28.0359L148.15 26.9999L142.102 12.7759H144.986L149.466 24.2839L153.162 12.7759H155.598L149.858 29.2399C149.578 29.9866 149.195 30.6866 148.71 31.3399C148.243 31.9932 147.468 32.3012 146.386 32.2639L145.322 32.2359C144.911 32.2172 144.612 32.1799 144.426 32.1239V30.3319Z" stroke="#515050" stroke-width="0.4" mask="url(#path-2-outside-1_9_23)"/>
</svg>
