<svg xmlns="http://www.w3.org/2000/svg" width="64" height="64" viewBox="0 0 64 64" fill="none"><g clip-path="url(#clip0_21_6)"><path fill-rule="evenodd" clip-rule="evenodd" d="M19.5313 36.9696C20.7569 35.5207 21.6547 33.8736 22.5772 32.2453C24.4856 28.8742 26.235 25.4001 28.7006 22.3817C30.4817 20.2013 32.4231 18.2087 35.3173 17.5019C38.5239 16.7192 40.9944 17.9903 42.166 21.0772C42.8443 22.8631 43.0652 24.7353 43.124 26.6228C43.2315 30.0444 43.2715 33.4684 43.3699 36.8906C43.4169 38.5391 43.6806 40.1591 44.3926 41.6664C44.9506 42.8463 45.7952 43.2186 47.0604 42.8822C48.3238 42.5454 49.3062 41.7871 50.0993 40.7689C52.24 38.0243 53.2415 34.8045 53.9369 31.4692C54.9025 26.8343 54.7498 22.2359 52.622 17.96C49.2418 11.1666 43.6986 7.02605 36.1949 5.83497C28.2449 4.57328 21.0435 6.5279 14.9462 11.8394C10.2236 15.9529 7.12244 21.1148 6.22322 27.3975C4.52183 39.2835 10.0066 48.8713 19.7801 54.4235C25.7382 57.8089 32.2937 58.3383 38.9597 56.4561C40.5721 56.0011 42.1684 55.4998 43.7112 54.8385C45.8022 53.9428 47.6392 52.6731 49.04 50.8798C50.4812 49.0331 52.3367 48.2782 54.618 48.3871C55.4908 48.4292 56.3646 48.4591 57.2374 48.466C57.7449 48.4706 57.8806 48.664 57.6239 49.0957C57.268 49.694 56.9386 50.317 56.5173 50.868C51.6473 57.2492 45.1357 61.0259 37.3258 62.4167C24.5597 64.6906 14.1419 60.493 6.20269 50.3278C2.53171 45.6275 0.690138 40.148 0.138082 34.1849C-1.34555 18.1611 9.26804 4.16419 25.1552 0.734974C33.7811 -1.12713 41.9858 0.548867 49.2456 5.76539C61.1383 14.3109 61.9888 27.9652 57.4746 38.2928C56.1761 41.2657 54.4569 43.9619 51.8974 46.0425C50.213 47.4124 48.3335 48.3363 46.1768 48.7078C43.858 49.1064 42.0543 48.3627 40.7641 46.4022C39.3827 44.306 38.9305 41.9047 38.5228 39.4888C37.888 35.7281 37.8821 31.9099 37.4803 28.1273C37.3359 26.7727 37.1759 25.4171 36.6517 24.146C36.1608 22.9543 35.4348 22.708 34.3335 23.3766C32.9918 24.1906 32.0126 25.3924 31.1294 26.651C27.6963 31.5422 24.6219 36.6562 21.7587 41.8991C20.6379 43.9508 19.4802 45.9823 18.3799 48.0448C18.1538 48.4692 17.8787 48.544 17.465 48.5415C16.4169 48.5349 15.3734 48.5071 14.327 48.4153C13.7586 48.3652 13.6372 48.193 13.6953 47.6475C14.0591 44.212 14.4508 40.778 14.7173 37.3348C15.0624 32.8794 15.3772 28.4143 14.8293 23.9509C14.7319 23.1616 14.4557 22.3938 14.2585 21.6174C14.1687 21.2661 14.0769 20.9262 14.5454 20.7568C15.9943 20.2329 17.4424 19.7358 19.0273 19.8886C19.6653 19.9505 20.0124 20.1717 20.1321 20.8737C20.6594 23.9721 20.4907 27.0771 20.2079 30.1692C20.0027 32.422 19.9331 34.6942 19.5313 36.9696Z" fill="#65BC7B"></path></g><defs><clipPath id="clip0_21_6"><rect width="63.02" height="63.02" fill="white"></rect></clipPath></defs></svg>