<svg width="43" height="43" viewBox="0 0 43 43" fill="none" xmlns="http://www.w3.org/2000/svg">
<g clip-path="url(#clip0_1294_1039)">
<path d="M31.0455 0.825195H11.9545C5.62835 0.825195 0.5 5.95355 0.5 12.2797V31.3707C0.5 37.6968 5.62835 42.8252 11.9545 42.8252H31.0455C37.3716 42.8252 42.5 37.6968 42.5 31.3707V12.2797C42.5 5.95355 37.3716 0.825195 31.0455 0.825195Z" fill="#1167E8" fill-opacity="0.1"/>
<mask id="mask0_1294_1039" style="mask-type:luminance" maskUnits="userSpaceOnUse" x="11" y="11" width="22" height="22">
<path d="M33 11H11V33H33V11Z" fill="white"/>
</mask>
<g mask="url(#mask0_1294_1039)">
<path d="M19.9566 28.8192C19.3729 28.6531 18.8535 28.3136 18.467 27.8457C18.3976 27.7736 18.2997 27.672 18.2425 27.6224C18.1677 27.6067 18.0262 27.5914 17.9278 27.5807C17.3298 27.5603 16.752 27.3589 16.2709 27.0032C16.0166 26.7925 15.8088 26.5316 15.6602 26.2368L13.873 29.333C13.7865 29.4825 13.7442 29.6534 13.7506 29.826C13.7571 29.9985 13.8122 30.1658 13.9097 30.3084C14.0071 30.451 14.1428 30.5631 14.3012 30.632C14.4596 30.7007 14.6342 30.7234 14.8049 30.6973L16.4005 30.4547L16.9886 31.959C17.0509 32.1202 17.1577 32.2602 17.2966 32.3629C17.4356 32.4655 17.6009 32.5265 17.7732 32.5387C17.7969 32.5405 17.8206 32.5413 17.8443 32.5413C18.005 32.5417 18.163 32.4995 18.3021 32.419C18.4412 32.3385 18.5564 32.2226 18.6361 32.083L20.4902 28.8713C20.4765 28.8715 20.4637 28.8742 20.4498 28.8742C20.2838 28.8745 20.1184 28.856 19.9566 28.8192Z" fill="#1C63FF"/>
<path d="M28.3382 26.2368C28.1898 26.5318 27.9821 26.7931 27.728 27.0042C27.2468 27.3597 26.6691 27.561 26.0711 27.5817C25.9717 27.5924 25.8298 27.6076 25.7555 27.6233C25.6983 27.673 25.5993 27.7754 25.5309 27.847C25.1453 28.3136 24.6274 28.6524 24.0454 28.8187C23.882 28.8564 23.7148 28.8753 23.5471 28.8751C23.5339 28.8751 23.5219 28.8724 23.5088 28.8722L25.3625 32.0834C25.4422 32.223 25.5575 32.3389 25.6966 32.4194C25.8357 32.4999 25.9936 32.5421 26.1543 32.5417C26.178 32.5417 26.2018 32.5408 26.2255 32.539C26.3979 32.5268 26.5633 32.4658 26.7023 32.3631C26.8414 32.2604 26.9483 32.1202 27.0106 31.959L27.5982 30.4551L29.1932 30.6977C29.364 30.7239 29.5387 30.7014 29.6972 30.6326C29.8557 30.5639 29.9915 30.4517 30.089 30.3091C30.1864 30.1664 30.2417 29.9992 30.2481 29.8265C30.2547 29.6539 30.2122 29.483 30.1258 29.3334L28.3382 26.2368Z" fill="#1C63FF"/>
<path d="M21.9993 15.1245C21.0928 15.1245 20.2067 15.3933 19.4529 15.8969C18.6992 16.4006 18.1118 17.1164 17.7649 17.9539C17.418 18.7914 17.3272 19.713 17.5041 20.602C17.6809 21.4911 18.1174 22.3077 18.7584 22.9488C19.3994 23.5898 20.2161 24.0263 21.1051 24.2031C21.9942 24.38 22.9158 24.2892 23.7533 23.9423C24.5908 23.5954 25.3066 23.0079 25.8103 22.2542C26.3139 21.5005 26.5827 20.6143 26.5827 19.7079C26.5812 18.4927 26.0979 17.3278 25.2387 16.4685C24.3794 15.6093 23.2145 15.126 21.9993 15.1245ZM24.214 18.5871L22.3807 21.3371C22.3431 21.3935 22.2934 21.4408 22.2353 21.4757C22.1771 21.5105 22.112 21.5321 22.0445 21.5387C22.0293 21.5403 22.0141 21.5412 21.9993 21.5412C21.8778 21.5412 21.7612 21.4929 21.6753 21.4069L20.3003 20.0319C20.2168 19.9455 20.1706 19.8297 20.1717 19.7095C20.1727 19.5894 20.2209 19.4744 20.3059 19.3894C20.3908 19.3044 20.5058 19.2562 20.626 19.2552C20.7461 19.2541 20.8619 19.3003 20.9484 19.3838L21.9282 20.3636L23.4513 18.0786C23.5188 17.9776 23.6236 17.9075 23.7427 17.8837C23.8619 17.8599 23.9856 17.8844 24.0867 17.9518C24.1878 18.0192 24.2579 18.124 24.2818 18.2431C24.3057 18.3622 24.2813 18.4859 24.214 18.5871Z" fill="#1C63FF"/>
<path d="M23.8379 27.9254C24.2448 27.7938 24.6039 27.5454 24.8704 27.211C25.0071 27.0495 25.1677 26.9098 25.3467 26.797C25.547 26.7222 25.7579 26.6794 25.9715 26.6699C26.3922 26.6631 26.8015 26.5324 27.1482 26.2941C27.4532 25.9982 27.6672 25.6213 27.765 25.2078C27.8213 24.9967 27.9091 24.7952 28.0255 24.6103C28.1734 24.456 28.3441 24.3254 28.5317 24.2231C28.9102 24.0301 29.2243 23.7312 29.4359 23.3628C29.5835 22.967 29.6161 22.5375 29.5299 22.1239C29.4904 21.9039 29.4845 21.6792 29.5125 21.4574C29.5791 21.2556 29.6757 21.065 29.7993 20.8922C30.0596 20.5486 30.216 20.1377 30.25 19.7081C30.2158 19.2787 30.0596 18.8682 29.7998 18.5247C29.6759 18.3517 29.579 18.1609 29.5124 17.9589C29.4845 17.7373 29.4903 17.5127 29.5298 17.2929C29.6159 16.8794 29.5835 16.4499 29.4363 16.054C29.2246 15.686 28.9107 15.3873 28.5326 15.1942C28.3447 15.0916 28.1738 14.9607 28.0259 14.8061C27.9094 14.6212 27.8214 14.4197 27.765 14.2086C27.6674 13.7952 27.4536 13.4184 27.1486 13.1227C26.8019 12.8844 26.3926 12.7537 25.9719 12.7469C25.7583 12.7374 25.5474 12.6945 25.3471 12.6198C25.1683 12.5066 25.0077 12.367 24.8708 12.2057C24.6042 11.871 24.245 11.6222 23.8379 11.4902C23.4261 11.4319 23.0062 11.4959 22.6303 11.6742C22.4302 11.762 22.2175 11.8179 22 11.8399C21.7827 11.818 21.5702 11.7621 21.3702 11.6743C20.9944 11.4957 20.5742 11.4319 20.1622 11.491C19.7553 11.6225 19.3962 11.8708 19.1296 12.2052C18.9929 12.3667 18.8323 12.5063 18.6533 12.6192C18.453 12.694 18.2422 12.7368 18.0285 12.7463C17.6078 12.7531 17.1985 12.8838 16.8518 13.1221C16.5468 13.418 16.3328 13.7949 16.235 14.2084C16.1787 14.4195 16.0909 14.621 15.9745 14.8059C15.8266 14.9602 15.6559 15.0908 15.4683 15.1931C15.0898 15.3861 14.7757 15.685 14.5641 16.0533C14.4165 16.4492 14.3839 16.8787 14.4701 17.2923C14.5096 17.5123 14.5155 17.7369 14.4875 17.9587C14.4209 18.1606 14.3243 18.3512 14.2007 18.524C13.9404 18.8676 13.784 19.2785 13.75 19.7081C13.7842 20.1374 13.9404 20.548 14.2002 20.8915C14.3241 21.0645 14.421 21.2553 14.4876 21.4573C14.5156 21.6789 14.5097 21.9036 14.4702 22.1235C14.3841 22.5371 14.4165 22.9665 14.5637 23.3624C14.7754 23.7304 15.0893 24.0291 15.4674 24.2223C15.6553 24.3248 15.8262 24.4557 15.9741 24.6103C16.0906 24.7952 16.1786 24.9967 16.235 25.2079C16.3326 25.6212 16.5464 25.998 16.8514 26.2937C17.1981 26.532 17.6074 26.6628 18.0281 26.6695C18.2417 26.679 18.4526 26.7219 18.6529 26.7966C18.8317 26.9098 18.9923 27.0494 19.1292 27.2106C19.3958 27.5453 19.755 27.7941 20.1621 27.926C20.5739 27.9841 20.9938 27.9201 21.3697 27.742C21.5698 27.6542 21.7825 27.5983 22 27.5763C22.2173 27.5982 22.4298 27.654 22.6298 27.7419C22.9206 27.8671 23.2312 27.9403 23.5474 27.9581C23.6451 27.9584 23.7426 27.9474 23.8379 27.9254ZM22 25.2081C20.9122 25.2081 19.8488 24.8855 18.9444 24.2812C18.0399 23.6768 17.335 22.8178 16.9186 21.8129C16.5024 20.8079 16.3935 19.702 16.6057 18.6351C16.8179 17.5682 17.3417 16.5882 18.1109 15.819C18.8801 15.0498 19.8601 14.526 20.927 14.3137C21.9939 14.1016 23.0998 14.2105 24.1048 14.6267C25.1098 15.043 25.9687 15.748 26.5731 16.6525C27.1774 17.5569 27.5 18.6203 27.5 19.7081C27.4984 21.1663 26.9184 22.5643 25.8873 23.5954C24.8562 24.6265 23.4582 25.2065 22 25.2081Z" fill="#1C63FF"/>
</g>
</g>
<defs>
<clipPath id="clip0_1294_1039">
<rect width="43" height="43" fill="white"/>
</clipPath>
</defs>
</svg>
