<svg width="28" height="38" viewBox="0 0 28 38" fill="none" xmlns="http://www.w3.org/2000/svg">
<g clip-path="url(#clip0_4912_505)">
<path fill-rule="evenodd" clip-rule="evenodd" d="M24.7709 5.38521C23.5855 3.79013 22.031 2.5053 20.2417 1.64077C18.2671 0.694872 16.1028 0.214386 13.9142 0.233974C11.7256 0.214393 9.56121 0.694872 7.5866 1.64077C5.79722 2.50534 4.24279 3.79013 3.05744 5.38521C0.540571 8.76966 -0.13726 13.2748 1.19577 17.7469C3.47315 25.3835 10.694 34.219 13.6928 37.6635C13.7485 37.7267 13.8299 37.7644 13.9142 37.7644C13.9985 37.7644 14.0799 37.7267 14.1356 37.6635C17.1345 34.2187 24.3553 25.3831 26.6326 17.7469C27.9671 13.2748 27.2877 8.76839 24.7709 5.38521ZM26.0707 17.5795C23.8792 24.9254 17.0078 33.4432 13.9142 37.0234C10.8204 33.4431 3.94743 24.9254 1.75765 17.5795C0.477373 13.2852 1.12204 8.96851 3.52744 5.73455C5.87866 2.57602 9.56734 0.831757 13.9145 0.822888C18.2613 0.831925 21.9502 2.57613 24.3016 5.7361C26.707 8.96843 27.3532 13.2868 26.0729 17.5811L26.0707 17.5795ZM13.9142 3.6967C16.9492 3.69369 19.7991 5.15169 21.5732 7.61431C23.3475 10.077 23.828 13.2432 22.864 16.1201C21.8986 18.9984 19.6091 21.2353 16.7096 22.133C13.8102 23.0292 10.6562 22.4749 8.23547 20.6448C5.815 18.8148 4.42475 15.9302 4.49855 12.8968C4.57236 9.86173 6.10115 7.04965 8.60741 5.3384C8.61946 5.32785 8.63302 5.31882 8.64507 5.31129C10.201 4.25692 12.0356 3.69512 13.9138 3.69662L13.9142 3.6967ZM10.1216 5.13966L14.9503 9.96843C15.006 10.0242 15.0799 10.0543 15.1582 10.0543H22.1998C22.3128 10.3631 22.4107 10.6779 22.489 10.9972L14.5439 10.9023L9.25554 5.61389C9.53569 5.44068 9.8249 5.28252 10.1216 5.14092L10.1216 5.13966ZM5.68263 16.3172L8.68149 13.3183C8.79596 13.2039 8.79596 13.0186 8.68149 12.9041L5.68263 9.90527C5.86789 9.4323 6.09382 8.97896 6.35891 8.54667L10.9243 13.1121L6.35583 17.6806C6.09224 17.2468 5.8664 16.7902 5.68263 16.3172ZM22.1998 16.1756L15.1493 16.1771C15.071 16.1771 14.9972 16.2072 14.9414 16.2615L10.1154 21.0875C9.81864 20.9459 9.52946 20.7878 9.25079 20.6131L14.7408 15.123H22.5159C22.4331 15.48 22.3261 15.8324 22.1996 16.1774L22.1998 16.1756Z" fill="white"/>
</g>
<defs>
<clipPath id="clip0_4912_505">
<rect width="26.9914" height="37.788" fill="white" transform="translate(0.417236 0.105469)"/>
</clipPath>
</defs>
</svg>
