<svg width="38" height="37" viewBox="0 0 38 37" fill="none" xmlns="http://www.w3.org/2000/svg">
<rect x="0.613281" width="37.0074" height="37.0074" rx="18.5037" fill="white" fill-opacity="0.2"/>
<path d="M22.0262 12.1317V12.1289H22.7526L23.018 12.1819C23.195 12.2163 23.3556 12.2614 23.5 12.3172C23.6443 12.373 23.784 12.4381 23.919 12.5125C24.0541 12.5869 24.1765 12.6627 24.2864 12.7399C24.3954 12.8162 24.4932 12.8971 24.5798 12.9826C24.6654 13.0691 24.7991 13.0914 24.9807 13.0496C25.1622 13.0077 25.3578 12.9496 25.5673 12.8752C25.7769 12.8008 25.9841 12.7171 26.189 12.6241C26.3938 12.5311 26.5186 12.4721 26.5633 12.447C26.6071 12.4209 26.6304 12.407 26.6332 12.4051L26.636 12.4009L26.6499 12.3939L26.6639 12.387L26.6779 12.38L26.6918 12.373L26.6946 12.3688L26.6988 12.366L26.703 12.3633L26.7058 12.3591L26.7198 12.3549L26.7337 12.3521L26.731 12.373L26.7268 12.3939L26.7198 12.4149L26.7128 12.4358L26.7058 12.4497L26.6988 12.4637L26.6918 12.4846C26.6872 12.4986 26.6825 12.5172 26.6779 12.5404C26.6732 12.5637 26.629 12.6567 26.5452 12.8194C26.4614 12.9822 26.3566 13.1472 26.2309 13.3146C26.1051 13.482 25.9925 13.6085 25.8928 13.694C25.7923 13.7805 25.7257 13.841 25.6931 13.8754C25.6605 13.9107 25.6209 13.9433 25.5743 13.973L25.5045 14.0191L25.4905 14.026L25.4765 14.033L25.4738 14.0372L25.4696 14.04L25.4654 14.0428L25.4626 14.047L25.4486 14.0539L25.4346 14.0609L25.4319 14.0651L25.4277 14.0679L25.4235 14.0707L25.4207 14.0749L25.4179 14.0791L25.4137 14.0818L25.4095 14.0846L25.4067 14.0888H25.4765L25.8677 14.0051C26.1284 13.9493 26.3775 13.8819 26.615 13.8029L26.9922 13.6773L27.0341 13.6634L27.055 13.6564L27.069 13.6494L27.083 13.6424L27.0969 13.6355L27.1109 13.6285L27.1388 13.6243L27.1668 13.6215V13.6494L27.1598 13.6522L27.1528 13.6564L27.15 13.6606L27.1458 13.6634L27.1416 13.6661L27.1388 13.6703L27.1361 13.6745L27.1319 13.6773L27.1277 13.6801L27.1249 13.6843L27.1221 13.6885L27.1179 13.6913L27.1109 13.7052L27.1039 13.7192L27.0997 13.7219C27.0979 13.7247 27.0387 13.8038 26.9223 13.9591C26.8059 14.1153 26.7431 14.1944 26.7337 14.1962C26.7244 14.199 26.7114 14.213 26.6946 14.2381C26.6788 14.2641 26.5801 14.3678 26.3985 14.5492C26.2169 14.7305 26.039 14.8918 25.8649 15.0332C25.6898 15.1755 25.6013 15.3503 25.5995 15.5577C25.5967 15.7642 25.586 15.9976 25.5673 16.258C25.5487 16.5184 25.5138 16.7997 25.4626 17.1019C25.4114 17.4042 25.3322 17.7459 25.2251 18.1272C25.118 18.5085 24.9876 18.8805 24.834 19.2432C24.6803 19.6059 24.5197 19.9314 24.3521 20.2197C24.1844 20.508 24.0308 20.7521 23.8911 20.952C23.7514 21.152 23.6094 21.3403 23.465 21.517C23.3207 21.6937 23.1382 21.8927 22.9175 22.114C22.6958 22.3344 22.5748 22.4553 22.5543 22.4767C22.5329 22.4972 22.4416 22.5734 22.2805 22.7055C22.1203 22.8385 21.948 22.9714 21.7636 23.1044C21.5802 23.2365 21.4116 23.3467 21.2579 23.435C21.1043 23.5234 20.919 23.6243 20.702 23.7377C20.4859 23.8521 20.2522 23.9581 20.0007 24.0558C19.7493 24.1534 19.4839 24.2441 19.2045 24.3278C18.9251 24.4115 18.6551 24.4766 18.3943 24.5231C18.1336 24.5696 17.8379 24.6091 17.5073 24.6417L17.0114 24.6905V24.6975H16.1034V24.6905L15.9847 24.6835C15.9055 24.6789 15.8404 24.6742 15.7891 24.6696C15.7379 24.6649 15.5447 24.6393 15.2094 24.5929C14.8742 24.5464 14.6111 24.4999 14.4202 24.4534C14.2293 24.4069 13.9452 24.3185 13.5681 24.1883C13.1909 24.0581 12.8682 23.9265 12.6 23.7935C12.3328 23.6615 12.1651 23.5778 12.0972 23.5425C12.0301 23.508 11.9547 23.4653 11.8709 23.4141L11.7451 23.3374L11.7424 23.3332L11.7382 23.3304L11.734 23.3276L11.7312 23.3234L11.7172 23.3165L11.7032 23.3095L11.7005 23.3053L11.6962 23.3025L11.6921 23.2997L11.6893 23.2955L11.6865 23.2914L11.6823 23.2886H11.6753V23.2607L11.6893 23.2635L11.7032 23.2676L11.7661 23.2746C11.808 23.2793 11.9221 23.2862 12.1083 23.2955C12.2946 23.3048 12.4925 23.3048 12.702 23.2955C12.9115 23.2862 13.1257 23.2653 13.3446 23.2328C13.5634 23.2002 13.8218 23.1444 14.1198 23.0654C14.4179 22.9863 14.6916 22.8924 14.9412 22.7836C15.1899 22.6739 15.3668 22.592 15.472 22.5381C15.5763 22.4851 15.7356 22.3865 15.9498 22.2424L16.2711 22.0261L16.2738 22.0219L16.278 22.0192L16.2822 22.0164L16.285 22.0122L16.2878 22.008L16.292 22.0052L16.2962 22.0024L16.299 21.9982L16.313 21.994L16.3269 21.9913L16.3297 21.9773L16.3339 21.9634L16.3381 21.9606L16.3409 21.9564L16.2291 21.9494C16.1547 21.9448 16.0825 21.9401 16.0126 21.9355C15.9428 21.9308 15.8334 21.9099 15.6844 21.8727C15.5354 21.8355 15.3747 21.7797 15.2024 21.7053C15.0302 21.6309 14.8625 21.5425 14.6996 21.4402C14.5366 21.338 14.4188 21.2529 14.3461 21.185C14.2744 21.118 14.1813 21.0232 14.0668 20.9004C13.9532 20.7767 13.8544 20.6498 13.7706 20.5196C13.6868 20.3894 13.6067 20.2392 13.5304 20.069L13.4144 19.8151L13.4074 19.7942L13.4004 19.7733L13.3963 19.7593L13.3935 19.7454L13.4144 19.7482L13.4354 19.7524L13.589 19.7733C13.6915 19.7872 13.8521 19.7919 14.071 19.7872C14.2898 19.7826 14.4411 19.7733 14.5249 19.7593C14.6088 19.7454 14.66 19.7361 14.6786 19.7314L14.7065 19.7245L14.7415 19.7175L14.7764 19.7105L14.7792 19.7063L14.7834 19.7035L14.7876 19.7007L14.7904 19.6966L14.7624 19.6896L14.7345 19.6826L14.7065 19.6756L14.6786 19.6687L14.6507 19.6617C14.632 19.657 14.5995 19.6477 14.5529 19.6338C14.5063 19.6198 14.3806 19.5687 14.1757 19.4803C13.9709 19.392 13.8079 19.306 13.6868 19.2223C13.5654 19.1383 13.4497 19.0465 13.3404 18.9475C13.2314 18.847 13.1118 18.7178 12.9814 18.5597C12.851 18.4016 12.7346 18.2179 12.6322 18.0087C12.5297 17.7994 12.4529 17.5995 12.4017 17.4088C12.3507 17.2193 12.317 17.0255 12.3011 16.8299L12.276 16.537L12.2899 16.5398L12.3039 16.5439L12.3179 16.5509L12.3318 16.5579L12.3458 16.5649L12.3598 16.5718L12.5763 16.6695C12.7206 16.7346 12.8999 16.7904 13.1141 16.8369C13.3283 16.8834 13.4563 16.909 13.4982 16.9136L13.5611 16.9206H13.6868L13.684 16.9164L13.6798 16.9136L13.6756 16.9108L13.6728 16.9066L13.6701 16.9025L13.6659 16.8997L13.6617 16.8969L13.6589 16.8927L13.6449 16.8857L13.6309 16.8787L13.6282 16.8746L13.624 16.8718L13.6198 16.869L13.617 16.8648L13.603 16.8578L13.589 16.8508L13.5862 16.8467C13.5835 16.8448 13.5434 16.815 13.4661 16.7574C13.3897 16.6988 13.3097 16.623 13.2258 16.53C13.142 16.437 13.0582 16.3393 12.9744 16.2371C12.8904 16.1345 12.8156 16.0248 12.7509 15.9092C12.6857 15.793 12.6168 15.6451 12.5442 15.4656C12.4725 15.2871 12.418 15.1071 12.3807 14.9258C12.3435 14.7445 12.3225 14.5654 12.3179 14.3887C12.3132 14.212 12.3179 14.0609 12.3318 13.9354C12.3458 13.8098 12.3737 13.668 12.4156 13.5099C12.4576 13.3518 12.5181 13.1844 12.5972 13.0077L12.716 12.7427L12.723 12.7218L12.7299 12.7008L12.7341 12.698L12.7369 12.6939L12.7397 12.6897L12.7439 12.6869L12.7481 12.6897L12.7509 12.6939L12.7537 12.698L12.7579 12.7008L12.7621 12.7036L12.7649 12.7078L12.7677 12.712L12.7719 12.7148L12.7788 12.7287L12.7858 12.7427L12.79 12.7455L12.7928 12.7497L12.9814 12.9589C13.1071 13.0984 13.2561 13.2542 13.4284 13.4262C13.6007 13.5983 13.6961 13.6875 13.7147 13.694C13.7334 13.7015 13.7567 13.7229 13.7846 13.7582C13.8125 13.7926 13.9057 13.8749 14.064 14.0051C14.2223 14.1353 14.4295 14.2864 14.6856 14.4585C14.9417 14.6305 15.2257 14.8003 15.5377 14.9676C15.8497 15.135 16.1849 15.2862 16.5434 15.421C16.902 15.5559 17.1534 15.6442 17.2978 15.686C17.4421 15.7279 17.6889 15.7814 18.0381 15.8465C18.3873 15.9116 18.6504 15.9534 18.8274 15.972C19.0043 15.9906 19.1254 16.0013 19.1906 16.0041L19.2883 16.0069L19.2856 15.986L19.2813 15.965L19.2534 15.7907C19.2348 15.6744 19.2255 15.5117 19.2255 15.3024C19.2255 15.0932 19.2418 14.9002 19.2744 14.7235C19.307 14.5468 19.3559 14.3678 19.421 14.1865C19.4862 14.0051 19.55 13.8596 19.6124 13.7498C19.6757 13.641 19.7586 13.5169 19.8611 13.3774C19.9635 13.2379 20.0962 13.0938 20.2592 12.945C20.4221 12.7962 20.6084 12.6636 20.8179 12.5474C21.0275 12.4312 21.2207 12.3428 21.3976 12.2824C21.5746 12.2219 21.7236 12.1824 21.8446 12.1638C21.9657 12.1452 22.0262 12.1345 22.0262 12.1317V12.1317Z" fill="white"/>
</svg>
