<svg width="43" height="43" viewBox="0 0 43 43" fill="none" xmlns="http://www.w3.org/2000/svg">
<rect x="0.5" y="0.825195" width="42" height="42" rx="11.4545" fill="#1167E8" fill-opacity="0.1"/>
<path d="M14.9579 13.0286C17.0329 12.7586 19.1479 12.6206 21.2949 12.6206C23.4419 12.6206 25.5569 12.7596 27.6319 13.0286C29.5539 13.2786 30.9229 14.8896 31.0369 16.7556C30.7026 16.6442 30.3561 16.5734 30.0049 16.5446C27.2031 16.312 24.3868 16.312 21.5849 16.5446C19.2269 16.7406 17.5449 18.7346 17.5449 20.9786V25.2646C17.544 26.0884 17.7707 26.8964 18.2 27.5994C18.6294 28.3025 19.2447 28.8732 19.9779 29.2486L17.3249 31.9006C17.22 32.0054 17.0865 32.0767 16.9411 32.1056C16.7957 32.1345 16.645 32.1196 16.508 32.0629C16.371 32.0062 16.2539 31.9102 16.1715 31.7869C16.0891 31.6637 16.0451 31.5188 16.0449 31.3706V27.3406C15.6821 27.302 15.3198 27.2594 14.9579 27.2126C12.9499 26.9506 11.5449 25.2036 11.5449 23.2326V17.0086C11.5449 15.0386 12.9499 13.2896 14.9579 13.0286Z" fill="#1167E8"/>
<path d="M25.7949 17.8706C24.4189 17.8706 23.0559 17.9276 21.7089 18.0396C20.1689 18.1676 19.0449 19.4736 19.0449 20.9796V25.2646C19.0449 26.7716 20.1729 28.0786 21.7149 28.2046C22.9579 28.3066 24.2149 28.3616 25.4829 28.3696L28.2649 31.1506C28.3698 31.2554 28.5034 31.3267 28.6488 31.3556C28.7942 31.3845 28.9449 31.3696 29.0818 31.3129C29.2188 31.2562 29.3359 31.1602 29.4183 31.0369C29.5007 30.9137 29.5448 30.7688 29.5449 30.6206V28.2306L29.8749 28.2046C31.4169 28.0796 32.5449 26.7716 32.5449 25.2646V20.9786C32.5449 19.4736 31.4199 18.1676 29.8809 18.0386C28.5218 17.9262 27.1587 17.8702 25.7949 17.8706Z" fill="#1167E8"/>
</svg>
