<svg width="43" height="43" viewBox="0 0 43 43" fill="none" xmlns="http://www.w3.org/2000/svg">
<rect x="0.5" y="0.511719" width="42" height="42" rx="11.4545" fill="#1167E8" fill-opacity="0.1"/>
<path d="M30.2949 13.8071H13.7949C13.3971 13.8071 13.0156 13.9652 12.7343 14.2465C12.453 14.5278 12.2949 14.9093 12.2949 15.3071V28.8071C12.2949 29.205 12.453 29.5865 12.7343 29.8678C13.0156 30.1491 13.3971 30.3071 13.7949 30.3071H30.2949C30.6927 30.3071 31.0743 30.1491 31.3556 29.8678C31.6369 29.5865 31.7949 29.205 31.7949 28.8071V15.3071C31.7949 14.9093 31.6369 14.5278 31.3556 14.2465C31.0743 13.9652 30.6927 13.8071 30.2949 13.8071ZM30.2949 15.3071V18.3071H13.7949V15.3071H30.2949Z" fill="#1167E8"/>
</svg>
