<svg width="15" height="11" viewBox="0 0 15 11" fill="none" xmlns="http://www.w3.org/2000/svg">
<g clip-path="url(#clip0_79_10966)">
<path fill-rule="evenodd" clip-rule="evenodd" d="M12.5729 0.818452C13.1768 0.984457 13.6485 1.46368 13.8119 2.07716C14.2743 3.96796 14.1675 6.9542 13.8209 8.91797C13.6575 9.53145 13.1857 10.0107 12.5818 10.1767C11.4954 10.4777 7.12287 10.4777 7.12287 10.4777C7.12287 10.4777 2.75031 10.4777 1.6639 10.1767C1.06001 10.0107 0.588273 9.53145 0.424862 8.91797C-0.0402279 7.03538 0.0872677 4.04731 0.415883 2.08628C0.579295 1.4728 1.05103 0.993578 1.65493 0.827573C2.74133 0.526577 7.11389 0.517456 7.11389 0.517456C7.11389 0.517456 11.4865 0.517456 12.5729 0.818452ZM9.35 5.49749L5.72266 7.63183V3.36316L9.35 5.49749Z" fill="white"/>
</g>
<defs>
<clipPath id="clip0_79_10966">
<rect width="14" height="10" fill="white" transform="translate(0.121094 0.517456)"/>
</clipPath>
</defs>
</svg>
